Sneaky Times.glyphspackage
{
glyphname = exclam;
layers = (
{
layerId = "500BB636-1048-4D7F-B62E-A2796C57CEF4";
shapes = (
{
closed = 1;
nodes = (
(169,1267,o),
(170,1245,o),
(173,1219,cs),
(177,1188,l),
(263,371,l),
(300,371,l),
(392,1180,l),
(398,1225,ls),
(401,1246,o),
(402,1267,o),
(402,1286,cs),
(402,1381,o),
(357,1438,o),
(284,1438,cs),
(217,1438,o),
(169,1373,o),
(169,1284,cs)
);
},
{
closed = 1;
nodes = (
(167,23,o),
(219,-27,o),
(280,-27,cs),
(343,-27,o),
(392,23,o),
(392,86,cs),
(392,147,o),
(343,197,o),
(280,197,cs),
(219,197,o),
(167,147,o),
(167,86,cs)
);
}
);
width = 555;
}
);
note = exclam;
unicode = 33;
}
{
glyphname = quotedbl;
layers = (
{
layerId = "500BB636-1048-4D7F-B62E-A2796C57CEF4";
shapes = (
{
closed = 1;
nodes = (
(132,1245,o),
(140,1191,o),
(155,1100,cs),
(208,803,l),
(251,803,l),
(306,1098,l),
(325,1198,l),
(329,1225,o),
(331,1251,o),
(331,1274,cs),
(331,1343,o),
(291,1386,o),
(228,1386,cs),
(164,1386,o),
(132,1345,o),
(132,1264,cs)
);
},
{
closed = 1;
nodes = (
(497,1232,o),
(498,1215,o),
(501,1198,cs),
(521,1096,l),
(574,803,l),
(622,803,l),
(679,1096,ls),
(684,1123,o),
(699,1245,o),
(699,1274,cs),
(699,1343,o),
(660,1386,o),
(599,1386,cs),
(527,1386,o),
(497,1346,o),
(497,1251,cs)
);
}
);
width = 831;
}
);
note = quotedbl;
unicode = 34;
}
{
glyphname = numbersign;
layers = (
{
layerId = "500BB636-1048-4D7F-B62E-A2796C57CEF4";
shapes = (
{
closed = 1;
nodes = (
(284,238,l),
(200,-166,l),
(325,-166,l),
(407,238,l),
(828,238,l),
(744,-166,l),
(867,-166,l),
(951,238,l),
(1225,238,l),
(1255,358,l),
(978,358,l),
(1054,729,l),
(1325,729,l),
(1355,850,l),
(1078,850,l),
(1162,1255,l),
(1041,1255,l),
(955,850,l),
(536,850,l),
(620,1255,l),
(495,1255,l),
(411,850,l),
(167,850,l),
(137,729,l),
(384,729,l),
(308,358,l),
(67,358,l),
(37,238,l)
);
},
{
closed = 1;
nodes = (
(509,729,l),
(931,729,l),
(855,358,l),
(431,358,l)
);
}
);
width = 1366;
}
);
note = numbersign;
unicode = 35;
}
{
glyphname = dollar;
layers = (
{
layerId = "500BB636-1048-4D7F-B62E-A2796C57CEF4";
shapes = (
{
closed = 1;
nodes = (
(105,66,l),
(218,19,o),
(339,-8,o),
(470,-14,c),
(470,-143,l),
(531,-143,l),
(531,-14,l),
(610,-8,o),
(680,12,o),
(741,45,cs),
(862,112,o),
(933,226,o),
(933,362,cs),
(933,508,o),
(859,628,o),
(712,721,cs),
(544,827,l),
(531,836,l),
(531,1362,l),
(714,1345,o),
(823,1224,o),
(830,1032,c),
(867,1032,l),
(867,1341,l),
(752,1394,o),
(640,1424,o),
(531,1430,c),
(531,1493,l),
(470,1493,l),
(470,1430,l),
(398,1425,o),
(334,1407,o),
(279,1378,cs),
(167,1318,o),
(105,1217,o),
(105,1096,cs),
(105,932,o),
(221,795,o),
(470,662,c),
(470,47,l),
(359,52,o),
(259,109,o),
(200,201,c),
(171,242,o),
(153,295,o),
(144,360,c),
(105,360,l)
);
},
{
closed = 1;
nodes = (
(259,1189,o),
(268,1222,o),
(286,1253,cs),
(321,1313,o),
(389,1354,o),
(470,1362,c),
(470,877,l),
(373,942,o),
(341,971,o),
(302,1028,c),
(273,1067,o),
(259,1108,o),
(259,1153,cs)
);
},
{
closed = 1;
nodes = (
(556,606,l),
(721,503,o),
(783,420,o),
(783,307,cs),
(783,172,o),
(686,72,o),
(531,49,c),
(531,623,l)
);
}
);
width = 1024;
}
);
note = dollar;
unicode = 36;
}
{
glyphname = percent;
layers = (
{
layerId = "500BB636-1048-4D7F-B62E-A2796C57CEF4";
shapes = (
{
closed = 1;
nodes = (
(194,-57,l),
(1173,1436,l),
(1085,1436,l),
(106,-57,l)
);
},
{
closed = 1;
nodes = (
(40,914,o),
(90,803,o),
(189,739,cs),
(228,714,o),
(269,702,o),
(312,702,cs),
(361,702,o),
(406,718,o),
(446,750,cs),
(526,814,o),
(574,929,o),
(574,1069,cs),
(574,1137,o),
(563,1199,o),
(540,1254,cs),
(494,1364,o),
(406,1430,o),
(306,1430,cs),
(257,1430,o),
(212,1414,o),
(172,1383,cs),
(91,1320,o),
(40,1202,o),
(40,1071,cs)
);
},
{
closed = 1;
nodes = (
(406,1399,o),
(456,1286,o),
(456,1059,cs),
(456,952,o),
(444,871,o),
(419,818,cs),
(393,763,o),
(357,735,o),
(310,735,cs),
(209,735,o),
(159,846,o),
(159,1067,cs),
(159,1288,o),
(208,1399,o),
(306,1399,cs)
);
},
{
closed = 1;
nodes = (
(743,246,o),
(769,158,o),
(821,92,cs),
(874,24,o),
(937,-12,o),
(1013,-12,cs),
(1063,-12,o),
(1108,4,o),
(1149,36,cs),
(1229,99,o),
(1278,213,o),
(1278,354,cs),
(1278,422,o),
(1266,484,o),
(1243,539,cs),
(1197,649,o),
(1110,715,o),
(1007,715,cs),
(959,715,o),
(915,699,o),
(875,668,cs),
(793,605,o),
(743,487,o),
(743,356,cs)
);
},
{
closed = 1;
nodes = (
(862,575,o),
(910,686,o),
(1007,686,cs),
(1108,686,o),
(1159,572,o),
(1159,344,cs),
(1159,241,o),
(1146,161,o),
(1121,104,cs),
(1096,48,o),
(1060,20,o),
(1011,20,cs),
(912,20,o),
(862,131,o),
(862,352,cs)
);
}
);
width = 1298;
}
);
note = percent;
unicode = 37;
}
{
glyphname = ampersand;
layers = (
{
layerId = "500BB636-1048-4D7F-B62E-A2796C57CEF4";
shapes = (
{
closed = 1;
nodes = (
(1491,192,o),
(1423,133,o),
(1342,133,cs),
(1237,133,o),
(1142,190,o),
(1021,326,c),
(1033,342,ls),
(1112,447,o),
(1146,504,o),
(1201,612,cs),
(1273,757,o),
(1300,797,o),
(1355,840,c),
(1384,859,o),
(1423,872,o),
(1472,877,c),
(1472,913,l),
(1039,913,l),
(1039,877,l),
(1100,869,o),
(1136,826,o),
(1136,758,cs),
(1136,653,o),
(1071,502,o),
(972,387,c),
(933,442,o),
(880,522,o),
(814,627,cs),
(775,692,o),
(738,758,o),
(704,825,c),
(772,857,o),
(828,890,o),
(871,924,cs),
(957,991,o),
(1019,1093,o),
(1019,1194,cs),
(1019,1239,o),
(1007,1281,o),
(983,1318,cs),
(935,1392,o),
(842,1438,o),
(742,1438,cs),
(679,1438,o),
(623,1423,o),
(572,1394,cs),
(470,1334,o),
(407,1222,o),
(407,1094,cs),
(407,1053,o),
(409,1018,o),
(413,990,cs),
(421,934,o),
(444,874,o),
(484,791,c),
(385,736,o),
(305,683,o),
(244,632,cs),
(122,528,o),
(67,422,o),
(67,291,c),
(71,287,ls),
(74,284,o),
(79,282,o),
(88,282,c),
(92,281,o),
(95,280,o),
(97,279,c),
(98,278,o),
(98,277,o),
(98,276,cs),
(98,274,ls),
(98,273,o),
(100,272,o),
(100,272,c),
(101,271,o),
(101,269,o),
(100,268,c),
(98,265,l),
(96,264,l),
(92,264,l),
(104,259,l),
(105,258,o),
(105,257,o),
(105,256,c),
(104,255,o),
(104,255,o),
(104,256,c),
(103,256,o),
(103,256,o),
(102,256,c),
(96,258,l),
(90,260,l),
(94,257,l),
(96,255,l),
(96,255,o),
(96,255,o),
(97,254,c),
(97,253,o),
(96,252,o),
(95,252,cs),
(95,252,o),
(95,252,o),
(95,253,c),
(95,253,o),
(95,253,o),
(94,253,c),
(87,258,l),
(87,257,ls),
(87,256,o),
(85,255,o),
(84,256,c),
(78,263,l),
(74,269,o),
(70,273,o),
(67,276,c),
(70,219,o),
(86,168,o),
(116,122,cs),
(176,29,o),
(286,-31,o),
(419,-31,cs),
(536,-31,o),
(647,2,o),
(753,68,cs),
(790,92,o),
(831,126,o),
(878,170,c),
(1022,22,o),
(1117,-31,o),
(1238,-31,cs),
(1342,-31,o),
(1451,35,o),
(1500,131,c),
(1524,174,o),
(1528,186,o),
(1543,254,c),
(1510,279,l)
);
},
{
closed = 1;
nodes = (
(839,1368,o),
(898,1298,o),
(898,1186,cs),
(898,1058,o),
(831,970,o),
(671,889,c),
(620,986,o),
(595,1081,o),
(595,1174,cs),
(595,1298,o),
(649,1368,o),
(744,1368,cs)
);
},
{
closed = 1;
nodes = (
(493,98,o),
(450,111,o),
(411,137,cs),
(332,188,o),
(280,281,o),
(280,381,cs),
(280,522,o),
(365,646,o),
(513,719,c),
(521,702,l),
(573,603,o),
(638,493,o),
(716,373,cs),
(749,322,o),
(786,274,o),
(826,227,c),
(743,148,o),
(631,98,o),
(538,98,cs)
);
},
{
closed = 1;
nodes = (
(91,277,o),
(88,277,o),
(86,275,cs),
(85,274,o),
(85,273,o),
(85,272,c),
(86,270,l),
(90,268,l),
(95,268,l),
(96,270,l),
(95,272,o),
(95,273,o),
(96,274,c),
(94,275,l)
);
}
);
width = 1579;
}
);
note = ampersand;
unicode = 38;
}
{
glyphname = quotesingle;
layers = (
{
layerId = "500BB636-1048-4D7F-B62E-A2796C57CEF4";
shapes = (
{
closed = 1;
nodes = (
(81,1226,o),
(82,1209,o),
(85,1200,c),
(103,1100,l),
(157,803,l),
(202,803,l),
(255,1098,l),
(273,1200,ls),
(279,1241,o),
(282,1266,o),
(282,1274,cs),
(282,1343,o),
(241,1386,o),
(177,1386,cs),
(110,1386,o),
(81,1345,o),
(81,1253,cs)
);
}
);
width = 362;
}
);
note = quotesingle;
unicode = 39;
}
{
glyphname = parenleft;
layers = (
{
layerId = "500BB636-1048-4D7F-B62E-A2796C57CEF4";
shapes = (
{
closed = 1;
nodes = (
(91,244,o),
(182,-12,o),
(345,-195,cs),
(413,-270,o),
(516,-353,o),
(624,-416,cs),
(650,-432,l),
(650,-393,l),
(399,-249,o),
(286,38,o),
(286,526,cs),
(286,1001,o),
(399,1283,o),
(650,1434,c),
(650,1468,l),
(533,1409,o),
(433,1332,o),
(350,1237,cs),
(182,1047,o),
(91,800,o),
(91,520,cs)
);
}
);
width = 681;
}
);
note = parenleft;
unicode = 40;
}
{
glyphname = parenright;
layers = (
{
layerId = "500BB636-1048-4D7F-B62E-A2796C57CEF4";
shapes = (
{
closed = 1;
nodes = (
(149,-373,o),
(249,-296,o),
(332,-201,cs),
(499,-12,o),
(589,237,o),
(589,516,cs),
(589,792,o),
(498,1050,o),
(337,1229,cs),
(276,1297,o),
(174,1381,o),
(58,1452,cs),
(32,1468,l),
(32,1430,l),
(283,1285,o),
(396,1000,o),
(396,516,cs),
(396,35,o),
(284,-248,o),
(32,-397,c),
(32,-432,l)
);
}
);
width = 681;
}
);
note = parenright;
unicode = 41;
}
{
glyphname = asterisk;
layers = (
{
layerId = "500BB636-1048-4D7F-B62E-A2796C57CEF4";
shapes = (
{
closed = 1;
nodes = (
(144,846,o),
(181,811,o),
(222,811,cs),
(270,811,o),
(308,834,o),
(368,899,cs),
(409,944,o),
(435,972,o),
(446,982,cs),
(463,997,o),
(481,1010,o),
(499,1020,c),
(496,979,o),
(485,931,o),
(466,877,cs),
(451,833,o),
(441,803,o),
(437,786,cs),
(433,769,o),
(431,752,o),
(431,733,cs),
(431,680,o),
(468,635,o),
(513,635,cs),
(558,635,o),
(593,680,o),
(593,737,cs),
(593,760,o),
(583,804,o),
(564,868,cs),
(542,935,o),
(531,983,o),
(531,1012,cs),
(531,1020,l),
(564,999,o),
(587,978,o),
(646,913,cs),
(715,837,o),
(755,811,o),
(802,811,cs),
(845,811,o),
(878,844,o),
(878,885,cs),
(878,941,o),
(825,979,o),
(712,1006,cs),
(628,1024,ls),
(600,1031,o),
(574,1042,o),
(550,1055,c),
(583,1068,o),
(633,1082,o),
(701,1098,cs),
(766,1113,o),
(811,1129,o),
(838,1148,cs),
(865,1166,o),
(878,1190,o),
(878,1221,cs),
(878,1260,o),
(843,1294,o),
(802,1294,cs),
(759,1294,o),
(709,1262,o),
(652,1198,cs),
(592,1130,o),
(583,1122,o),
(531,1087,c),
(533,1095,l),
(534,1096,o),
(534,1099,o),
(534,1102,c),
(535,1120,o),
(537,1139,o),
(541,1158,c),
(574,1274,ls),
(587,1316,o),
(593,1350,o),
(593,1376,cs),
(593,1433,o),
(560,1477,o),
(513,1477,cs),
(466,1477,o),
(431,1433,o),
(431,1376,cs),
(431,1359,o),
(437,1329,o),
(448,1286,c),
(480,1194,ls),
(493,1157,o),
(499,1121,o),
(499,1087,c),
(468,1106,o),
(444,1126,o),
(427,1145,c),
(355,1219,ls),
(307,1269,o),
(263,1294,o),
(222,1294,cs),
(179,1294,o),
(144,1262,o),
(144,1221,cs),
(144,1164,o),
(195,1126,o),
(296,1106,cs),
(390,1085,ls),
(413,1080,o),
(440,1070,o),
(472,1055,c),
(439,1036,o),
(429,1032,o),
(378,1020,cs),
(278,999,o),
(214,980,o),
(186,963,cs),
(158,946,o),
(144,920,o),
(144,883,cs)
);
}
);
width = 1024;
}
);
note = asterisk;
unicode = 42;
}
{
glyphname = plus;
layers = (
{
layerId = "500BB636-1048-4D7F-B62E-A2796C57CEF4";
shapes = (
{
closed = 1;
nodes = (
(634,608,l),
(634,121,l),
(726,121,l),
(726,608,l),
(1220,608,l),
(1220,702,l),
(726,702,l),
(726,1194,l),
(634,1194,l),
(634,702,l),
(142,702,l),
(142,608,l)
);
}
);
width = 1366;
}
);
note = plus;
unicode = 43;
}
{
glyphname = comma;
layers = (
{
layerId = "500BB636-1048-4D7F-B62E-A2796C57CEF4";
shapes = (
{
closed = 1;
nodes = (
(324,-271,o),
(423,-159,o),
(423,-4,cs),
(423,36,o),
(416,72,o),
(402,103,cs),
(373,166,o),
(320,203,o),
(257,203,cs),
(185,203,o),
(128,150,o),
(128,82,cs),
(128,23,o),
(178,-27,o),
(235,-27,cs),
(248,-27,o),
(263,-23,o),
(282,-16,c),
(304,-2,l),
(310,1,o),
(316,2,o),
(321,2,cs),
(340,2,o),
(351,-16,o),
(351,-45,cs),
(351,-70,o),
(338,-120,o),
(323,-147,cs),
(284,-219,o),
(230,-262,o),
(126,-303,c),
(126,-342,l)
);
}
);
width = 555;
}
);
note = comma;
unicode = 44;
}
{
glyphname = hyphen;
layers = (
{
layerId = "500BB636-1048-4D7F-B62E-A2796C57CEF4";
shapes = (
{
closed = 1;
nodes = (
(595,395,l),
(595,557,l),
(85,557,l),
(85,395,l)
);
}
);
width = 681;
}
);
note = hyphen;
unicode = 45;
}
{
glyphname = period;
layers = (
{
layerId = "500BB636-1048-4D7F-B62E-A2796C57CEF4";
shapes = (
{
closed = 1;
nodes = (
(218,-16,o),
(244,-27,o),
(275,-27,cs),
(338,-27,o),
(390,23,o),
(390,86,cs),
(390,149,o),
(338,199,o),
(275,199,cs),
(214,199,o),
(163,149,o),
(163,86,cs),
(163,55,o),
(174,28,o),
(196,6,cs)
);
}
);
width = 555;
}
);
note = period;
unicode = 46;
}
{
glyphname = slash;
layers = (
{
layerId = "500BB636-1048-4D7F-B62E-A2796C57CEF4";
shapes = (
{
closed = 1;
nodes = (
(84,-29,l),
(573,1423,l),
(494,1423,l),
(2,-29,l)
);
}
);
width = 575;
}
);
note = slash;
unicode = 47;
}
{
glyphname = zero;
layers = (
{
layerId = "500BB636-1048-4D7F-B62E-A2796C57CEF4";
shapes = (
{
closed = 1;
nodes = (
(65,482,o),
(103,324,o),
(194,184,cs),
(283,49,o),
(398,-25,o),
(519,-25,cs),
(619,-25,o),
(722,36,o),
(802,147,cs),
(909,291,o),
(955,460,o),
(955,705,cs),
(955,918,o),
(923,1059,o),
(843,1196,cs),
(756,1344,o),
(631,1430,o),
(503,1430,cs),
(376,1430,o),
(250,1334,o),
(163,1174,cs),
(94,1043,o),
(65,907,o),
(65,711,cs)
);
},
{
closed = 1;
nodes = (
(263,1150,o),
(344,1370,o),
(505,1370,cs),
(614,1370,o),
(695,1268,o),
(726,1092,cs),
(747,975,o),
(757,841,o),
(757,692,cs),
(757,483,o),
(736,322,o),
(695,209,cs),
(653,97,o),
(592,41,o),
(513,41,cs),
(438,41,o),
(364,107,o),
(325,207,cs),
(284,316,o),
(263,484,o),
(263,711,cs)
);
}
);
width = 1024;
}
);
note = zero;
unicode = 48;
}
{
glyphname = one;
layers = (
{
layerId = "500BB636-1048-4D7F-B62E-A2796C57CEF4";
shapes = (
{
closed = 1;
nodes = (
(777,37,l),
(765,37,ls),
(723,37,o),
(691,42,o),
(669,53,c),
(624,73,o),
(605,119,o),
(605,207,cs),
(605,1430,l),
(568,1430,l),
(461,1376,l),
(465,1374,l),
(468,1373,o),
(471,1373,o),
(475,1373,c),
(479,1372,o),
(482,1371,o),
(484,1370,c),
(485,1369,o),
(485,1368,o),
(485,1367,cs),
(485,1365,ls),
(485,1364,o),
(487,1363,o),
(487,1363,c),
(488,1362,o),
(488,1360,o),
(487,1359,c),
(485,1356,l),
(483,1355,l),
(479,1355,l),
(491,1350,l),
(492,1349,o),
(492,1348,o),
(492,1347,c),
(491,1346,o),
(491,1346,o),
(491,1347,c),
(490,1347,o),
(490,1347,o),
(489,1347,c),
(483,1349,l),
(477,1351,l),
(481,1348,l),
(483,1346,l),
(483,1346,o),
(483,1346,o),
(484,1345,c),
(484,1344,o),
(483,1343,o),
(482,1343,cs),
(482,1343,o),
(482,1343,o),
(482,1344,c),
(482,1344,o),
(482,1344,o),
(481,1344,c),
(474,1349,l),
(474,1348,ls),
(474,1347,o),
(472,1346,o),
(471,1347,c),
(465,1354,l),
(459,1362,l),
(455,1366,o),
(452,1369,o),
(449,1370,c),
(237,1264,l),
(255,1231,l),
(294,1253,o),
(326,1264,o),
(351,1264,cs),
(385,1264,o),
(407,1252,o),
(417,1227,c),
(426,1200,o),
(431,1144,o),
(431,1057,cs),
(431,203,ls),
(431,158,o),
(426,124,o),
(417,101,cs),
(397,54,o),
(353,37,o),
(261,37,cs),
(255,37,l),
(255,0,l),
(777,0,l)
);
},
{
closed = 1;
nodes = (
(478,1368,o),
(475,1368,o),
(473,1366,cs),
(472,1365,o),
(472,1364,o),
(472,1363,c),
(473,1361,l),
(477,1359,l),
(482,1359,l),
(483,1361,l),
(482,1363,o),
(482,1364,o),
(483,1365,c),
(481,1366,l)
);
}
);
width = 1024;
}
);
note = one;
unicode = 49;
}
{
glyphname = two;
layers = (
{
layerId = "500BB636-1048-4D7F-B62E-A2796C57CEF4";
shapes = (
{
closed = 1;
nodes = (
(970,262,l),
(931,262,l),
(888,182,o),
(826,152,o),
(706,152,cs),
(253,152,l),
(315,207,o),
(366,256,o),
(407,299,c),
(479,368,o),
(599,497,o),
(703,630,cs),
(807,762,o),
(884,888,o),
(884,1057,cs),
(884,1124,o),
(867,1187,o),
(832,1244,cs),
(763,1358,o),
(639,1423,o),
(508,1430,c),
(501,1424,l),
(490,1414,l),
(484,1406,l),
(478,1399,l),
(477,1398,o),
(475,1399,o),
(475,1400,cs),
(475,1401,l),
(468,1396,l),
(467,1395,o),
(465,1397,o),
(466,1398,c),
(466,1398,o),
(466,1398,o),
(466,1398,c),
(468,1400,l),
(472,1403,l),
(466,1401,l),
(460,1399,l),
(459,1399,o),
(459,1399,o),
(459,1399,c),
(458,1398,o),
(458,1398,o),
(457,1399,c),
(457,1400,o),
(457,1401,o),
(458,1402,c),
(470,1407,l),
(466,1407,l),
(464,1408,l),
(462,1411,l),
(461,1412,o),
(461,1414,o),
(462,1415,c),
(462,1415,o),
(464,1416,o),
(464,1417,cs),
(464,1419,ls),
(464,1420,o),
(464,1421,o),
(465,1422,c),
(467,1423,o),
(470,1424,o),
(475,1425,c),
(483,1425,o),
(488,1427,o),
(491,1430,c),
(278,1430,o),
(154,1310,o),
(99,1047,c),
(136,1047,l),
(198,1194,o),
(292,1268,o),
(419,1268,cs),
(474,1268,o),
(525,1255,o),
(570,1229,cs),
(660,1177,o),
(714,1077,o),
(714,965,cs),
(714,814,o),
(659,687,o),
(515,504,cs),
(382,339,o),
(272,228,o),
(83,61,cs),
(56,37,l),
(56,0,l),
(869,0,l)
);
},
{
closed = 1;
nodes = (
(472,1411,l),
(476,1413,l),
(477,1415,l),
(477,1416,o),
(477,1417,o),
(476,1418,cs),
(474,1420,o),
(471,1420,o),
(468,1418,c),
(466,1417,l),
(467,1416,o),
(467,1415,o),
(466,1413,c),
(467,1411,l)
);
}
);
width = 1024;
}
);
note = two;
unicode = 50;
}
{
glyphname = three;
layers = (
{
layerId = "500BB636-1048-4D7F-B62E-A2796C57CEF4";
shapes = (
{
closed = 1;
nodes = (
(772,946,o),
(822,1032,o),
(822,1145,cs),
(822,1197,o),
(808,1245,o),
(780,1289,cs),
(724,1377,o),
(622,1430,o),
(503,1430,cs),
(445,1430,o),
(390,1416,o),
(338,1388,cs),
(234,1332,o),
(179,1245,o),
(138,1128,c),
(173,1114,l),
(229,1227,o),
(311,1284,o),
(419,1284,cs),
(466,1284,o),
(507,1274,o),
(544,1255,cs),
(617,1215,o),
(661,1143,o),
(661,1051,cs),
(661,942,o),
(597,837,o),
(493,782,c),
(450,757,o),
(428,750,o),
(341,733,c),
(341,694,l),
(357,694,ls),
(485,694,o),
(568,666,o),
(636,601,cs),
(704,536,o),
(742,444,o),
(742,344,cs),
(742,292,o),
(732,244,o),
(711,201,cs),
(669,113,o),
(590,59,o),
(499,59,cs),
(472,59,o),
(446,63,o),
(423,71,cs),
(404,77,o),
(359,98,o),
(288,133,cs),
(249,151,o),
(219,160,o),
(198,160,cs),
(175,160,o),
(156,152,o),
(140,136,c),
(144,132,ls),
(147,129,o),
(152,127,o),
(161,127,c),
(165,126,o),
(168,125,o),
(170,124,c),
(171,123,o),
(171,122,o),
(171,121,cs),
(171,119,ls),
(171,118,o),
(173,117,o),
(173,117,c),
(174,116,o),
(174,114,o),
(173,113,c),
(171,110,l),
(169,109,l),
(165,109,l),
(177,104,l),
(178,103,o),
(178,102,o),
(178,101,c),
(177,100,o),
(177,100,o),
(177,101,c),
(176,101,o),
(176,101,o),
(175,101,c),
(169,103,l),
(163,105,l),
(167,102,l),
(169,100,l),
(169,100,o),
(169,100,o),
(170,99,c),
(170,98,o),
(169,97,o),
(168,97,cs),
(168,97,o),
(168,97,o),
(168,98,c),
(168,98,o),
(168,98,o),
(167,98,c),
(160,103,l),
(160,102,ls),
(160,101,o),
(158,100,o),
(157,101,c),
(151,108,l),
(145,116,l),
(139,122,o),
(135,125,o),
(134,126,c),
(132,127,l),
(123,112,o),
(118,97,o),
(118,84,cs),
(118,16,o),
(197,-25,o),
(333,-25,cs),
(439,-25,o),
(535,-4,o),
(620,37,cs),
(790,120,o),
(890,273,o),
(890,457,cs),
(890,633,o),
(803,763,o),
(640,831,c)
);
},
{
closed = 1;
nodes = (
(164,122,o),
(161,122,o),
(159,120,cs),
(158,119,o),
(158,118,o),
(158,117,c),
(159,115,l),
(163,113,l),
(168,113,l),
(169,115,l),
(168,117,o),
(168,118,o),
(169,119,c),
(167,120,l)
);
}
);
width = 1024;
}
);
note = three;
unicode = 51;
}
{
glyphname = four;
layers = (
{
layerId = "500BB636-1048-4D7F-B62E-A2796C57CEF4";
shapes = (
{
closed = 1;
nodes = (
(978,510,l),
(787,510,l),
(787,1430,l),
(681,1430,l),
(315,906,l),
(319,902,ls),
(322,899,o),
(327,897,o),
(336,897,c),
(340,896,o),
(343,895,o),
(345,894,c),
(346,893,o),
(346,892,o),
(346,891,cs),
(346,889,ls),
(346,888,o),
(348,887,o),
(348,887,c),
(349,886,o),
(349,884,o),
(348,883,c),
(346,880,l),
(344,879,l),
(340,879,l),
(352,874,l),
(353,873,o),
(353,872,o),
(353,871,c),
(352,870,o),
(352,870,o),
(352,871,c),
(351,871,o),
(351,871,o),
(350,871,c),
(344,873,l),
(338,875,l),
(342,872,l),
(344,870,l),
(344,870,o),
(344,870,o),
(345,869,c),
(345,868,o),
(344,867,o),
(343,867,cs),
(343,867,o),
(343,867,o),
(343,868,c),
(343,868,o),
(343,868,o),
(342,868,c),
(335,873,l),
(335,872,ls),
(335,871,o),
(333,870,o),
(332,871,c),
(326,878,l),
(320,886,l),
(320,886,o),
(316,889,o),
(308,896,c),
(44,518,l),
(44,354,l),
(617,354,l),
(617,0,l),
(787,0,l),
(787,354,l),
(978,354,l)
);
},
{
closed = 1;
nodes = (
(617,1204,l),
(617,510,l),
(130,510,l),
(613,1204,l)
);
},
{
closed = 1;
nodes = (
(343,883,l),
(344,885,l),
(343,887,o),
(343,888,o),
(344,889,c),
(342,890,l),
(339,892,o),
(336,892,o),
(334,890,cs),
(333,889,o),
(333,888,o),
(333,887,c),
(334,885,l),
(338,883,l)
);
}
);
width = 1024;
}
);
note = four;
unicode = 52;
}
{
glyphname = five;
layers = (
{
layerId = "500BB636-1048-4D7F-B62E-A2796C57CEF4";
shapes = (
{
closed = 1;
nodes = (
(501,1010,o),
(463,1022,o),
(339,1047,c),
(433,1249,l),
(847,1249,l),
(923,1407,l),
(433,1407,l),
(236,1000,l),
(240,996,ls),
(243,993,o),
(248,991,o),
(257,991,c),
(261,990,o),
(264,989,o),
(266,988,c),
(267,987,o),
(267,986,o),
(267,985,cs),
(267,983,ls),
(267,982,o),
(269,981,o),
(269,981,c),
(270,980,o),
(270,978,o),
(269,977,c),
(267,974,l),
(265,973,l),
(261,973,l),
(273,968,l),
(274,967,o),
(274,966,o),
(274,965,c),
(273,964,o),
(273,964,o),
(273,965,c),
(272,965,o),
(272,965,o),
(271,965,c),
(265,967,l),
(259,969,l),
(263,966,l),
(265,964,l),
(265,964,o),
(265,964,o),
(266,963,c),
(266,962,o),
(265,961,o),
(264,961,cs),
(264,961,o),
(264,961,o),
(264,962,c),
(264,962,o),
(264,962,o),
(263,962,c),
(256,967,l),
(256,966,ls),
(256,965,o),
(254,964,o),
(253,965,c),
(247,972,l),
(241,980,l),
(234,987,o),
(231,990,o),
(231,990,c),
(175,874,l),
(289,871,o),
(391,850,o),
(482,809,cs),
(663,728,o),
(771,582,o),
(771,406,cs),
(771,351,o),
(757,298,o),
(730,247,cs),
(674,146,o),
(576,80,o),
(472,80,cs),
(422,80,o),
(372,97,o),
(321,131,cs),
(284,154,ls),
(255,173,o),
(227,182,o),
(198,182,cs),
(157,182,o),
(126,152,o),
(126,111,cs),
(126,88,o),
(136,66,o),
(157,45,cs),
(197,3,o),
(269,-25,o),
(349,-25,cs),
(490,-25,o),
(636,34,o),
(737,131,cs),
(838,228,o),
(900,366,o),
(900,502,cs),
(900,697,o),
(784,873,o),
(597,965,cs)
);
},
{
closed = 1;
nodes = (
(260,986,o),
(257,986,o),
(255,984,cs),
(254,983,o),
(254,982,o),
(254,981,c),
(255,979,l),
(259,977,l),
(264,977,l),
(265,979,l),
(264,981,o),
(264,982,o),
(265,983,c),
(263,984,l)
);
}
);
width = 1024;
}
);
note = five;
unicode = 53;
}
{
glyphname = six;
layers = (
{
layerId = "500BB636-1048-4D7F-B62E-A2796C57CEF4";
shapes = (
{
closed = 1;
nodes = (
(730,866,o),
(669,883,o),
(601,883,cs),
(506,883,o),
(412,846,o),
(320,773,c),
(317,770,o),
(315,768,o),
(314,766,cs),
(313,764,o),
(311,762,o),
(309,760,c),
(303,752,l),
(297,745,l),
(296,744,o),
(294,745,o),
(294,746,cs),
(294,747,l),
(287,742,l),
(286,741,o),
(284,743,o),
(285,744,c),
(285,744,o),
(285,744,o),
(285,744,c),
(287,746,l),
(291,749,l),
(285,747,l),
(279,745,l),
(278,745,o),
(278,745,o),
(278,745,c),
(277,744,o),
(277,744,o),
(276,745,c),
(276,746,o),
(276,747,o),
(277,748,c),
(289,753,l),
(285,753,l),
(283,754,l),
(281,757,l),
(280,758,o),
(280,760,o),
(281,761,c),
(281,761,o),
(283,762,o),
(283,763,cs),
(283,765,ls),
(283,766,o),
(283,767,o),
(284,768,c),
(286,769,o),
(289,770,o),
(294,771,c),
(302,771,o),
(307,773,o),
(310,776,cs),
(314,780,l),
(352,922,o),
(408,1040,o),
(482,1135,cs),
(557,1232,o),
(662,1317,o),
(751,1354,cs),
(811,1381,o),
(840,1386,o),
(927,1389,c),
(927,1430,l),
(882,1430,ls),
(682,1430,o),
(476,1331,o),
(331,1170,cs),
(184,1009,o),
(95,782,o),
(95,561,cs),
(95,450,o),
(114,350,o),
(153,263,cs),
(229,83,o),
(371,-25,o),
(534,-25,cs),
(610,-25,o),
(681,-3,o),
(746,42,cs),
(876,130,o),
(955,297,o),
(955,477,cs),
(955,633,o),
(891,762,o),
(783,831,cs)
);
},
{
closed = 1;
nodes = (
(640,52,o),
(601,39,o),
(556,39,cs),
(505,39,o),
(459,61,o),
(418,104,cs),
(337,190,o),
(286,353,o),
(286,541,cs),
(286,588,o),
(291,644,o),
(300,711,c),
(388,771,o),
(445,793,o),
(513,793,cs),
(632,793,o),
(712,716,o),
(753,561,cs),
(769,495,o),
(777,429,o),
(777,362,cs),
(777,231,o),
(740,131,o),
(673,79,cs)
);
},
{
closed = 1;
nodes = (
(291,757,l),
(295,759,l),
(296,761,l),
(296,762,o),
(296,763,o),
(295,764,cs),
(293,766,o),
(290,766,o),
(287,764,c),
(285,763,l),
(286,762,o),
(286,761,o),
(285,759,c),
(286,757,l)
);
}
);
width = 1024;
}
);
note = six;
unicode = 54;
}
{
glyphname = seven;
layers = (
{
layerId = "500BB636-1048-4D7F-B62E-A2796C57CEF4";
shapes = (
{
closed = 1;
nodes = (
(374,-25,l),
(493,-25,l),
(945,1407,l),
(216,1407,l),
(220,1403,ls),
(223,1400,o),
(228,1398,o),
(237,1398,c),
(241,1397,o),
(244,1396,o),
(246,1395,c),
(247,1394,o),
(247,1393,o),
(247,1392,cs),
(247,1390,ls),
(247,1389,o),
(249,1388,o),
(249,1388,c),
(250,1387,o),
(250,1385,o),
(249,1384,c),
(247,1381,l),
(245,1380,l),
(241,1380,l),
(253,1375,l),
(254,1374,o),
(254,1373,o),
(254,1372,c),
(253,1371,o),
(253,1371,o),
(253,1372,c),
(252,1372,o),
(252,1372,o),
(251,1372,c),
(245,1374,l),
(239,1376,l),
(243,1373,l),
(245,1371,l),
(245,1371,o),
(245,1371,o),
(246,1370,c),
(246,1369,o),
(245,1368,o),
(244,1368,cs),
(244,1368,o),
(244,1368,o),
(244,1369,c),
(244,1369,o),
(244,1369,o),
(243,1369,c),
(236,1374,l),
(236,1373,ls),
(236,1372,o),
(234,1371,o),
(233,1372,c),
(227,1379,l),
(221,1387,l),
(220,1388,o),
(218,1390,o),
(215,1393,c),
(212,1395,o),
(210,1397,o),
(209,1399,c),
(85,1090,l),
(120,1075,l),
(196,1196,o),
(267,1245,o),
(374,1245,cs),
(787,1245,l)
);
},
{
closed = 1;
nodes = (
(240,1393,o),
(237,1393,o),
(235,1391,cs),
(234,1390,o),
(234,1389,o),
(234,1388,c),
(235,1386,l),
(239,1384,l),
(244,1384,l),
(245,1386,l),
(244,1388,o),
(244,1389,o),
(245,1390,c),
(243,1391,l)
);
}
);
width = 1024;
}
);
note = seven;
unicode = 55;
}
{
glyphname = eight;
layers = (
{
layerId = "500BB636-1048-4D7F-B62E-A2796C57CEF4";
shapes = (
{
closed = 1;
nodes = (
(118,263,o),
(136,204,o),
(171,151,cs),
(241,43,o),
(370,-25,o),
(513,-25,cs),
(584,-25,o),
(650,-9,o),
(710,23,cs),
(829,87,o),
(902,204,o),
(902,336,cs),
(902,388,o),
(893,436,o),
(874,480,cs),
(837,567,o),
(753,656,o),
(601,772,c),
(589,782,l),
(788,905,o),
(871,1007,o),
(871,1128,cs),
(871,1181,o),
(854,1231,o),
(821,1278,cs),
(754,1370,o),
(630,1430,o),
(501,1430,cs),
(433,1430,o),
(371,1416,o),
(315,1387,cs),
(202,1330,o),
(134,1224,o),
(134,1100,cs),
(134,916,o),
(263,818,o),
(372,733,cs),
(392,717,l),
(372,701,ls),
(317,658,o),
(273,620,o),
(241,588,cs),
(177,524,o),
(118,434,o),
(118,326,cs)
);
},
{
closed = 1;
nodes = (
(280,1201,o),
(290,1237,o),
(309,1270,cs),
(348,1334,o),
(418,1374,o),
(503,1374,cs),
(648,1374,o),
(732,1286,o),
(732,1130,cs),
(732,1011,o),
(678,927,o),
(538,823,c),
(466,883,ls),
(334,987,o),
(280,1069,o),
(280,1161,cs)
);
},
{
closed = 1;
nodes = (
(269,474,o),
(320,576,o),
(439,680,c),
(523,608,ls),
(699,459,o),
(763,367,o),
(763,264,cs),
(763,222,o),
(753,184,o),
(732,149,cs),
(691,80,o),
(614,37,o),
(525,37,cs),
(476,37,o),
(432,50,o),
(393,76,cs),
(316,128,o),
(269,225,o),
(269,342,cs)
);
}
);
width = 1024;
}
);
note = eight;
unicode = 56;
}
{
glyphname = nine;
layers = (
{
layerId = "500BB636-1048-4D7F-B62E-A2796C57CEF4";
shapes = (
{
closed = 1;
nodes = (
(653,1405,o),
(578,1430,o),
(493,1430,cs),
(341,1430,o),
(203,1337,o),
(130,1186,cs),
(94,1113,o),
(74,1025,o),
(74,936,cs),
(74,862,o),
(88,793,o),
(117,729,cs),
(173,601,o),
(291,522,o),
(427,522,cs),
(520,522,o),
(611,554,o),
(702,618,c),
(704,619,o),
(706,621,o),
(709,624,c),
(711,627,o),
(713,629,o),
(714,630,c),
(720,638,l),
(726,645,l),
(727,646,o),
(729,645,o),
(729,644,cs),
(729,643,l),
(736,648,l),
(737,649,o),
(739,647,o),
(739,647,c),
(738,646,o),
(738,646,o),
(738,646,c),
(736,644,l),
(732,641,l),
(738,643,l),
(744,645,l),
(745,645,o),
(745,645,o),
(746,646,c),
(746,646,o),
(746,646,o),
(747,645,c),
(747,644,o),
(747,643,o),
(746,642,c),
(734,637,l),
(738,637,l),
(740,636,l),
(742,633,l),
(743,632,o),
(743,630,o),
(742,629,c),
(742,629,o),
(740,628,o),
(740,627,cs),
(740,625,ls),
(740,624,o),
(740,623,o),
(739,622,c),
(737,621,o),
(734,620,o),
(730,620,c),
(725,619,o),
(722,619,o),
(719,618,c),
(718,618,o),
(717,618,o),
(715,617,cs),
(713,616,o),
(711,613,o),
(710,610,c),
(667,446,o),
(588,307,o),
(474,193,cs),
(357,73,o),
(246,22,o),
(93,18,c),
(93,-18,l),
(116,-23,o),
(135,-25,o),
(149,-25,cs),
(346,-25,o),
(550,75,o),
(697,238,cs),
(844,401,o),
(933,627,o),
(933,846,cs),
(933,1069,o),
(855,1255,o),
(720,1355,cs)
);
},
{
closed = 1;
nodes = (
(653,641,o),
(582,612,o),
(517,612,cs),
(425,612,o),
(349,664,o),
(310,756,cs),
(271,843,o),
(251,946,o),
(251,1065,cs),
(251,1126,o),
(260,1179,o),
(279,1225,cs),
(315,1316,o),
(383,1368,o),
(474,1368,cs),
(528,1368,o),
(575,1347,o),
(615,1306,cs),
(695,1223,o),
(740,1063,o),
(740,856,cs),
(740,808,o),
(736,755,o),
(728,698,c)
);
},
{
closed = 1;
nodes = (
(732,633,l),
(728,631,l),
(727,629,l),
(727,628,o),
(727,627,o),
(728,626,cs),
(730,624,o),
(733,624,o),
(736,626,c),
(738,627,l),
(737,628,o),
(737,629,o),
(738,631,c),
(737,633,l)
);
}
);
width = 1024;
}
);
note = nine;
unicode = 57;
}
{
glyphname = colon;
layers = (
{
layerId = "500BB636-1048-4D7F-B62E-A2796C57CEF4";
shapes = (
{
closed = 1;
nodes = (
(221,761,o),
(247,750,o),
(278,750,cs),
(339,750,o),
(390,801,o),
(390,862,cs),
(390,923,o),
(339,973,o),
(278,973,cs),
(217,973,o),
(167,923,o),
(167,862,cs),
(167,831,o),
(178,805,o),
(200,783,cs)
);
},
{
closed = 1;
nodes = (
(221,-16,o),
(247,-27,o),
(278,-27,cs),
(341,-27,o),
(392,23,o),
(392,86,cs),
(392,149,o),
(341,199,o),
(278,199,cs),
(217,199,o),
(165,149,o),
(165,86,cs),
(165,55,o),
(176,28,o),
(199,6,cs)
);
}
);
width = 555;
}
);
note = colon;
unicode = 58;
}
{
glyphname = less;
layers = (
{
layerId = "500BB636-1048-4D7F-B62E-A2796C57CEF4";
shapes = (
{
closed = 1;
nodes = (
(1220,160,l),
(1220,262,l),
(269,657,l),
(1220,1051,l),
(1220,1153,l),
(146,700,l),
(146,616,l)
);
}
);
width = 1368;
}
);
note = less;
unicode = 60;
}
{
glyphname = equal;
layers = (
{
layerId = "500BB636-1048-4D7F-B62E-A2796C57CEF4";
shapes = (
{
closed = 1;
nodes = (
(1220,846,l),
(1220,940,l),
(144,940,l),
(144,846,l)
);
},
{
closed = 1;
nodes = (
(1220,381,l),
(1220,475,l),
(144,475,l),
(144,381,l)
);
}
);
width = 1366;
}
);
note = equal;
unicode = 61;
}
{
glyphname = greater;
layers = (
{
layerId = "500BB636-1048-4D7F-B62E-A2796C57CEF4";
shapes = (
{
closed = 1;
nodes = (
(1220,614,l),
(1220,698,l),
(146,1153,l),
(146,1051,l),
(1095,655,l),
(146,262,l),
(146,160,l)
);
}
);
width = 1366;
}
);
note = greater;
unicode = 62;
}
{
glyphname = question;
layers = (
{
layerId = "500BB636-1048-4D7F-B62E-A2796C57CEF4";
shapes = (
{
closed = 1;
nodes = (
(521,1424,o),
(463,1438,o),
(398,1438,cs),
(335,1438,o),
(276,1425,o),
(222,1398,cs),
(114,1345,o),
(46,1245,o),
(46,1137,cs),
(46,1111,o),
(52,1086,o),
(63,1062,cs),
(85,1014,o),
(122,983,o),
(163,983,cs),
(181,983,o),
(198,990,o),
(213,1004,c),
(209,1008,ls),
(206,1011,o),
(201,1013,o),
(193,1014,c),
(188,1014,o),
(185,1015,o),
(183,1016,c),
(182,1017,o),
(182,1018,o),
(182,1019,cs),
(182,1021,ls),
(182,1022,o),
(180,1023,o),
(180,1023,c),
(179,1024,o),
(179,1026,o),
(180,1027,c),
(182,1030,l),
(184,1031,l),
(188,1031,l),
(176,1036,l),
(175,1037,o),
(175,1038,o),
(175,1039,c),
(176,1040,o),
(176,1040,o),
(177,1040,c),
(177,1039,o),
(177,1039,o),
(178,1039,c),
(184,1037,l),
(190,1035,l),
(186,1038,l),
(184,1040,l),
(184,1040,o),
(184,1041,o),
(184,1042,c),
(183,1043,o),
(184,1043,o),
(185,1043,c),
(185,1043,o),
(185,1043,o),
(186,1043,c),
(186,1043,o),
(186,1043,o),
(186,1042,c),
(193,1037,l),
(193,1038,ls),
(193,1039,o),
(195,1040,o),
(196,1039,c),
(202,1032,l),
(208,1024,l),
(214,1018,o),
(218,1015,o),
(219,1014,c),
(221,1013,l),
(234,1030,o),
(241,1048,o),
(241,1067,cs),
(241,1082,o),
(236,1101,o),
(226,1124,c),
(189,1192,l),
(180,1213,o),
(175,1228,o),
(175,1239,cs),
(175,1261,o),
(183,1283,o),
(199,1304,cs),
(231,1346,o),
(285,1374,o),
(341,1374,cs),
(383,1374,o),
(421,1362,o),
(454,1337,cs),
(520,1288,o),
(558,1194,o),
(558,1079,cs),
(558,1039,o),
(555,1004,o),
(550,974,cs),
(538,913,o),
(523,879,o),
(464,748,cs),
(448,713,ls),
(396,598,o),
(370,490,o),
(370,389,c),
(372,334,l),
(409,334,l),
(409,348,ls),
(409,389,o),
(413,428,o),
(420,465,cs),
(434,539,o),
(465,602,o),
(564,725,cs),
(613,784,o),
(650,835,o),
(676,876,cs),
(728,958,o),
(747,1024,o),
(747,1116,cs),
(747,1235,o),
(682,1338,o),
(574,1395,cs)
);
},
{
closed = 1;
nodes = (
(189,1018,o),
(192,1018,o),
(194,1020,cs),
(195,1021,o),
(195,1022,o),
(195,1023,c),
(194,1025,l),
(190,1027,l),
(185,1027,l),
(184,1025,l),
(185,1023,o),
(185,1022,o),
(184,1021,c),
(186,1020,l)
);
},
{
closed = 1;
nodes = (
(335,199,o),
(286,147,o),
(286,86,cs),
(286,23,o),
(335,-27,o),
(398,-27,cs),
(459,-27,o),
(511,23,o),
(511,86,cs),
(511,147,o),
(459,199,o),
(398,199,cs)
);
}
);
width = 788;
}
);
note = question;
unicode = 63;
}
{
glyphname = at;
layers = (
{
layerId = "500BB636-1048-4D7F-B62E-A2796C57CEF4";
shapes = (
{
closed = 1;
nodes = (
(95,135,o),
(222,-94,o),
(398,-242,cs),
(551,-371,o),
(751,-442,o),
(968,-442,cs),
(1101,-442,o),
(1226,-417,o),
(1343,-366,cs),
(1578,-265,o),
(1754,-73,o),
(1834,172,c),
(1777,172,l),
(1625,-183,o),
(1336,-381,o),
(972,-381,cs),
(822,-381,o),
(687,-347,o),
(568,-279,cs),
(328,-144,o),
(189,109,o),
(189,418,cs),
(189,673,o),
(282,921,o),
(439,1094,cs),
(595,1267,o),
(819,1370,o),
(1050,1370,cs),
(1174,1370,o),
(1285,1344,o),
(1384,1292,cs),
(1580,1187,o),
(1695,991,o),
(1695,754,cs),
(1695,569,o),
(1629,376,o),
(1521,248,cs),
(1453,164,o),
(1349,102,o),
(1273,102,cs),
(1230,102,o),
(1197,135,o),
(1197,180,cs),
(1197,184,l),
(1198,211,o),
(1209,264,o),
(1230,344,cs),
(1291,559,l),
(1408,958,l),
(1250,936,l),
(1220,825,l),
(1216,825,l),
(1196,918,o),
(1139,965,o),
(1046,965,cs),
(958,965,o),
(850,906,o),
(747,803,cs),
(596,648,o),
(495,432,o),
(495,264,cs),
(495,220,o),
(503,180,o),
(519,145,cs),
(550,74,o),
(606,31,o),
(675,31,cs),
(749,31,o),
(826,67,o),
(906,139,cs),
(967,196,o),
(989,220,o),
(1064,315,c),
(1068,311,l),
(1057,262,o),
(1052,215,o),
(1052,170,cs),
(1052,77,o),
(1103,31,o),
(1205,31,cs),
(1336,31,o),
(1459,91,o),
(1559,197,cs),
(1658,303,o),
(1756,486,o),
(1756,737,cs),
(1756,871,o),
(1726,990,o),
(1667,1094,cs),
(1547,1302,o),
(1320,1423,o),
(1041,1423,cs),
(788,1423,o),
(541,1317,o),
(369,1140,cs),
(197,963,o),
(95,708,o),
(95,444,cs)
);
},
{
closed = 1;
nodes = (
(652,383,o),
(701,524,o),
(774,655,cs),
(846,786,o),
(947,918,o),
(1056,918,cs),
(1129,918,o),
(1181,857,o),
(1181,770,cs),
(1181,713,o),
(1166,638,o),
(1136,545,cs),
(1108,458,o),
(1088,417,o),
(1033,344,cs),
(936,216,o),
(848,152,o),
(767,152,cs),
(746,152,o),
(727,158,o),
(710,171,c),
(674,196,o),
(652,242,o),
(652,295,cs)
);
}
);
width = 1878;
}
);
note = at;
unicode = 64;
}
{
glyphname = B;
layers = (
{
layerId = "500BB636-1048-4D7F-B62E-A2796C57CEF4";
shapes = (
{
closed = 1;
nodes = (
(1132,663,o),
(1072,692,o),
(957,716,c),
(954,717,o),
(952,716,o),
(951,714,c),
(949,711,o),
(948,710,o),
(947,709,cs),
(945,707,o),
(943,704,o),
(941,701,c),
(938,697,o),
(936,694,o),
(934,693,c),
(933,693,o),
(932,693,o),
(931,694,c),
(929,695,l),
(926,694,l),
(925,694,o),
(924,695,o),
(923,696,c),
(921,699,l),
(921,702,l),
(923,705,l),
(915,698,l),
(913,697,o),
(911,697,o),
(910,698,cs),
(909,699,o),
(909,699,o),
(910,700,c),
(911,700,o),
(911,700,o),
(911,700,cs),
(911,700,o),
(913,702,o),
(916,705,c),
(921,709,l),
(916,707,l),
(913,706,l),
(913,706,o),
(913,706,o),
(912,706,cs),
(911,706,o),
(911,706,o),
(910,707,cs),
(909,708,o),
(912,709,o),
(913,709,c),
(917,711,o),
(920,712,o),
(921,712,c),
(920,713,o),
(919,715,o),
(920,716,c),
(924,717,o),
(927,718,o),
(929,718,cs),
(930,718,o),
(934,719,o),
(939,720,c),
(955,725,l),
(1114,764,o),
(1209,880,o),
(1209,1032,cs),
(1209,1157,o),
(1142,1268,o),
(1025,1333,cs),
(932,1382,o),
(805,1407,o),
(646,1407,cs),
(83,1407,l),
(83,1368,l),
(95,1368,ls),
(146,1367,o),
(184,1362,o),
(211,1351,cs),
(264,1330,o),
(286,1281,o),
(286,1192,cs),
(286,215,ls),
(286,170,o),
(280,135,o),
(268,110,cs),
(244,59,o),
(190,38,o),
(95,37,cs),
(83,37,l),
(83,0,l),
(728,-2,ls),
(915,-2,o),
(1046,32,o),
(1134,100,cs),
(1223,168,o),
(1273,266,o),
(1273,377,cs),
(1273,462,o),
(1245,536,o),
(1189,598,cs)
);
},
{
closed = 1;
nodes = (
(509,1327,l),
(558,1335,o),
(599,1339,o),
(634,1339,cs),
(699,1339,o),
(758,1326,o),
(810,1301,cs),
(913,1250,o),
(974,1156,o),
(974,1040,cs),
(974,985,o),
(961,936,o),
(935,893,cs),
(883,806,o),
(786,756,o),
(667,756,cs),
(636,756,o),
(595,761,o),
(544,772,c),
(509,778,l)
);
},
{
closed = 1;
nodes = (
(930,707,o),
(929,706,o),
(928,705,c),
(925,700,l),
(926,698,l),
(927,697,o),
(928,697,o),
(929,698,c),
(930,698,o),
(930,698,o),
(930,697,c),
(932,698,l),
(940,701,o),
(936,707,o),
(931,707,cs)
);
},
{
closed = 1;
nodes = (
(802,85,o),
(743,72,o),
(677,72,cs),
(601,72,o),
(574,75,o),
(509,98,c),
(509,682,l),
(539,686,o),
(571,688,o),
(605,688,cs),
(686,688,o),
(758,675,o),
(821,650,cs),
(945,598,o),
(1015,500,o),
(1015,375,cs),
(1015,255,o),
(957,161,o),
(854,110,cs)
);
}
);
width = 1366;
}
);
note = B;
unicode = 66;
}
{
glyphname = C;
layers = (
{
layerId = "500BB636-1048-4D7F-B62E-A2796C57CEF4";
shapes = (
{
closed = 1;
nodes = (
(1472,388,o),
(1413,304,o),
(1346,237,cs),
(1213,103,o),
(1064,41,o),
(915,41,cs),
(904,41,o),
(888,42,o),
(867,43,c),
(754,53,o),
(659,90,o),
(580,155,cs),
(423,283,o),
(345,484,o),
(345,680,cs),
(345,911,o),
(396,1085,o),
(499,1204,cs),
(587,1303,o),
(731,1366,o),
(871,1366,cs),
(998,1366,o),
(1134,1315,o),
(1222,1235,cs),
(1297,1164,o),
(1338,1083,o),
(1361,963,c),
(1396,963,l),
(1361,1440,l),
(1326,1440,l),
(1324,1432,ls),
(1307,1372,o),
(1284,1347,o),
(1249,1347,cs),
(1235,1347,o),
(1216,1352,o),
(1191,1362,c),
(1085,1413,o),
(972,1438,o),
(853,1438,cs),
(646,1438,o),
(446,1356,o),
(309,1219,cs),
(168,1080,o),
(85,887,o),
(85,684,c),
(89,680,ls),
(92,677,o),
(97,675,o),
(106,675,c),
(110,674,o),
(113,673,o),
(115,672,c),
(116,671,o),
(116,670,o),
(116,669,cs),
(116,667,ls),
(116,666,o),
(118,665,o),
(118,665,c),
(119,664,o),
(119,662,o),
(118,661,c),
(116,658,l),
(114,657,l),
(110,657,l),
(122,652,l),
(123,651,o),
(123,650,o),
(123,649,c),
(122,648,o),
(122,648,o),
(122,649,c),
(121,649,o),
(121,649,o),
(120,649,c),
(114,651,l),
(108,653,l),
(112,650,l),
(114,648,l),
(114,648,o),
(114,648,o),
(115,647,c),
(115,646,o),
(114,645,o),
(113,645,cs),
(113,645,o),
(113,645,o),
(113,646,c),
(113,646,o),
(113,646,o),
(112,646,c),
(105,651,l),
(105,650,ls),
(105,649,o),
(103,648,o),
(102,649,c),
(96,656,l),
(85,670,l),
(89,395,o),
(223,174,o),
(443,51,cs),
(663,-72,o),
(912,-72,o),
(1090,-3,cs),
(1268,66,o),
(1430,222,o),
(1545,469,c),
(1524,490,l)
);
},
{
closed = 1;
nodes = (
(109,670,o),
(106,670,o),
(104,668,cs),
(103,667,o),
(103,666,o),
(103,665,c),
(104,663,l),
(108,661,l),
(113,661,l),
(114,663,l),
(113,665,o),
(113,666,o),
(114,667,c),
(112,668,l)
);
}
);
width = 1546;
}
);
note = C;
unicode = 67;
}
{
glyphname = D;
layers = (
{
layerId = "500BB636-1048-4D7F-B62E-A2796C57CEF4";
shapes = (
{
closed = 1;
nodes = (
(1357,1258,o),
(1233,1329,o),
(1145,1362,cs),
(1057,1394,o),
(968,1404,o),
(783,1407,cs),
(65,1407,l),
(65,1368,l),
(81,1368,ls),
(181,1365,o),
(230,1345,o),
(254,1297,c),
(265,1271,o),
(271,1236,o),
(271,1192,cs),
(271,215,ls),
(271,170,o),
(265,135,o),
(253,110,cs),
(229,59,o),
(176,38,o),
(81,37,cs),
(65,37,l),
(65,0,l),
(718,-2,ls),
(1001,-2,o),
(1195,56,o),
(1351,181,c),
(1348,184,ls),
(1345,187,o),
(1340,189,o),
(1332,190,c),
(1327,190,o),
(1324,191,o),
(1322,192,c),
(1321,193,o),
(1321,194,o),
(1321,195,cs),
(1321,197,ls),
(1321,198,o),
(1319,199,o),
(1319,199,c),
(1318,200,o),
(1318,202,o),
(1319,203,c),
(1321,206,l),
(1323,207,l),
(1327,207,l),
(1315,212,l),
(1314,213,o),
(1314,214,o),
(1314,215,c),
(1315,216,o),
(1315,216,o),
(1316,216,c),
(1316,215,o),
(1316,215,o),
(1317,215,c),
(1323,213,l),
(1329,211,l),
(1325,214,l),
(1323,216,l),
(1323,216,o),
(1323,217,o),
(1323,218,c),
(1322,219,o),
(1323,219,o),
(1324,219,c),
(1324,219,o),
(1324,219,o),
(1325,219,c),
(1325,219,o),
(1325,219,o),
(1325,218,c),
(1332,213,l),
(1332,214,ls),
(1332,215,o),
(1334,216,o),
(1335,215,c),
(1341,208,l),
(1347,200,l),
(1353,194,o),
(1357,191,o),
(1358,190,c),
(1360,189,l),
(1516,317,o),
(1603,498,o),
(1603,702,cs),
(1603,861,o),
(1549,1013,o),
(1453,1137,cs)
);
},
{
closed = 1;
nodes = (
(950,98,o),
(839,72,o),
(712,72,cs),
(636,72,o),
(563,82,o),
(493,102,c),
(493,1296,l),
(568,1319,o),
(645,1331,o),
(722,1331,cs),
(842,1331,o),
(949,1304,o),
(1044,1251,cs),
(1232,1143,o),
(1342,941,o),
(1342,692,cs),
(1342,444,o),
(1236,252,o),
(1045,149,cs)
);
},
{
closed = 1;
nodes = (
(1328,194,o),
(1331,194,o),
(1333,196,cs),
(1334,197,o),
(1334,198,o),
(1334,199,c),
(1333,201,l),
(1329,203,l),
(1324,203,l),
(1323,201,l),
(1324,199,o),
(1324,198,o),
(1323,197,c),
(1325,196,l)
);
}
);
width = 1685;
}
);
note = D;
unicode = 68;
}
{
glyphname = E;
layers = (
{
layerId = "500BB636-1048-4D7F-B62E-A2796C57CEF4";
shapes = (
{
closed = 1;
nodes = (
(1359,448,l),
(1322,448,l),
(1188,120,o),
(1068,80,o),
(893,80,cs),
(591,80,ls),
(562,80,o),
(540,86,o),
(526,97,c),
(523,95,l),
(512,86,l),
(506,78,l),
(500,71,l),
(499,70,o),
(497,71,o),
(497,72,cs),
(497,73,l),
(490,68,l),
(489,67,o),
(487,69,o),
(488,70,cs),
(490,72,l),
(494,75,l),
(482,71,l),
(481,71,l),
(480,70,o),
(480,70,o),
(479,71,c),
(479,72,o),
(479,73,o),
(480,74,c),
(492,79,l),
(488,79,l),
(486,80,l),
(484,83,l),
(483,84,o),
(483,86,o),
(484,87,c),
(484,87,o),
(486,88,o),
(486,89,cs),
(486,91,ls),
(486,92,o),
(486,93,o),
(487,94,c),
(489,95,o),
(492,96,o),
(497,97,c),
(505,97,o),
(510,99,o),
(513,102,cs),
(517,106,l),
(504,123,o),
(497,152,o),
(497,193,cs),
(497,700,l),
(851,700,ls),
(992,700,o),
(1044,655,o),
(1064,472,c),
(1101,472,l),
(1050,997,l),
(1013,997,l),
(1033,846,o),
(991,782,o),
(859,782,cs),
(497,782,l),
(497,1325,l),
(925,1325,l),
(974,1323,ls),
(1105,1318,o),
(1170,1182,o),
(1190,1026,c),
(1225,1026,l),
(1189,1407,l),
(73,1407,l),
(73,1368,l),
(85,1368,ls),
(185,1365,o),
(234,1345,o),
(258,1297,c),
(269,1271,o),
(275,1236,o),
(275,1192,cs),
(275,215,ls),
(275,170,o),
(269,135,o),
(257,110,cs),
(233,59,o),
(180,38,o),
(85,37,cs),
(73,37,l),
(73,0,l),
(1205,0,l)
);
},
{
closed = 1;
nodes = (
(494,83,l),
(498,85,l),
(499,87,l),
(499,88,o),
(499,89,o),
(498,90,cs),
(496,92,o),
(493,92,o),
(490,90,c),
(488,89,l),
(489,88,o),
(489,87,o),
(488,85,c),
(489,83,l)
);
}
);
width = 1366;
}
);
note = E;
unicode = 69;
}
{
glyphname = F;
layers = (
{
layerId = "500BB636-1048-4D7F-B62E-A2796C57CEF4";
shapes = (
{
closed = 1;
nodes = (
(1255,1034,l),
(1221,1407,l),
(87,1407,l),
(87,1368,l),
(93,1368,ls),
(144,1367,o),
(183,1361,o),
(210,1350,cs),
(264,1328,o),
(284,1280,o),
(284,1192,cs),
(284,760,l),
(288,756,ls),
(291,753,o),
(296,751,o),
(305,751,c),
(309,750,o),
(312,749,o),
(314,748,c),
(315,747,o),
(315,746,o),
(315,745,cs),
(315,743,ls),
(315,742,o),
(317,741,o),
(317,741,c),
(318,740,o),
(318,738,o),
(317,737,c),
(315,734,l),
(313,733,l),
(309,733,l),
(321,728,l),
(322,727,o),
(322,726,o),
(322,725,c),
(321,724,o),
(321,724,o),
(321,725,c),
(320,725,o),
(320,725,o),
(319,725,c),
(313,727,l),
(307,729,l),
(311,726,l),
(313,724,l),
(313,724,o),
(313,724,o),
(314,723,c),
(314,722,o),
(313,721,o),
(312,721,cs),
(312,721,o),
(312,721,o),
(312,722,c),
(312,722,o),
(312,722,o),
(311,722,c),
(304,727,l),
(304,726,ls),
(304,725,o),
(302,724,o),
(301,725,c),
(295,732,l),
(289,740,l),
(284,745,l),
(284,215,ls),
(284,170,o),
(278,136,o),
(267,111,cs),
(243,61,o),
(189,38,o),
(93,37,cs),
(87,37,l),
(87,0,l),
(708,0,l),
(708,37,l),
(697,37,ls),
(648,38,o),
(611,44,o),
(584,55,cs),
(531,77,o),
(509,124,o),
(509,215,cs),
(509,700,l),
(764,700,ls),
(952,700,o),
(988,668,o),
(1012,462,c),
(1049,462,l),
(989,991,l),
(952,991,l),
(972,828,o),
(946,784,o),
(766,784,cs),
(509,784,l),
(509,1337,l),
(881,1337,ls),
(1105,1337,o),
(1170,1238,o),
(1219,1034,c)
);
},
{
closed = 1;
nodes = (
(308,746,o),
(305,746,o),
(303,744,cs),
(302,743,o),
(302,742,o),
(302,741,c),
(303,739,l),
(307,737,l),
(312,737,l),
(313,739,l),
(312,741,o),
(312,742,o),
(313,743,c),
(311,744,l)
);
}
);
width = 1315;
}
);
note = F;
unicode = 70;
}
{
glyphname = G;
layers = (
{
layerId = "500BB636-1048-4D7F-B62E-A2796C57CEF4";
shapes = (
{
closed = 1;
nodes = (
(1511,713,o),
(1666,719,c),
(1666,756,l),
(962,756,l),
(962,719,l),
(1237,719,o),
(1256,681,o),
(1256,530,c),
(1261,535,l),
(1267,543,l),
(1273,550,l),
(1274,551,o),
(1276,550,o),
(1276,549,cs),
(1276,548,l),
(1283,553,l),
(1284,554,o),
(1286,552,o),
(1286,552,c),
(1285,551,o),
(1285,551,o),
(1285,551,c),
(1283,549,l),
(1279,546,l),
(1285,548,l),
(1291,550,l),
(1292,550,o),
(1292,550,o),
(1293,551,c),
(1293,551,o),
(1293,551,o),
(1294,550,c),
(1294,549,o),
(1294,548,o),
(1293,547,c),
(1281,542,l),
(1285,542,l),
(1287,541,l),
(1289,538,l),
(1290,537,o),
(1290,535,o),
(1289,534,c),
(1289,534,o),
(1287,533,o),
(1287,532,cs),
(1287,530,ls),
(1287,529,o),
(1287,528,o),
(1286,527,c),
(1284,526,o),
(1281,525,o),
(1277,525,c),
(1268,524,o),
(1263,522,o),
(1260,519,cs),
(1256,515,l),
(1256,150,l),
(1147,77,o),
(1058,47,o),
(943,47,cs),
(830,47,o),
(728,75,o),
(637,132,cs),
(456,244,o),
(345,455,o),
(345,702,cs),
(345,831,o),
(369,946,o),
(416,1046,cs),
(511,1245,o),
(689,1359,o),
(910,1362,cs),
(1235,1366,o),
(1351,1237,o),
(1475,927,c),
(1511,927,l),
(1433,1438,l),
(1394,1438,l),
(1385,1373,o),
(1362,1341,o),
(1324,1341,cs),
(1311,1341,o),
(1288,1347,o),
(1256,1360,c),
(1141,1412,o),
(1022,1438,o),
(898,1438,cs),
(679,1438,o),
(470,1355,o),
(322,1214,cs),
(174,1074,o),
(87,870,o),
(87,662,cs),
(87,470,o),
(166,306,o),
(323,170,cs),
(487,29,o),
(666,-31,o),
(923,-31,cs),
(1066,-31,o),
(1166,-17,o),
(1273,22,cs),
(1372,58,o),
(1459,104,o),
(1558,175,c),
(1558,188,l),
(1480,188,l),
(1480,504,ls),
(1480,668,o)
);
},
{
closed = 1;
nodes = (
(1279,538,l),
(1275,536,l),
(1274,534,l),
(1274,533,o),
(1274,532,o),
(1275,531,cs),
(1277,529,o),
(1280,529,o),
(1283,531,c),
(1285,532,l),
(1284,533,o),
(1284,534,o),
(1285,536,c),
(1284,538,l)
);
}
);
width = 1685;
}
);
note = G;
unicode = 71;
}
{
glyphname = H;
layers = (
{
layerId = "500BB636-1048-4D7F-B62E-A2796C57CEF4";
shapes = (
{
closed = 1;
nodes = (
(1515,1361,o),
(1553,1367,o),
(1603,1368,cs),
(1617,1368,l),
(1617,1407,l),
(982,1407,l),
(982,1368,l),
(1000,1368,ls),
(1051,1367,o),
(1089,1361,o),
(1116,1350,cs),
(1169,1329,o),
(1191,1280,o),
(1191,1192,cs),
(1191,766,l),
(837,766,l),
(841,762,ls),
(844,759,o),
(849,757,o),
(858,757,c),
(862,756,o),
(865,755,o),
(867,754,c),
(868,753,o),
(868,752,o),
(868,751,cs),
(868,749,ls),
(868,748,o),
(870,747,o),
(870,747,c),
(871,746,o),
(871,744,o),
(870,743,c),
(868,740,l),
(866,739,l),
(862,739,l),
(874,734,l),
(875,733,o),
(875,732,o),
(875,731,c),
(874,730,o),
(874,730,o),
(874,731,c),
(873,731,o),
(873,731,o),
(872,731,c),
(866,733,l),
(860,735,l),
(864,732,l),
(866,730,l),
(866,730,o),
(866,730,o),
(867,729,c),
(867,728,o),
(866,727,o),
(865,727,cs),
(865,727,o),
(865,727,o),
(865,728,c),
(865,728,o),
(865,728,o),
(864,728,c),
(857,733,l),
(857,732,ls),
(857,731,o),
(855,730,o),
(854,731,c),
(848,738,l),
(842,746,l),
(841,747,o),
(837,750,o),
(832,755,c),
(827,759,o),
(823,763,o),
(822,766,c),
(499,766,l),
(499,1192,ls),
(499,1237,o),
(505,1272,o),
(517,1297,cs),
(541,1346,o),
(592,1367,o),
(689,1368,cs),
(706,1368,l),
(706,1407,l),
(75,1407,l),
(75,1368,l),
(85,1368,ls),
(136,1367,o),
(174,1362,o),
(201,1351,cs),
(254,1330,o),
(275,1281,o),
(275,1192,cs),
(275,215,ls),
(275,170,o),
(269,134,o),
(258,109,cs),
(234,58,o),
(183,38,o),
(87,37,cs),
(75,37,l),
(75,0,l),
(706,0,l),
(706,37,l),
(689,37,ls),
(640,38,o),
(602,45,o),
(575,56,cs),
(522,78,o),
(499,126,o),
(499,215,cs),
(499,680,l),
(1191,680,l),
(1191,215,ls),
(1191,167,o),
(1185,131,o),
(1173,107,cs),
(1149,58,o),
(1094,40,o),
(982,37,c),
(982,0,l),
(1617,0,l),
(1617,37,l),
(1603,37,ls),
(1554,38,o),
(1516,45,o),
(1489,56,cs),
(1435,78,o),
(1412,126,o),
(1412,215,cs),
(1412,1192,ls),
(1412,1283,o),
(1433,1329,o),
(1488,1350,cs)
);
},
{
closed = 1;
nodes = (
(861,752,o),
(858,752,o),
(856,750,cs),
(855,749,o),
(855,748,o),
(855,747,c),
(856,745,l),
(860,743,l),
(865,743,l),
(866,745,l),
(865,747,o),
(865,748,o),
(866,749,c),
(864,750,l)
);
}
);
width = 1685;
}
);
note = H;
unicode = 72;
}
{
glyphname = I;
layers = (
{
layerId = "500BB636-1048-4D7F-B62E-A2796C57CEF4";
shapes = (
{
closed = 1;
nodes = (
(500,1212,l),
(505,1207,l),
(506,1248,o),
(513,1279,o),
(525,1302,cs),
(548,1347,o),
(595,1368,o),
(695,1368,cs),
(716,1368,l),
(716,1407,l),
(69,1407,l),
(69,1368,l),
(93,1368,ls),
(142,1368,o),
(180,1363,o),
(207,1352,cs),
(261,1330,o),
(282,1281,o),
(282,1192,cs),
(282,215,ls),
(282,166,o),
(276,130,o),
(264,105,cs),
(240,56,o),
(186,37,o),
(69,37,c),
(69,0,l),
(716,0,l),
(716,37,l),
(658,38,o),
(614,43,o),
(585,54,cs),
(526,75,o),
(505,122,o),
(505,215,cs),
(505,1192,l),
(501,1196,ls),
(498,1199,o),
(493,1201,o),
(485,1202,c),
(480,1202,o),
(477,1203,o),
(475,1204,c),
(474,1205,o),
(474,1206,o),
(474,1207,cs),
(474,1209,ls),
(474,1210,o),
(472,1211,o),
(472,1211,c),
(471,1212,o),
(471,1214,o),
(472,1215,c),
(474,1218,l),
(476,1219,l),
(480,1219,l),
(468,1224,l),
(467,1225,o),
(467,1226,o),
(467,1227,c),
(468,1228,o),
(468,1228,o),
(469,1228,c),
(469,1227,o),
(469,1227,o),
(470,1227,c),
(476,1225,l),
(482,1223,l),
(478,1226,l),
(476,1228,l),
(476,1228,o),
(476,1229,o),
(476,1230,c),
(475,1231,o),
(476,1231,o),
(477,1231,c),
(477,1231,o),
(477,1231,o),
(478,1231,c),
(478,1231,o),
(478,1231,o),
(478,1230,c),
(485,1225,l),
(485,1226,ls),
(485,1227,o),
(487,1228,o),
(488,1227,c),
(494,1220,l)
);
},
{
closed = 1;
nodes = (
(481,1206,o),
(484,1206,o),
(486,1208,cs),
(487,1209,o),
(487,1210,o),
(487,1211,c),
(486,1213,l),
(482,1215,l),
(477,1215,l),
(476,1213,l),
(477,1211,o),
(477,1210,o),
(476,1209,c),
(478,1208,l)
);
}
);
width = 788;
}
);
note = I;
unicode = 73;
}
{
glyphname = J;
layers = (
{
layerId = "500BB636-1048-4D7F-B62E-A2796C57CEF4";
shapes = (
{
closed = 1;
nodes = (
(851,1407,l),
(224,1407,l),
(224,1368,l),
(241,1368,ls),
(341,1365,o),
(390,1345,o),
(414,1297,c),
(425,1271,o),
(431,1236,o),
(431,1192,cs),
(431,223,ls),
(431,159,o),
(425,113,o),
(414,84,c),
(418,80,ls),
(421,77,o),
(426,75,o),
(435,75,c),
(439,74,o),
(442,73,o),
(444,72,c),
(445,71,o),
(445,70,o),
(445,69,cs),
(445,67,ls),
(445,66,o),
(447,65,o),
(447,65,c),
(448,64,o),
(448,62,o),
(447,61,c),
(445,58,l),
(443,57,l),
(439,57,l),
(451,52,l),
(452,51,o),
(452,50,o),
(452,49,c),
(451,48,o),
(451,48,o),
(451,49,c),
(450,49,o),
(450,49,o),
(449,49,c),
(443,51,l),
(437,53,l),
(441,50,l),
(443,48,l),
(443,48,o),
(443,48,o),
(444,47,c),
(444,46,o),
(443,45,o),
(442,45,cs),
(442,45,o),
(442,45,o),
(442,46,c),
(442,46,o),
(442,46,o),
(441,46,c),
(434,51,l),
(434,50,ls),
(434,49,o),
(432,48,o),
(431,49,c),
(425,56,l),
(419,64,l),
(418,65,o),
(414,68,o),
(408,72,c),
(397,53,o),
(380,43,o),
(357,43,cs),
(324,43,o),
(299,67,o),
(267,131,cs),
(231,200,o),
(198,227,o),
(146,227,cs),
(87,227,o),
(44,182,o),
(44,123,cs),
(44,94,o),
(54,67,o),
(74,44,cs),
(113,-3,o),
(188,-31,o),
(275,-31,cs),
(351,-31,o),
(418,-12,o),
(475,26,cs),
(589,102,o),
(652,245,o),
(652,434,cs),
(652,1192,ls),
(652,1237,o),
(658,1272,o),
(670,1297,cs),
(693,1347,o),
(743,1367,o),
(843,1368,cs),
(851,1368,l)
);
},
{
closed = 1;
nodes = (
(438,70,o),
(435,70,o),
(433,68,cs),
(432,67,o),
(432,66,o),
(432,65,c),
(433,63,l),
(437,61,l),
(442,61,l),
(443,63,l),
(442,65,o),
(442,66,o),
(443,67,c),
(441,68,l)
);
}
);
width = 897;
}
);
note = J;
unicode = 74;
}
{
glyphname = K;
layers = (
{
layerId = "500BB636-1048-4D7F-B62E-A2796C57CEF4";
shapes = (
{
closed = 1;
nodes = (
(1674,37,l),
(1646,37,ls),
(1603,37,o),
(1563,44,o),
(1526,58,cs),
(1453,85,o),
(1381,141,o),
(1250,268,cs),
(735,777,l),
(724,788,l),
(747,809,ls),
(799,854,o),
(829,881,o),
(837,889,c),
(890,936,o),
(969,1014,o),
(1074,1124,cs),
(1208,1268,o),
(1314,1370,o),
(1441,1370,c),
(1446,1369,l),
(1447,1368,o),
(1448,1368,o),
(1451,1368,c),
(1451,1407,l),
(937,1407,l),
(937,1368,l),
(1006,1366,o),
(1062,1357,o),
(1062,1305,cs),
(1062,1189,o),
(841,984,o),
(515,723,c),
(515,1192,ls),
(515,1331,o),
(562,1367,o),
(724,1368,c),
(724,1407,l),
(81,1407,l),
(81,1368,l),
(101,1368,ls),
(151,1367,o),
(189,1361,o),
(216,1350,cs),
(269,1328,o),
(292,1281,o),
(292,1192,cs),
(292,215,ls),
(292,167,o),
(286,131,o),
(274,107,cs),
(250,58,o),
(196,40,o),
(81,37,c),
(81,0,l),
(714,0,l),
(714,37,l),
(704,37,ls),
(655,38,o),
(617,45,o),
(590,56,cs),
(537,79,o),
(515,126,o),
(515,215,cs),
(515,696,l),
(1007,209,l),
(1027,190,ls),
(1057,160,o),
(1072,133,o),
(1072,109,cs),
(1072,66,o),
(1028,37,o),
(960,37,cs),
(949,37,l),
(949,0,l),
(1674,0,l)
);
},
{
closed = 1;
nodes = (
(724,774,o),
(711,766,o),
(714,754,cs),
(716,746,o),
(709,744,o),
(707,744,c),
(707,745,l),
(706,743,o),
(704,742,o),
(701,743,c),
(699,743,o),
(699,744,o),
(699,745,cs),
(697,751,l),
(692,738,l),
(692,737,o),
(692,737,o),
(691,737,c),
(689,738,o),
(689,739,o),
(690,740,c),
(694,752,l),
(692,749,l),
(689,746,l),
(688,746,ls),
(687,746,o),
(686,746,o),
(688,748,c),
(691,756,l),
(690,755,o),
(689,757,o),
(690,758,cs),
(692,760,o),
(694,763,o),
(697,764,cs),
(704,766,o),
(718,781,o),
(724,788,c),
(735,777,l)
);
},
{
closed = 1;
nodes = (
(701,748,l),
(703,746,l),
(705,747,o),
(707,747,o),
(707,746,c),
(707,748,l),
(710,749,o),
(711,752,o),
(710,754,c),
(708,756,o),
(706,757,o),
(705,757,cs),
(703,757,l),
(701,752,l)
);
}
);
width = 1685;
}
);
note = K;
unicode = 75;
}
{
glyphname = L;
layers = (
{
layerId = "500BB636-1048-4D7F-B62E-A2796C57CEF4";
shapes = (
{
closed = 1;
nodes = (
(1209,0,l),
(1328,377,l),
(1291,389,l),
(1289,379,l),
(1236,258,o),
(1209,217,o),
(1146,164,c),
(1151,159,ls),
(1154,156,o),
(1159,154,o),
(1168,154,c),
(1172,153,o),
(1175,152,o),
(1177,151,c),
(1178,150,o),
(1178,149,o),
(1178,148,cs),
(1178,146,ls),
(1178,145,o),
(1180,144,o),
(1180,144,c),
(1181,143,o),
(1181,141,o),
(1180,140,c),
(1178,137,l),
(1176,136,l),
(1172,136,l),
(1184,131,l),
(1185,130,o),
(1185,129,o),
(1185,128,c),
(1184,127,o),
(1184,127,o),
(1184,128,c),
(1183,128,o),
(1183,128,o),
(1182,128,c),
(1176,130,l),
(1170,132,l),
(1174,129,l),
(1176,127,l),
(1176,127,o),
(1176,127,o),
(1177,126,c),
(1177,125,o),
(1176,124,o),
(1175,124,cs),
(1175,124,o),
(1175,124,o),
(1175,125,c),
(1175,125,o),
(1175,125,o),
(1174,125,c),
(1167,130,l),
(1167,129,ls),
(1167,128,o),
(1165,127,o),
(1164,128,c),
(1158,135,l),
(1152,143,l),
(1146,149,o),
(1142,152,o),
(1141,153,c),
(1136,156,l),
(1073,107,o),
(1015,92,o),
(888,92,cs),
(601,92,ls),
(536,92,o),
(515,113,o),
(515,174,cs),
(515,1192,ls),
(515,1237,o),
(521,1272,o),
(533,1297,cs),
(557,1347,o),
(608,1367,o),
(704,1368,cs),
(718,1368,l),
(718,1407,l),
(85,1407,l),
(85,1368,l),
(99,1368,ls),
(151,1367,o),
(191,1362,o),
(219,1351,cs),
(275,1330,o),
(296,1281,o),
(296,1192,cs),
(296,215,ls),
(296,170,o),
(290,134,o),
(278,109,cs),
(253,58,o),
(200,38,o),
(99,37,cs),
(85,37,l),
(85,0,l)
);
},
{
closed = 1;
nodes = (
(1171,149,o),
(1168,149,o),
(1166,147,cs),
(1165,146,o),
(1165,145,o),
(1165,144,c),
(1166,142,l),
(1170,140,l),
(1175,140,l),
(1176,142,l),
(1175,144,o),
(1175,145,o),
(1176,146,c),
(1174,147,l)
);
}
);
width = 1366;
}
);
note = L;
unicode = 76;
}
{
glyphname = M;
layers = (
{
layerId = "500BB636-1048-4D7F-B62E-A2796C57CEF4";
shapes = (
{
closed = 1;
nodes = (
(1835,1361,o),
(1873,1367,o),
(1922,1368,cs),
(1936,1368,l),
(1936,1407,l),
(1510,1407,l),
(1020,338,ls),
(1017,331,o),
(1011,326,o),
(1004,321,c),
(1003,320,o),
(1001,318,o),
(998,313,c),
(992,306,l),
(991,305,o),
(989,306,o),
(989,307,cs),
(989,308,l),
(982,303,l),
(981,302,o),
(979,304,o),
(980,305,c),
(980,305,o),
(980,305,o),
(980,305,c),
(982,307,l),
(986,310,l),
(980,308,l),
(974,306,l),
(973,306,o),
(973,306,o),
(973,306,c),
(972,305,o),
(972,305,o),
(971,306,c),
(971,307,o),
(971,308,o),
(972,309,c),
(984,314,l),
(980,314,l),
(978,315,l),
(976,318,l),
(975,319,o),
(975,321,o),
(976,322,c),
(976,322,o),
(978,323,o),
(978,324,cs),
(978,326,ls),
(978,327,o),
(978,328,o),
(979,329,c),
(981,330,o),
(984,331,o),
(989,332,c),
(993,332,o),
(996,332,o),
(999,333,cs),
(1002,334,o),
(1009,341,o),
(1010,346,c),
(517,1407,l),
(87,1407,l),
(87,1368,l),
(235,1352,o),
(292,1295,o),
(292,1163,cs),
(292,215,ls),
(292,170,o),
(286,135,o),
(274,110,cs),
(250,59,o),
(196,38,o),
(101,37,cs),
(87,37,l),
(87,0,l),
(581,0,l),
(581,37,l),
(572,37,ls),
(523,38,o),
(486,44,o),
(459,55,cs),
(406,77,o),
(384,124,o),
(384,215,cs),
(384,1180,l),
(388,1180,l),
(931,0,l),
(966,0,l),
(1506,1180,l),
(1510,1180,l),
(1510,215,ls),
(1510,167,o),
(1504,131,o),
(1493,107,cs),
(1469,58,o),
(1417,40,o),
(1304,37,c),
(1304,0,l),
(1936,0,l),
(1936,37,l),
(1922,37,ls),
(1873,38,o),
(1835,45,o),
(1808,56,cs),
(1755,78,o),
(1732,126,o),
(1732,215,cs),
(1732,1194,ls),
(1732,1283,o),
(1755,1329,o),
(1808,1350,cs)
);
},
{
closed = 1;
nodes = (
(986,318,l),
(990,320,l),
(991,322,l),
(991,323,o),
(991,324,o),
(990,325,cs),
(988,327,o),
(985,327,o),
(982,325,c),
(980,324,l),
(981,323,o),
(981,322,o),
(980,320,c),
(981,318,l)
);
}
);
width = 2027;
}
);
note = M;
unicode = 77;
}
{
glyphname = N;
layers = (
{
layerId = "500BB636-1048-4D7F-B62E-A2796C57CEF4";
shapes = (
{
closed = 1;
nodes = (
(1654,1407,l),
(1138,1407,l),
(1138,1368,l),
(1191,1368,ls),
(1280,1368,o),
(1315,1350,o),
(1331,1294,c),
(1338,1263,o),
(1342,1218,o),
(1342,1159,cs),
(1342,369,l),
(518,1308,l),
(505,1296,l),
(499,1288,l),
(493,1281,l),
(492,1280,o),
(490,1281,o),
(490,1282,cs),
(490,1283,l),
(483,1278,l),
(482,1277,o),
(480,1279,o),
(481,1280,c),
(481,1280,o),
(481,1280,o),
(481,1280,c),
(483,1282,l),
(487,1285,l),
(481,1283,l),
(475,1281,l),
(474,1281,o),
(474,1281,o),
(474,1281,c),
(473,1280,o),
(473,1280,o),
(472,1281,c),
(472,1282,o),
(472,1283,o),
(473,1284,c),
(485,1289,l),
(481,1289,l),
(479,1290,l),
(477,1293,l),
(476,1294,o),
(476,1296,o),
(477,1297,c),
(477,1297,o),
(479,1298,o),
(479,1299,cs),
(479,1301,ls),
(479,1302,o),
(479,1303,o),
(480,1304,c),
(482,1305,o),
(485,1306,o),
(490,1307,c),
(498,1307,o),
(503,1308,o),
(510,1317,c),
(431,1407,l),
(22,1407,l),
(22,1368,l),
(28,1368,ls),
(160,1368,o),
(235,1325,o),
(308,1206,c),
(308,250,ls),
(307,151,o),
(299,111,o),
(268,79,cs),
(237,47,o),
(198,38,o),
(103,37,cs),
(95,37,l),
(95,0,l),
(603,0,l),
(603,37,l),
(595,37,l),
(554,39,ls),
(513,40,o),
(482,49,o),
(460,65,cs),
(416,96,o),
(398,160,o),
(398,281,cs),
(398,1116,l),
(1406,-16,l),
(1435,-16,l),
(1435,1171,ls),
(1435,1242,o),
(1437,1272,o),
(1445,1300,cs),
(1454,1332,o),
(1465,1345,o),
(1492,1356,c),
(1516,1367,o),
(1537,1368,o),
(1598,1368,cs),
(1654,1368,l)
);
},
{
closed = 1;
nodes = (
(487,1293,l),
(491,1295,l),
(492,1297,l),
(492,1298,o),
(492,1299,o),
(491,1300,cs),
(489,1302,o),
(486,1302,o),
(483,1300,c),
(481,1299,l),
(482,1298,o),
(482,1297,o),
(481,1295,c),
(482,1293,l)
);
}
);
width = 1685;
}
);
note = N;
unicode = 78;
}
{
glyphname = P;
layers = (
{
layerId = "500BB636-1048-4D7F-B62E-A2796C57CEF4";
shapes = (
{
closed = 1;
nodes = (
(854,1392,o),
(760,1407,o),
(650,1407,cs),
(50,1407,l),
(50,1368,l),
(60,1368,ls),
(111,1367,o),
(149,1362,o),
(176,1351,cs),
(229,1330,o),
(251,1281,o),
(251,1192,cs),
(251,215,ls),
(251,169,o),
(245,134,o),
(234,109,cs),
(210,59,o),
(160,40,o),
(60,37,cs),
(50,37,l),
(53,36,o),
(56,36,o),
(61,36,c),
(65,35,o),
(68,34,o),
(70,33,c),
(71,32,o),
(71,31,o),
(71,30,cs),
(71,28,ls),
(71,27,o),
(73,26,o),
(73,26,c),
(74,25,o),
(74,23,o),
(73,22,c),
(71,19,l),
(69,18,l),
(65,18,l),
(77,13,l),
(78,12,o),
(78,11,o),
(78,10,c),
(77,9,o),
(77,9,o),
(77,10,c),
(76,10,o),
(76,10,o),
(75,10,c),
(69,12,l),
(63,14,l),
(67,11,l),
(69,9,l),
(69,9,o),
(69,9,o),
(70,8,c),
(70,7,o),
(69,6,o),
(68,6,cs),
(68,6,o),
(68,6,o),
(68,7,c),
(68,7,o),
(68,7,o),
(67,7,c),
(60,12,l),
(60,11,ls),
(60,10,o),
(58,9,o),
(57,10,c),
(50,19,l),
(50,0,l),
(683,0,l),
(683,37,l),
(625,38,o),
(581,44,o),
(552,55,cs),
(493,76,o),
(472,122,o),
(472,215,cs),
(472,674,l),
(577,643,o),
(668,627,o),
(744,627,cs),
(829,627,o),
(907,644,o),
(976,677,cs),
(1115,744,o),
(1199,869,o),
(1199,1016,cs),
(1199,1066,o),
(1188,1114,o),
(1165,1159,cs),
(1120,1250,o),
(1037,1323,o),
(933,1363,cs)
);
},
{
closed = 1;
nodes = (
(757,715,o),
(705,702,o),
(646,702,cs),
(589,702,o),
(551,711,o),
(472,743,c),
(472,1303,l),
(529,1320,o),
(579,1329,o),
(622,1329,cs),
(684,1329,o),
(740,1316,o),
(789,1289,cs),
(888,1235,o),
(945,1131,o),
(945,1006,cs),
(945,887,o),
(893,793,o),
(802,741,cs)
);
},
{
closed = 1;
nodes = (
(64,31,o),
(61,31,o),
(59,29,cs),
(58,28,o),
(58,27,o),
(58,26,c),
(59,24,l),
(63,22,l),
(68,22,l),
(69,24,l),
(68,26,o),
(68,27,o),
(69,28,c),
(67,29,l)
);
}
);
width = 1236;
}
);
note = P;
unicode = 80;
}
{
glyphname = Q;
layers = (
{
layerId = "500BB636-1048-4D7F-B62E-A2796C57CEF4";
shapes = (
{
closed = 1;
nodes = (
(1079,21,o),
(1172,72,o),
(1253,142,cs),
(1413,282,o),
(1506,486,o),
(1506,707,cs),
(1506,950,o),
(1397,1143,o),
(1252,1268,cs),
(1123,1377,o),
(963,1438,o),
(792,1438,cs),
(605,1438,o),
(419,1358,o),
(287,1223,c),
(291,1219,ls),
(294,1216,o),
(299,1214,o),
(308,1214,c),
(312,1213,o),
(315,1212,o),
(317,1211,c),
(318,1210,o),
(318,1209,o),
(318,1208,cs),
(318,1206,ls),
(318,1205,o),
(320,1204,o),
(320,1204,c),
(321,1203,o),
(321,1201,o),
(320,1200,c),
(318,1197,l),
(316,1196,l),
(312,1196,l),
(324,1191,l),
(325,1190,o),
(325,1189,o),
(325,1188,c),
(324,1187,o),
(324,1187,o),
(324,1188,c),
(323,1188,o),
(323,1188,o),
(322,1188,c),
(316,1190,l),
(310,1192,l),
(314,1189,l),
(316,1187,l),
(316,1187,o),
(316,1187,o),
(317,1186,c),
(317,1185,o),
(316,1184,o),
(315,1184,cs),
(315,1184,o),
(315,1184,o),
(315,1185,c),
(315,1185,o),
(315,1185,o),
(314,1185,c),
(307,1190,l),
(307,1189,ls),
(307,1188,o),
(305,1187,o),
(304,1188,c),
(298,1195,l),
(292,1203,l),
(286,1209,o),
(282,1212,o),
(281,1213,c),
(279,1214,l),
(152,1079,o),
(77,893,o),
(77,702,cs),
(77,597,o),
(98,498,o),
(141,403,cs),
(226,213,o),
(386,65,o),
(587,0,c),
(806,-367,o),
(1180,-437,o),
(1570,-334,c),
(1570,-298,l),
(1146,-401,o),
(974,-209,o),
(974,-10,c)
);
},
{
closed = 1;
nodes = (
(350,459,o),
(331,574,o),
(331,707,cs),
(331,840,o),
(350,955,o),
(387,1054,cs),
(461,1250,o),
(603,1358,o),
(790,1358,cs),
(883,1358,o),
(965,1332,o),
(1035,1279,cs),
(1174,1173,o),
(1252,968,o),
(1252,709,cs),
(1252,700,ls),
(1252,570,o),
(1233,456,o),
(1196,357,cs),
(1121,160,o),
(978,49,o),
(794,49,cs),
(607,49,o),
(464,161,o),
(388,360,cs)
);
},
{
closed = 1;
nodes = (
(311,1209,o),
(308,1209,o),
(306,1207,cs),
(305,1206,o),
(305,1205,o),
(305,1204,c),
(306,1202,l),
(310,1200,l),
(315,1200,l),
(316,1202,l),
(315,1204,o),
(315,1205,o),
(316,1206,c),
(314,1207,l)
);
}
);
width = 1579;
}
);
note = Q;
unicode = 81;
}
{
glyphname = R;
layers = (
{
layerId = "500BB636-1048-4D7F-B62E-A2796C57CEF4";
shapes = (
{
closed = 1;
nodes = (
(863,671,l),
(861,670,l),
(860,669,o),
(856,666,o),
(850,660,c),
(844,652,l),
(838,645,l),
(837,644,o),
(835,645,o),
(835,646,cs),
(835,647,l),
(828,642,l),
(827,641,o),
(825,643,o),
(826,644,c),
(826,644,o),
(826,644,o),
(826,644,c),
(828,646,l),
(832,649,l),
(826,647,l),
(820,645,l),
(819,645,o),
(819,645,o),
(819,645,c),
(818,644,o),
(818,644,o),
(817,645,c),
(817,646,o),
(817,647,o),
(818,648,c),
(830,653,l),
(826,653,l),
(824,654,l),
(822,657,l),
(821,658,o),
(821,660,o),
(822,661,c),
(822,661,o),
(824,662,o),
(824,663,cs),
(824,665,ls),
(824,666,o),
(824,667,o),
(825,668,c),
(827,669,o),
(830,670,o),
(835,671,c),
(843,671,o),
(848,673,o),
(851,676,cs),
(855,680,l),
(918,696,o),
(970,714,o),
(1009,735,c),
(1136,796,o),
(1211,911,o),
(1211,1040,cs),
(1211,1089,o),
(1200,1138,o),
(1177,1185,cs),
(1131,1280,o),
(1045,1351,o),
(945,1378,c),
(858,1397,o),
(781,1407,o),
(714,1407,cs),
(69,1407,l),
(69,1368,l),
(114,1368,l),
(218,1364,o),
(263,1311,o),
(263,1192,cs),
(263,215,ls),
(263,169,o),
(257,134,o),
(246,110,cs),
(223,61,o),
(170,38,o),
(73,37,cs),
(69,37,l),
(69,0,l),
(683,0,l),
(683,37,l),
(675,37,ls),
(625,38,o),
(587,45,o),
(560,56,cs),
(507,79,o),
(486,127,o),
(486,215,cs),
(486,659,l),
(620,659,l),
(1150,0,l),
(1517,0,l),
(1517,37,l),
(1404,49,o),
(1316,107,o),
(1205,246,cs),
(1173,287,l)
);
},
{
closed = 1;
nodes = (
(486,1321,l),
(583,1333,o),
(599,1335,o),
(644,1335,cs),
(701,1335,o),
(754,1322,o),
(803,1295,cs),
(900,1242,o),
(960,1145,o),
(960,1034,cs),
(960,834,o),
(804,729,o),
(511,729,cs),
(486,729,l)
);
},
{
closed = 1;
nodes = (
(832,657,l),
(836,659,l),
(837,661,l),
(837,662,o),
(837,663,o),
(836,664,cs),
(834,666,o),
(831,666,o),
(828,664,c),
(826,663,l),
(827,662,o),
(827,661,o),
(826,659,c),
(827,657,l)
);
}
);
width = 1579;
}
);
note = R;
unicode = 82;
}
{
glyphname = S;
layers = (
{
layerId = "500BB636-1048-4D7F-B62E-A2796C57CEF4";
shapes = (
{
closed = 1;
nodes = (
(801,726,o),
(708,785,o),
(572,864,cs),
(496,909,o),
(446,940,o),
(423,958,c),
(340,1015,o),
(298,1079,o),
(298,1149,cs),
(298,1187,o),
(309,1222,o),
(331,1254,cs),
(375,1317,o),
(453,1356,o),
(544,1356,cs),
(605,1356,o),
(662,1339,o),
(717,1306,cs),
(825,1238,o),
(903,1114,o),
(919,971,c),
(955,971,l),
(955,1436,l),
(919,1436,l),
(902,1387,o),
(874,1362,o),
(837,1362,cs),
(819,1362,o),
(796,1367,o),
(769,1378,cs),
(640,1429,o),
(598,1438,o),
(517,1438,cs),
(443,1438,o),
(376,1422,o),
(315,1391,cs),
(194,1327,o),
(118,1208,o),
(118,1073,cs),
(118,981,o),
(152,902,o),
(204,841,cs),
(252,785,o),
(327,733,o),
(488,641,cs),
(577,590,o),
(647,546,o),
(698,507,cs),
(798,429,o),
(839,359,o),
(839,272,cs),
(839,229,o),
(828,190,o),
(805,157,cs),
(760,90,o),
(673,51,o),
(564,51,cs),
(425,51,o),
(294,131,o),
(226,258,cs),
(191,321,o),
(183,345,o),
(163,442,c),
(124,442,l),
(124,-33,l),
(163,-33,l),
(178,10,o),
(201,35,o),
(230,41,c),
(227,42,o),
(224,42,o),
(220,43,c),
(216,43,o),
(213,44,o),
(211,45,c),
(210,46,o),
(210,47,o),
(210,48,cs),
(210,50,ls),
(210,51,o),
(208,52,o),
(208,52,c),
(207,53,o),
(207,55,o),
(208,56,c),
(210,59,l),
(212,60,l),
(216,60,l),
(204,65,l),
(203,66,o),
(203,67,o),
(203,68,c),
(204,69,o),
(204,69,o),
(205,69,c),
(205,68,o),
(205,68,o),
(206,68,c),
(212,66,l),
(218,64,l),
(214,67,l),
(212,69,l),
(212,69,o),
(212,70,o),
(212,71,c),
(211,72,o),
(212,72,o),
(213,72,c),
(213,72,o),
(213,72,o),
(214,72,c),
(214,72,o),
(214,72,o),
(214,71,c),
(221,66,l),
(221,67,ls),
(221,68,o),
(223,69,o),
(224,68,c),
(230,61,l),
(236,53,l),
(242,47,o),
(246,44,o),
(247,43,c),
(264,43,o),
(285,39,o),
(310,31,cs),
(372,11,o),
(416,-3,o),
(443,-10,c),
(500,-27,o),
(533,-31,o),
(597,-31,cs),
(679,-31,o),
(754,-14,o),
(822,20,cs),
(957,88,o),
(1039,212,o),
(1039,356,cs),
(1039,489,o),
(971,595,o),
(850,688,cs)
);
},
{
closed = 1;
nodes = (
(217,47,o),
(220,47,o),
(222,49,cs),
(223,50,o),
(223,51,o),
(223,52,c),
(222,54,l),
(218,56,l),
(213,56,l),
(212,54,l),
(213,52,o),
(213,51,o),
(212,50,c),
(214,49,l)
);
}
);
width = 1130;
}
);
note = S;
unicode = 83;
}
{
glyphname = T;
layers = (
{
layerId = "500BB636-1048-4D7F-B62E-A2796C57CEF4";
shapes = (
{
closed = 1;
nodes = (
(1299,1407,l),
(62,1407,l),
(46,1087,l),
(83,1087,l),
(86,1126,o),
(95,1160,o),
(110,1190,cs),
(126,1225,o),
(144,1251,o),
(165,1269,cs),
(205,1304,o),
(269,1317,o),
(386,1317,cs),
(568,1317,l),
(568,215,ls),
(568,170,o),
(562,135,o),
(550,110,cs),
(526,59,o),
(473,38,o),
(378,37,cs),
(366,37,l),
(366,0,l),
(996,0,l),
(996,37,l),
(982,37,ls),
(933,38,o),
(895,45,o),
(868,56,cs),
(815,78,o),
(792,126,o),
(792,215,cs),
(792,1317,l),
(982,1317,ls),
(1090,1317,o),
(1126,1310,o),
(1179,1278,c),
(1180,1279,o),
(1184,1282,o),
(1190,1288,c),
(1196,1296,l),
(1202,1303,l),
(1203,1304,o),
(1205,1303,o),
(1205,1302,cs),
(1205,1301,l),
(1212,1306,l),
(1213,1307,o),
(1215,1305,o),
(1215,1305,c),
(1214,1304,o),
(1214,1304,o),
(1214,1304,c),
(1212,1302,l),
(1208,1299,l),
(1214,1301,l),
(1220,1303,l),
(1221,1303,o),
(1221,1303,o),
(1222,1304,c),
(1222,1304,o),
(1222,1304,o),
(1223,1303,c),
(1223,1302,o),
(1223,1301,o),
(1222,1300,c),
(1210,1295,l),
(1214,1295,l),
(1216,1294,l),
(1218,1291,l),
(1219,1290,o),
(1219,1288,o),
(1218,1287,c),
(1218,1287,o),
(1216,1286,o),
(1216,1285,cs),
(1216,1283,ls),
(1216,1282,o),
(1216,1281,o),
(1215,1280,c),
(1213,1279,o),
(1210,1278,o),
(1206,1278,c),
(1197,1277,o),
(1192,1275,o),
(1189,1272,c),
(1239,1238,o),
(1269,1176,o),
(1279,1087,c),
(1320,1087,l)
);
},
{
closed = 1;
nodes = (
(1208,1291,l),
(1204,1289,l),
(1203,1287,l),
(1203,1286,o),
(1203,1285,o),
(1204,1284,cs),
(1206,1282,o),
(1209,1282,o),
(1212,1284,c),
(1214,1285,l),
(1213,1286,o),
(1213,1287,o),
(1214,1289,c),
(1213,1291,l)
);
}
);
width = 1366;
}
);
note = T;
unicode = 84;
}
{
glyphname = V;
layers = (
{
layerId = "500BB636-1048-4D7F-B62E-A2796C57CEF4";
shapes = (
{
closed = 1;
nodes = (
(1023,1407,l),
(1023,1368,l),
(1118,1366,o),
(1166,1333,o),
(1166,1268,cs),
(1166,1243,o),
(1163,1223,o),
(1156,1210,c),
(836,358,l),
(842,349,o),
(846,344,o),
(848,343,c),
(851,342,o),
(854,342,o),
(859,342,c),
(863,341,o),
(866,340,o),
(868,339,c),
(869,338,o),
(869,337,o),
(869,336,cs),
(869,334,ls),
(869,333,o),
(871,332,o),
(871,332,c),
(872,331,o),
(872,329,o),
(871,328,c),
(869,325,l),
(867,324,l),
(863,324,l),
(875,319,l),
(876,318,o),
(876,317,o),
(876,316,c),
(875,315,o),
(875,315,o),
(875,316,c),
(874,316,o),
(874,316,o),
(873,316,c),
(867,318,l),
(861,320,l),
(865,317,l),
(867,315,l),
(867,315,o),
(867,315,o),
(868,314,c),
(868,313,o),
(867,312,o),
(866,312,cs),
(866,312,o),
(866,312,o),
(866,313,c),
(866,313,o),
(866,313,o),
(865,313,c),
(858,318,l),
(858,317,ls),
(858,316,o),
(856,315,o),
(855,316,c),
(849,323,l),
(843,331,l),
(842,332,o),
(839,334,o),
(836,337,cs),
(833,340,o),
(830,343,o),
(828,348,cs),
(515,1124,ls),
(484,1201,o),
(468,1252,o),
(468,1278,cs),
(468,1301,o),
(473,1320,o),
(482,1333,cs),
(501,1359,o),
(543,1368,o),
(622,1368,c),
(622,1407,l),
(26,1407,l),
(26,1368,l),
(70,1365,o),
(105,1358,o),
(132,1345,cs),
(184,1319,o),
(223,1260,o),
(267,1151,cs),
(280,1120,l),
(747,-33,l),
(783,-33,l),
(1193,1049,ls),
(1236,1165,o),
(1276,1246,o),
(1315,1292,cs),
(1354,1340,o),
(1398,1365,o),
(1449,1368,c),
(1449,1407,l)
);
},
{
closed = 1;
nodes = (
(862,337,o),
(859,337,o),
(857,335,cs),
(856,334,o),
(856,333,o),
(856,332,c),
(857,330,l),
(861,328,l),
(866,328,l),
(867,330,l),
(866,332,o),
(866,333,o),
(867,334,c),
(865,335,l)
);
}
);
width = 1472;
}
);
note = V;
unicode = 86;
}
{
glyphname = W;
layers = (
{
layerId = "500BB636-1048-4D7F-B62E-A2796C57CEF4";
shapes = (
{
closed = 1;
nodes = (
(1050,883,l),
(1046,881,l),
(1045,879,l),
(1045,878,o),
(1045,877,o),
(1046,876,cs),
(1048,874,o),
(1051,874,o),
(1054,876,c),
(1056,877,l),
(1055,878,o),
(1055,879,o),
(1056,881,c),
(1055,883,l)
);
},
{
closed = 1;
nodes = (
(1605,1368,l),
(1686,1368,o),
(1754,1349,o),
(1754,1272,cs),
(1754,1250,o),
(1749,1227,o),
(1740,1202,cs),
(1445,371,l),
(1158,1120,ls),
(1135,1181,o),
(1123,1228,o),
(1123,1262,cs),
(1123,1331,o),
(1163,1361,o),
(1263,1368,c),
(1263,1407,l),
(15,1407,l),
(15,1368,l),
(98,1365,o),
(132,1351,o),
(160,1307,cs),
(188,1260,o),
(215,1181,o),
(658,-29,c),
(693,-29,l),
(1019,864,l),
(1021,868,o),
(1025,873,o),
(1032,880,c),
(1038,888,l),
(1044,895,l),
(1045,896,o),
(1047,895,o),
(1047,894,cs),
(1047,893,l),
(1054,898,l),
(1055,899,o),
(1057,897,o),
(1057,897,c),
(1056,896,l),
(1054,894,l),
(1050,891,l),
(1062,895,l),
(1063,895,o),
(1063,895,o),
(1064,896,c),
(1065,895,l),
(1065,894,o),
(1065,893,o),
(1064,892,c),
(1052,887,l),
(1056,887,l),
(1058,886,l),
(1060,883,l),
(1061,882,o),
(1061,880,o),
(1060,879,c),
(1060,879,o),
(1058,878,o),
(1058,877,cs),
(1058,875,ls),
(1058,874,o),
(1058,873,o),
(1057,872,c),
(1055,871,o),
(1052,870,o),
(1048,870,c),
(1043,869,o),
(1040,869,o),
(1037,868,c),
(1036,868,o),
(1035,868,o),
(1033,867,c),
(1030,866,o),
(1028,863,o),
(1025,859,c),
(1363,-29,l),
(1402,-29,l),
(1805,1112,ls),
(1840,1210,o),
(1872,1277,o),
(1901,1313,cs),
(1930,1348,o),
(1967,1367,o),
(2012,1368,c),
(2012,1407,l),
(1605,1407,l)
);
},
{
closed = 1;
nodes = (
(583,815,o),
(504,1036,o),
(465,1150,cs),
(400,1342,o),
(446,1369,o),
(670,1369,cs),
(800,1369,o),
(830,1347,o),
(880,1232,cs),
(901,1181,o),
(930,1108,o),
(972,997,c),
(744,371,l)
);
}
);
width = 2027;
}
);
note = W;
unicode = 87;
}
{
glyphname = X;
layers = (
{
layerId = "500BB636-1048-4D7F-B62E-A2796C57CEF4";
shapes = (
{
closed = 1;
nodes = (
(1551,0,l),
(1551,37,l),
(1537,37,ls),
(1481,37,o),
(1432,58,o),
(1389,101,cs),
(1371,118,o),
(1352,139,o),
(1332,164,cs),
(1311,189,o),
(1275,237,o),
(1224,309,cs),
(1214,324,o),
(1205,336,o),
(1197,344,c),
(882,784,l),
(1109,1061,l),
(1240,1217,ls),
(1275,1258,o),
(1305,1289,o),
(1330,1310,cs),
(1380,1353,o),
(1423,1368,o),
(1490,1368,cs),
(1502,1368,l),
(1502,1407,l),
(1017,1407,l),
(1017,1368,l),
(1117,1368,o),
(1156,1345,o),
(1156,1288,cs),
(1156,1266,o),
(1143,1238,o),
(1117,1204,c),
(830,858,l),
(827,854,o),
(821,850,o),
(817,847,c),
(811,839,l),
(805,832,l),
(804,831,o),
(802,832,o),
(802,833,cs),
(802,834,l),
(795,829,l),
(794,828,o),
(792,830,o),
(793,831,c),
(793,831,o),
(793,831,o),
(793,831,c),
(795,833,l),
(799,836,l),
(793,834,l),
(787,832,l),
(786,832,o),
(786,832,o),
(786,832,c),
(785,831,o),
(785,831,o),
(784,832,c),
(784,833,o),
(784,834,o),
(785,835,c),
(797,840,l),
(793,840,l),
(791,841,l),
(789,844,l),
(788,845,o),
(788,847,o),
(789,848,c),
(789,848,o),
(791,849,o),
(791,850,cs),
(791,852,ls),
(791,853,o),
(791,854,o),
(792,855,c),
(794,856,o),
(797,857,o),
(802,858,c),
(810,858,o),
(815,860,o),
(818,863,cs),
(823,868,l),
(591,1188,ls),
(560,1231,o),
(544,1265,o),
(544,1288,cs),
(544,1339,o),
(592,1370,o),
(673,1370,c),
(677,1369,l),
(678,1368,o),
(681,1368,o),
(685,1368,c),
(685,1407,l),
(28,1407,l),
(28,1368,l),
(103,1365,o),
(126,1360,o),
(165,1337,cs),
(225,1304,o),
(268,1258,o),
(361,1126,cs),
(685,682,l),
(316,242,ls),
(249,160,o),
(189,103,o),
(136,70,cs),
(103,48,o),
(67,37,o),
(28,37,c),
(28,0,l),
(488,0,l),
(488,37,l),
(478,37,ls),
(390,40,o),
(353,62,o),
(353,115,cs),
(353,142,o),
(363,162,o),
(400,207,cs),
(734,610,l),
(988,258,l),
(1011,227,ls),
(1046,178,o),
(1064,140,o),
(1064,113,cs),
(1064,65,o),
(1019,37,o),
(939,37,cs),
(929,37,l),
(929,0,l)
);
},
{
closed = 1;
nodes = (
(799,844,l),
(803,846,l),
(804,848,l),
(804,849,o),
(804,850,o),
(803,851,cs),
(801,853,o),
(798,853,o),
(795,851,c),
(793,850,l),
(794,849,o),
(794,848,o),
(793,846,c),
(794,844,l)
);
}
);
width = 1579;
}
);
note = X;
unicode = 88;
}
{
glyphname = Y;
layers = (
{
layerId = "500BB636-1048-4D7F-B62E-A2796C57CEF4";
shapes = (
{
closed = 1;
nodes = (
(1549,1407,l),
(1074,1407,l),
(1074,1368,l),
(1086,1368,ls),
(1129,1368,o),
(1163,1363,o),
(1188,1353,cs),
(1212,1343,o),
(1224,1329,o),
(1224,1311,cs),
(1224,1294,o),
(1218,1274,o),
(1205,1249,cs),
(1188,1217,o),
(1162,1173,o),
(1127,1118,cs),
(866,709,l),
(871,703,l),
(874,700,o),
(879,698,o),
(888,698,c),
(892,697,o),
(895,696,o),
(897,695,c),
(898,694,o),
(898,693,o),
(898,692,cs),
(898,690,ls),
(898,689,o),
(900,688,o),
(900,688,c),
(901,687,o),
(901,685,o),
(900,684,c),
(898,681,l),
(896,680,l),
(892,680,l),
(904,675,l),
(905,674,o),
(905,673,o),
(905,672,c),
(904,671,o),
(904,671,o),
(904,672,c),
(903,672,o),
(903,672,o),
(902,672,c),
(896,674,l),
(890,676,l),
(894,673,l),
(896,671,l),
(896,671,o),
(896,671,o),
(897,670,c),
(897,669,o),
(896,668,o),
(895,668,cs),
(895,668,o),
(895,668,o),
(895,669,c),
(895,669,o),
(895,669,o),
(894,669,c),
(887,674,l),
(887,673,ls),
(887,672,o),
(885,671,o),
(884,672,c),
(878,679,l),
(872,687,l),
(871,688,o),
(869,690,o),
(866,692,c),
(863,693,o),
(860,695,o),
(859,698,c),
(550,1163,ls),
(505,1232,o),
(482,1282,o),
(482,1313,cs),
(482,1351,o),
(529,1370,o),
(622,1370,c),
(644,1368,l),
(644,1407,l),
(22,1407,l),
(22,1368,l),
(28,1368,ls),
(64,1368,o),
(93,1365,o),
(115,1358,cs),
(159,1344,o),
(191,1311,o),
(243,1235,cs),
(292,1161,l),
(677,590,l),
(677,215,ls),
(677,166,o),
(671,130,o),
(658,105,cs),
(633,56,o),
(579,37,o),
(460,37,c),
(460,0,l),
(1113,0,l),
(1113,37,l),
(1054,37,o),
(1010,42,o),
(979,53,cs),
(918,74,o),
(896,119,o),
(896,215,cs),
(896,604,l),
(1237,1133,ls),
(1275,1191,o),
(1306,1235,o),
(1331,1264,cs),
(1379,1322,o),
(1446,1370,o),
(1537,1370,c),
(1549,1368,l)
);
},
{
closed = 1;
nodes = (
(891,693,o),
(888,693,o),
(886,691,cs),
(885,690,o),
(885,689,o),
(885,688,c),
(886,686,l),
(890,684,l),
(895,684,l),
(896,686,l),
(895,688,o),
(895,689,o),
(896,690,c),
(894,691,l)
);
}
);
width = 1579;
}
);
note = Y;
unicode = 89;
}
{
glyphname = Z;
layers = (
{
layerId = "500BB636-1048-4D7F-B62E-A2796C57CEF4";
shapes = (
{
closed = 1;
nodes = (
(1252,0,l),
(1324,375,l),
(1289,375,l),
(1262,278,o),
(1232,208,o),
(1197,166,cs),
(1150,107,o),
(1090,88,o),
(943,88,cs),
(349,88,l),
(345,92,ls),
(342,95,o),
(337,97,o),
(329,98,c),
(324,98,o),
(321,99,o),
(319,100,c),
(318,101,o),
(318,102,o),
(318,103,cs),
(318,105,ls),
(318,106,o),
(316,107,o),
(316,107,c),
(315,108,o),
(315,110,o),
(316,111,c),
(318,114,l),
(320,115,l),
(324,115,l),
(312,120,l),
(311,121,o),
(311,122,o),
(311,123,c),
(312,124,o),
(312,124,o),
(313,124,c),
(313,123,o),
(313,123,o),
(314,123,c),
(320,121,l),
(326,119,l),
(322,122,l),
(320,124,l),
(320,124,o),
(320,125,o),
(320,126,c),
(319,127,o),
(320,127,o),
(321,127,c),
(321,127,o),
(321,127,o),
(322,127,c),
(322,127,o),
(322,127,o),
(322,126,c),
(329,121,l),
(329,122,ls),
(329,123,o),
(331,124,o),
(332,123,c),
(338,116,l),
(344,108,l),
(351,101,o),
(355,98,o),
(357,98,c),
(1306,1407,l),
(194,1407,l),
(165,1059,l),
(202,1059,l),
(204,1075,ls),
(213,1151,o),
(229,1205,o),
(251,1237,cs),
(266,1260,o),
(283,1278,o),
(303,1290,cs),
(343,1314,o),
(398,1323,o),
(513,1323,cs),
(974,1323,l),
(42,37,l),
(42,0,l)
);
},
{
closed = 1;
nodes = (
(325,102,o),
(328,102,o),
(330,104,cs),
(331,105,o),
(331,106,o),
(331,107,c),
(330,109,l),
(326,111,l),
(321,111,l),
(320,109,l),
(321,107,o),
(321,106,o),
(320,105,c),
(322,104,l)
);
}
);
width = 1366;
}
);
note = Z;
unicode = 90;
}
{
glyphname = bracketleft;
layers = (
{
layerId = "500BB636-1048-4D7F-B62E-A2796C57CEF4";
shapes = (
{
closed = 1;
nodes = (
(525,-408,l),
(525,-317,l),
(282,-317,l),
(282,1354,l),
(525,1354,l),
(525,1442,l),
(120,1442,l),
(120,-408,l)
);
}
);
width = 555;
}
);
note = bracketleft;
unicode = 91;
}
{
glyphname = backslash;
layers = (
{
layerId = "500BB636-1048-4D7F-B62E-A2796C57CEF4";
shapes = (
{
closed = 1;
nodes = (
(494,-29,l),
(573,-29,l),
(82,1423,l),
(4,1423,l)
);
}
);
width = 575;
}
);
note = backslash;
unicode = 92;
}
{
glyphname = bracketright;
layers = (
{
layerId = "500BB636-1048-4D7F-B62E-A2796C57CEF4";
shapes = (
{
closed = 1;
nodes = (
(28,-408,l),
(433,-408,l),
(433,1442,l),
(28,1442,l),
(28,1352,l),
(271,1352,l),
(271,-319,l),
(28,-319,l)
);
}
);
width = 555;
}
);
note = bracketright;
unicode = 93;
}
{
glyphname = asciicircum;
layers = (
{
layerId = "500BB636-1048-4D7F-B62E-A2796C57CEF4";
shapes = (
{
closed = 1;
nodes = (
(130,668,l),
(480,1253,l),
(830,668,l),
(923,668,l),
(497,1384,l),
(466,1384,l),
(36,668,l)
);
}
);
width = 960;
}
);
note = asciicircum;
unicode = 94;
}
{
glyphname = underscore;
layers = (
{
layerId = "500BB636-1048-4D7F-B62E-A2796C57CEF4";
shapes = (
{
closed = 1;
nodes = (
(-16,-442,l),
(1040,-442,l),
(1040,-358,l),
(-16,-358,l)
);
}
);
width = 1024;
}
);
note = underscore;
unicode = 95;
}
{
glyphname = grave;
layers = (
{
layerId = "500BB636-1048-4D7F-B62E-A2796C57CEF4";
shapes = (
{
closed = 1;
nodes = (
(413,1073,l),
(445,1073,l),
(341,1419,l),
(118,1419,l)
);
}
);
width = 681;
}
);
note = grave;
unicode = 96;
}
{
glyphname = a;
layers = (
{
layerId = "500BB636-1048-4D7F-B62E-A2796C57CEF4";
shapes = (
{
closed = 1;
nodes = (
(898,81,o),
(857,81,cs),
(819,81,o),
(784,116,o),
(784,190,cs),
(784,668,ls),
(784,865,o),
(688,973,o),
(493,973,cs),
(414,973,o),
(330,949,o),
(261,912,cs),
(176,867,o),
(113,802,o),
(110,737,cs),
(106,672,o),
(151,639,o),
(196,639,cs),
(241,639,o),
(286,670,o),
(290,731,cs),
(292,768,o),
(272,790,o),
(272,813,cs),
(272,866,o),
(366,912,o),
(437,912,cs),
(525,912,o),
(605,859,o),
(605,780,cs),
(605,662,o),
(481,615,o),
(334,539,cs),
(176,458,o),
(68,361,o),
(68,217,cs),
(68,75,o),
(174,-27,o),
(311,-27,cs),
(440,-27,o),
(541,41,o),
(613,176,c),
(621,199,l),
(625,206,l),
(625,207,o),
(628,207,o),
(628,206,c),
(634,211,l),
(636,213,o),
(637,211,o),
(637,211,c),
(637,210,l),
(635,207,l),
(632,204,l),
(643,211,l),
(646,211,l),
(645,209,l),
(634,201,l),
(640,201,l),
(644,199,l),
(645,198,o),
(644,196,o),
(644,196,cs),
(644,196,o),
(643,194,o),
(642,193,c),
(643,193,l),
(644,192,o),
(643,188,o),
(643,188,c),
(642,186,o),
(639,184,o),
(635,184,cs),
(623,184,o),
(619,178,o),
(619,167,c),
(627,33,o),
(704,-11,o),
(784,-11,cs),
(873,-11,o),
(967,47,o),
(975,194,c),
(942,194,l),
(932,120,o)
);
},
{
closed = 1;
nodes = (
(618,325,o),
(597,247,o),
(554,191,cs),
(511,134,o),
(449,106,o),
(388,106,cs),
(292,106,o),
(240,171,o),
(240,248,cs),
(240,309,o),
(273,378,o),
(343,426,cs),
(410,472,o),
(469,501,o),
(618,588,c),
(618,424,ls)
);
},
{
closed = 1;
nodes = (
(634,196,l),
(630,193,l),
(630,191,ls),
(630,190,o),
(630,189,o),
(632,188,c),
(635,187,o),
(638,188,o),
(640,191,c),
(641,192,l),
(640,192,o),
(640,194,o),
(640,196,c),
(638,197,l)
);
}
);
width = 993;
}
);
note = a;
unicode = 97;
}
{
glyphname = b;
layers = (
{
layerId = "500BB636-1048-4D7F-B62E-A2796C57CEF4";
shapes = (
{
closed = 1;
nodes = (
(562,973,o),
(504,964,o),
(437,905,c),
(340,784,l),
(335,776,o),
(335,769,o),
(332,762,cs),
(331,759,o),
(330,756,o),
(328,754,cs),
(327,753,o),
(325,753,o),
(325,754,c),
(319,749,l),
(317,747,o),
(316,748,o),
(316,749,cs),
(316,750,l),
(318,753,l),
(321,756,l),
(310,749,l),
(309,748,o),
(308,748,o),
(307,749,c),
(307,750,o),
(307,750,o),
(308,751,c),
(319,759,l),
(313,759,ls),
(312,759,o),
(311,759,o),
(310,760,c),
(309,763,o),
(309,765,o),
(311,767,c),
(310,767,l),
(309,768,o),
(309,776,o),
(318,776,cs),
(330,776,o),
(336,784,o),
(336,795,cs),
(336,1468,l),
(301,1468,l),
(14,1350,l),
(26,1315,l),
(41,1320,o),
(56,1323,o),
(71,1323,cs),
(95,1323,o),
(114,1318,o),
(128,1309,c),
(156,1289,o),
(170,1246,o),
(170,1171,cs),
(170,268,ls),
(170,228,o),
(139,176,o),
(110,138,c),
(264,38,o),
(393,-28,o),
(531,-28,cs),
(805,-28,o),
(1028,222,o),
(1028,510,cs),
(1028,752,o),
(869,973,o),
(643,973,cs)
);
},
{
closed = 1;
nodes = (
(479,39,o),
(404,76,o),
(336,150,c),
(336,723,l),
(417,800,o),
(472,827,o),
(555,827,cs),
(740,827,o),
(854,646,o),
(854,438,cs),
(854,238,o),
(739,39,o),
(561,39,cs)
);
},
{
closed = 1;
nodes = (
(323,766,l),
(323,768,ls),
(323,769,o),
(321,771,o),
(319,772,c),
(316,772,o),
(314,771,o),
(313,768,c),
(312,767,l),
(313,767,o),
(313,765,o),
(313,763,c),
(315,762,l),
(319,763,l)
);
}
);
width = 1100;
}
);
note = b;
unicode = 98;
}
{
glyphname = c;
layers = (
{
layerId = "500BB636-1048-4D7F-B62E-A2796C57CEF4";
shapes = (
{
closed = 1;
nodes = (
(968,338,ls),
(967,335,o),
(966,332,o),
(964,330,cs),
(963,329,o),
(961,329,o),
(961,330,c),
(955,325,l),
(953,323,o),
(952,324,o),
(952,325,cs),
(952,326,l),
(954,329,l),
(957,332,l),
(946,325,l),
(945,324,o),
(944,324,o),
(943,325,c),
(943,326,o),
(943,326,o),
(944,327,c),
(955,335,l),
(949,335,ls),
(948,335,o),
(947,335,o),
(946,336,c),
(945,339,o),
(945,341,o),
(947,343,c),
(946,343,l),
(945,344,o),
(945,352,o),
(954,352,cs),
(964,352,o),
(965,359,o),
(970,370,c),
(962,376,l),
(835,187,o),
(721,115,o),
(582,115,cs),
(350,115,o),
(212,311,o),
(212,547,cs),
(212,738,o),
(280,909,o),
(480,909,cs),
(569,909,o),
(633,884,o),
(633,819,cs),
(633,804,o),
(628,787,o),
(630,764,cs),
(637,694,o),
(685,662,o),
(733,662,cs),
(791,662,o),
(831,701,o),
(831,768,cs),
(831,895,o),
(656,973,o),
(515,973,cs),
(240,973,o),
(48,777,o),
(48,463,cs),
(48,184,o),
(214,-29,o),
(478,-29,cs),
(671,-29,o),
(841,87,o),
(984,359,c),
(977,364,l)
);
},
{
closed = 1;
nodes = (
(959,342,l),
(959,344,ls),
(959,345,o),
(957,347,o),
(955,348,c),
(952,348,o),
(950,347,o),
(949,344,c),
(948,343,l),
(949,343,o),
(949,341,o),
(949,339,c),
(951,338,l),
(955,339,l)
);
}
);
width = 995;
}
);
note = c;
unicode = 99;
}
{
glyphname = d;
layers = (
{
layerId = "500BB636-1048-4D7F-B62E-A2796C57CEF4";
shapes = (
{
closed = 1;
nodes = (
(1093,94,l),
(1080,127,l),
(1054,118,o),
(1033,113,o),
(1017,113,cs),
(983,113,o),
(960,125,o),
(949,149,cs),
(937,173,o),
(931,218,o),
(931,285,cs),
(931,1468,l),
(896,1468,l),
(601,1343,l),
(617,1309,l),
(643,1318,o),
(663,1323,o),
(677,1323,cs),
(736,1323,o),
(765,1279,o),
(765,1192,cs),
(765,916,l),
(769,912,ls),
(772,909,o),
(777,907,o),
(786,907,c),
(790,906,o),
(793,905,o),
(795,904,c),
(796,903,o),
(796,902,o),
(796,901,cs),
(796,899,ls),
(796,898,o),
(798,897,o),
(798,897,c),
(799,896,o),
(799,894,o),
(798,893,c),
(796,890,l),
(794,889,l),
(790,889,l),
(802,884,l),
(803,883,o),
(803,882,o),
(803,881,c),
(802,880,o),
(802,880,o),
(802,881,c),
(801,881,o),
(801,881,o),
(800,881,c),
(794,883,l),
(788,885,l),
(792,882,l),
(794,880,l),
(794,880,o),
(794,880,o),
(795,879,c),
(795,878,o),
(794,877,o),
(793,877,cs),
(793,877,o),
(793,877,o),
(793,878,c),
(793,878,o),
(793,878,o),
(792,878,c),
(785,883,l),
(785,882,ls),
(785,881,o),
(783,880,o),
(782,881,c),
(776,888,l),
(773,893,o),
(770,898,o),
(765,901,c),
(694,949,o),
(622,973,o),
(548,973,cs),
(463,973,o),
(383,949,o),
(309,901,cs),
(161,804,o),
(67,625,o),
(67,440,cs),
(67,357,o),
(86,279,o),
(123,207,cs),
(198,63,o),
(333,-27,o),
(478,-27,cs),
(579,-27,o),
(675,19,o),
(765,111,c),
(765,-25,l)
);
},
{
closed = 1;
nodes = (
(514,86,o),
(460,105,o),
(410,144,cs),
(310,220,o),
(247,361,o),
(247,514,cs),
(247,587,o),
(259,654,o),
(284,716,cs),
(333,839,o),
(425,915,o),
(525,915,cs),
(558,915,o),
(590,908,o),
(621,893,cs),
(683,863,o),
(733,804,o),
(753,739,c),
(761,708,o),
(765,672,o),
(765,629,cs),
(765,180,l),
(712,117,o),
(648,86,o),
(572,86,cs)
);
},
{
closed = 1;
nodes = (
(789,902,o),
(786,902,o),
(784,900,cs),
(783,899,o),
(783,898,o),
(783,897,c),
(784,895,l),
(788,893,l),
(793,893,l),
(794,895,l),
(793,897,o),
(793,898,o),
(794,899,c),
(792,900,l)
);
}
);
width = 1130;
}
);
note = d;
unicode = 100;
}
{
glyphname = e;
layers = (
{
layerId = "500BB636-1048-4D7F-B62E-A2796C57CEF4";
shapes = (
{
closed = 1;
nodes = (
(813,210,o),
(704,130,o),
(559,130,cs),
(352,130,o),
(196,334,o),
(196,559,cs),
(196,592,l),
(839,592,l),
(839,667,o),
(824,734,o),
(794,792,cs),
(734,907,o),
(619,973,o),
(478,973,cs),
(395,973,o),
(322,952,o),
(259,910,cs),
(131,825,o),
(56,663,o),
(56,463,cs),
(56,207,o),
(220,-3,o),
(462,-3,cs),
(666,-3,o),
(818,120,o),
(950,369,c),
(930,385,l)
);
},
{
closed = 1;
nodes = (
(183,629,l),
(182,628,o),
(180,629,o),
(180,630,cs),
(180,631,l),
(173,626,l),
(172,625,o),
(170,627,o),
(171,628,cs),
(173,630,l),
(177,633,l),
(165,629,l),
(164,629,l),
(163,628,o),
(163,628,o),
(162,629,c),
(162,630,o),
(162,631,o),
(163,632,c),
(175,637,l),
(171,637,l),
(169,638,l),
(167,641,l),
(166,642,o),
(166,644,o),
(167,645,c),
(167,645,o),
(169,646,o),
(169,647,cs),
(169,649,ls),
(169,650,o),
(169,651,o),
(170,652,c),
(172,653,o),
(175,654,o),
(180,655,c),
(188,655,o),
(199,655,o),
(200,659,c),
(201,664,l),
(207,708,o),
(218,747,o),
(238,782,cs),
(278,857,o),
(344,899,o),
(423,899,cs),
(533,899,o),
(622,792,o),
(622,720,cs),
(622,683,o),
(598,655,o),
(543,655,cs),
(209,655,ls),
(204,655,o),
(200,651,o),
(195,644,cs),
(189,636,l)
);
},
{
closed = 1;
nodes = (
(171,647,l),
(172,646,o),
(172,645,o),
(171,643,c),
(172,641,l),
(177,641,l),
(181,643,l),
(182,645,l),
(182,646,o),
(182,647,o),
(181,648,cs),
(179,650,o),
(176,650,o),
(173,648,c)
);
}
);
width = 961;
}
);
note = e;
unicode = 101;
}
{
glyphname = f;
layers = (
{
layerId = "500BB636-1048-4D7F-B62E-A2796C57CEF4";
shapes = (
{
closed = 1;
nodes = (
(540,0,l),
(540,37,l),
(523,37,ls),
(481,37,o),
(450,43,o),
(429,54,cs),
(387,76,o),
(372,122,o),
(372,227,cs),
(372,887,l),
(525,887,l),
(564,950,l),
(372,950,l),
(372,1145,ls),
(372,1312,o),
(398,1397,o),
(505,1397,cs),
(573,1397,o),
(633,1374,o),
(650,1296,cs),
(665,1225,o),
(709,1203,o),
(750,1203,cs),
(793,1203,o),
(833,1235,o),
(839,1298,cs),
(849,1399,o),
(723,1481,o),
(579,1468,cs),
(354,1448,o),
(204,1260,o),
(204,1034,cs),
(204,950,l),
(73,950,l),
(34,887,l),
(204,887,l),
(204,227,ls),
(204,177,o),
(200,139,o),
(192,112,cs),
(175,59,o),
(140,40,o),
(67,37,c),
(48,37,l),
(48,0,l)
);
},
{
closed = 1;
nodes = (
(381,950,l),
(375,950,o),
(371,946,o),
(367,939,c),
(361,931,l),
(355,924,l),
(354,923,o),
(352,924,o),
(352,925,cs),
(352,926,l),
(345,921,l),
(344,920,o),
(342,922,o),
(343,923,cs),
(345,925,l),
(349,928,l),
(337,924,l),
(336,924,l),
(335,923,o),
(335,923,o),
(334,924,c),
(334,925,o),
(334,926,o),
(335,927,c),
(347,932,l),
(343,932,l),
(341,933,l),
(339,936,l),
(338,937,o),
(338,939,o),
(339,940,c),
(339,940,o),
(341,941,o),
(341,942,cs),
(341,944,ls),
(341,945,o),
(341,946,o),
(342,947,c),
(344,948,o),
(347,949,o),
(352,950,c),
(360,950,o),
(372,952,o),
(372,956,cs),
(372,959,l),
(372,950,l)
);
},
{
closed = 1;
nodes = (
(343,938,l),
(344,940,o),
(344,941,o),
(343,942,c),
(345,943,l),
(348,945,o),
(351,945,o),
(353,943,cs),
(354,942,o),
(354,941,o),
(354,940,c),
(353,938,l),
(349,936,l),
(344,936,l)
);
}
);
width = 681;
}
);
note = f;
unicode = 102;
}
{
glyphname = g;
layers = (
{
layerId = "500BB636-1048-4D7F-B62E-A2796C57CEF4";
shapes = (
{
closed = 1;
nodes = (
(944,111,o),
(836,162,o),
(622,158,cs),
(513,156,ls),
(402,154,o),
(290,140,o),
(290,213,cs),
(290,246,o),
(317,287,o),
(372,336,c),
(417,322,o),
(462,315,o),
(505,315,cs),
(707,315,o),
(861,445,o),
(861,641,cs),
(861,698,o),
(845,754,o),
(813,809,c),
(805,816,o),
(801,817,o),
(793,818,c),
(788,818,o),
(785,819,o),
(783,820,c),
(782,821,o),
(782,822,o),
(782,823,cs),
(782,825,ls),
(782,826,o),
(780,827,o),
(780,827,c),
(779,828,o),
(779,830,o),
(780,831,c),
(782,834,l),
(784,835,l),
(788,835,l),
(776,840,l),
(775,841,o),
(775,842,o),
(775,843,c),
(776,844,o),
(776,844,o),
(777,844,c),
(777,843,o),
(777,843,o),
(778,843,c),
(790,839,l),
(786,842,l),
(784,844,l),
(784,846,l),
(783,847,o),
(784,847,o),
(785,847,cs),
(786,847,l),
(786,846,l),
(793,841,l),
(793,842,ls),
(793,843,o),
(795,844,o),
(796,843,c),
(802,836,l),
(808,828,l),
(814,822,o),
(818,819,o),
(819,818,c),
(821,817,l),
(937,817,l),
(997,909,l),
(730,909,l),
(665,952,o),
(594,973,o),
(517,973,cs),
(312,973,o),
(146,834,o),
(146,635,cs),
(146,516,o),
(212,411,o),
(321,356,c),
(206,264,o),
(155,194,o),
(155,129,cs),
(155,84,o),
(190,50,o),
(259,27,c),
(141,-18,o),
(77,-119,o),
(77,-213,cs),
(77,-368,o),
(236,-427,o),
(418,-427,cs),
(671,-427,o),
(944,-306,o),
(944,-68,cs)
);
},
{
closed = 1;
nodes = (
(318,825,o),
(375,915,o),
(474,915,cs),
(604,915,o),
(685,752,o),
(685,596,cs),
(685,476,o),
(634,367,o),
(531,367,cs),
(394,367,o),
(318,548,o),
(318,719,cs)
);
},
{
closed = 1;
nodes = (
(789,822,o),
(792,822,o),
(794,824,cs),
(795,825,o),
(795,826,o),
(795,827,c),
(794,829,l),
(790,831,l),
(785,831,l),
(784,829,l),
(785,827,o),
(785,826,o),
(784,825,c),
(786,824,l)
);
},
{
closed = 1;
nodes = (
(879,-234,o),
(702,-288,o),
(514,-288,cs),
(362,-288,o),
(188,-256,o),
(188,-125,cs),
(188,-66,o),
(231,-5,o),
(306,16,c),
(335,8,o),
(380,3,o),
(443,2,cs),
(624,-2,ls),
(756,-5,o),
(879,-8,o),
(879,-106,cs)
);
}
);
width = 1024;
}
);
note = g;
unicode = 103;
}
{
glyphname = h;
layers = (
{
layerId = "500BB636-1048-4D7F-B62E-A2796C57CEF4";
shapes = (
{
closed = 1;
nodes = (
(973,40,o),
(941,71,o),
(941,227,cs),
(941,575,ls),
(941,819,o),
(893,967,o),
(695,973,cs),
(624,975,o),
(536,943,o),
(467,888,c),
(370,772,l),
(365,764,o),
(365,757,o),
(362,750,cs),
(361,747,o),
(360,744,o),
(358,742,cs),
(357,741,o),
(355,741,o),
(355,742,c),
(349,737,l),
(347,735,o),
(346,736,o),
(346,737,cs),
(346,738,l),
(348,741,l),
(351,744,l),
(340,737,l),
(339,736,o),
(338,736,o),
(337,737,c),
(337,738,o),
(337,738,o),
(338,739,c),
(349,747,l),
(343,747,ls),
(342,747,o),
(341,747,o),
(340,748,c),
(339,751,o),
(339,753,o),
(341,755,c),
(340,755,l),
(339,756,o),
(339,764,o),
(348,764,cs),
(360,764,o),
(366,772,o),
(366,783,cs),
(366,1468,l),
(38,1346,l),
(50,1311,l),
(163,1344,o),
(198,1304,o),
(198,1169,cs),
(198,227,ls),
(198,80,o),
(167,39,o),
(50,37,c),
(50,0,l),
(529,0,l),
(529,37,l),
(397,40,o),
(366,68,o),
(366,227,cs),
(366,714,l),
(427,782,o),
(501,848,o),
(609,848,cs),
(706,848,o),
(771,781,o),
(771,678,cs),
(771,227,ls),
(771,75,o),
(742,42,o),
(620,37,c),
(620,0,l),
(1095,0,l),
(1095,37,l)
);
},
{
closed = 1;
nodes = (
(353,754,l),
(353,756,ls),
(353,757,o),
(351,759,o),
(349,760,c),
(346,760,o),
(344,759,o),
(343,756,c),
(342,755,l),
(343,755,o),
(343,753,o),
(343,751,c),
(345,750,l),
(349,751,l)
);
}
);
width = 1130;
}
);
note = h;
unicode = 104;
}
{
glyphname = i;
layers = (
{
layerId = "500BB636-1048-4D7F-B62E-A2796C57CEF4";
shapes = (
{
closed = 1;
nodes = (
(175,1221,o),
(223,1174,o),
(280,1174,cs),
(339,1174,o),
(386,1221,o),
(386,1278,cs),
(386,1337,o),
(339,1385,o),
(280,1385,cs),
(223,1385,o),
(175,1337,o),
(175,1278,cs)
);
},
{
closed = 1;
nodes = (
(509,0,l),
(509,37,l),
(470,40,o),
(441,47,o),
(421,59,cs),
(381,82,o),
(366,128,o),
(366,227,cs),
(366,973,l),
(48,864,l),
(58,827,l),
(74,834,o),
(89,838,o),
(103,838,cs),
(129,838,o),
(149,833,o),
(164,823,cs),
(193,803,o),
(206,761,o),
(206,680,cs),
(206,227,ls),
(206,178,o),
(201,140,o),
(192,113,cs),
(172,58,o),
(129,37,o),
(50,37,cs),
(48,37,l),
(48,0,l)
);
}
);
width = 555;
}
);
note = i;
unicode = 105;
}
{
glyphname = j;
layers = (
{
layerId = "500BB636-1048-4D7F-B62E-A2796C57CEF4";
shapes = (
{
closed = 1;
nodes = (
(195,1241,o),
(242,1194,o),
(301,1194,cs),
(358,1194,o),
(408,1242,o),
(408,1298,cs),
(408,1357,o),
(358,1405,o),
(301,1405,cs),
(244,1405,o),
(195,1357,o),
(195,1298,cs)
);
},
{
closed = 1;
nodes = (
(-150,-352,o),
(-142,-370,o),
(-126,-386,cs),
(-94,-418,o),
(-35,-438,o),
(33,-438,cs),
(269,-438,o),
(393,-269,o),
(393,47,cs),
(393,973,l),
(59,868,l),
(72,831,l),
(101,840,o),
(120,844,o),
(131,844,cs),
(199,844,o),
(227,795,o),
(227,678,cs),
(227,-43,ls),
(227,-150,o),
(224,-225,o),
(217,-270,cs),
(214,-292,o),
(209,-308,o),
(202,-319,cs),
(189,-341,o),
(165,-352,o),
(133,-352,cs),
(120,-352,o),
(108,-349,o),
(97,-342,cs),
(86,-335,o),
(68,-320,o),
(41,-295,cs),
(4,-262,o),
(-30,-246,o),
(-61,-246,cs),
(-108,-246,o),
(-150,-287,o),
(-150,-332,cs)
);
}
);
width = 555;
}
);
note = j;
unicode = 106;
}
{
glyphname = k;
layers = (
{
layerId = "500BB636-1048-4D7F-B62E-A2796C57CEF4";
shapes = (
{
closed = 1;
nodes = (
(536,0,l),
(536,37,l),
(517,37,ls),
(477,38,o),
(447,46,o),
(428,61,cs),
(388,91,o),
(380,139,o),
(380,227,cs),
(380,527,l),
(384,522,l),
(669,147,l),
(672,142,o),
(677,136,o),
(683,128,cs),
(695,112,o),
(704,99,o),
(704,80,cs),
(704,53,o),
(682,39,o),
(638,37,c),
(638,0,l),
(1093,0,l),
(1093,37,l),
(1062,37,o),
(1037,40,o),
(1017,47,cs),
(948,70,o),
(895,120,o),
(792,254,cs),
(546,574,l),
(536,586,l),
(738,778,ls),
(811,849,o),
(864,883,o),
(925,899,cs),
(961,908,o),
(990,912,o),
(1050,915,c),
(1050,950,l),
(630,950,l),
(630,915,l),
(681,915,o),
(706,900,o),
(706,870,cs),
(706,853,o),
(695,833,o),
(673,811,cs),
(380,532,l),
(380,1468,l),
(52,1356,l),
(65,1321,l),
(89,1329,o),
(109,1333,o),
(124,1333,cs),
(179,1333,o),
(208,1291,o),
(208,1184,cs),
(210,1124,l),
(210,227,ls),
(210,179,o),
(206,142,o),
(198,115,cs),
(181,62,o),
(144,40,o),
(73,37,c),
(52,37,l),
(52,0,l)
);
},
{
closed = 1;
nodes = (
(535,571,o),
(523,564,o),
(526,552,cs),
(528,544,o),
(521,542,o),
(519,542,c),
(519,543,l),
(518,541,o),
(516,540,o),
(513,541,c),
(511,541,o),
(511,542,o),
(511,543,cs),
(509,549,l),
(504,536,l),
(504,535,o),
(504,535,o),
(503,535,c),
(501,536,o),
(501,537,o),
(502,538,c),
(506,550,l),
(504,547,l),
(501,544,l),
(500,544,ls),
(499,544,o),
(498,544,o),
(500,546,c),
(503,554,l),
(502,553,o),
(501,555,o),
(502,556,cs),
(504,558,o),
(506,561,o),
(509,562,cs),
(516,564,o),
(530,579,o),
(536,586,c),
(546,574,l)
);
},
{
closed = 1;
nodes = (
(513,546,l),
(515,544,l),
(517,545,o),
(519,545,o),
(519,544,c),
(519,546,l),
(522,547,o),
(523,550,o),
(522,552,c),
(520,554,o),
(518,555,o),
(517,555,cs),
(515,555,l),
(513,550,l)
);
}
);
width = 1130;
}
);
note = k;
unicode = 107;
}
{
glyphname = l;
layers = (
{
layerId = "500BB636-1048-4D7F-B62E-A2796C57CEF4";
shapes = (
{
closed = 1;
nodes = (
(507,0,l),
(507,37,l),
(503,37,ls),
(467,38,o),
(440,45,o),
(421,56,cs),
(384,79,o),
(370,126,o),
(370,225,cs),
(370,1468,l),
(335,1468,l),
(46,1346,l),
(58,1311,l),
(75,1318,o),
(92,1321,o),
(108,1321,cs),
(157,1321,o),
(182,1301,o),
(194,1253,c),
(199,1226,o),
(202,1192,o),
(202,1149,cs),
(202,225,ls),
(202,176,o),
(198,139,o),
(189,113,cs),
(172,60,o),
(133,38,o),
(62,37,cs),
(46,37,l),
(46,0,l)
);
}
);
width = 555;
}
);
note = l;
unicode = 108;
}
{
glyphname = m;
layers = (
{
layerId = "500BB636-1048-4D7F-B62E-A2796C57CEF4";
shapes = (
{
closed = 1;
nodes = (
(1660,0,l),
(1660,37,l),
(1641,37,ls),
(1605,38,o),
(1577,45,o),
(1558,57,cs),
(1519,81,o),
(1504,128,o),
(1504,227,cs),
(1504,602,ls),
(1504,723,o),
(1495,784,o),
(1467,840,cs),
(1428,924,o),
(1349,973,o),
(1254,973,cs),
(1184,973,o),
(1123,954,o),
(1070,915,c),
(1007,875,o),
(955,825,o),
(914,766,c),
(914,766,o),
(911,763,o),
(906,758,c),
(900,750,l),
(894,743,l),
(893,742,o),
(891,743,o),
(891,744,cs),
(891,745,l),
(884,740,l),
(883,739,o),
(881,741,o),
(882,742,c),
(882,742,o),
(882,742,o),
(882,742,c),
(884,744,l),
(888,747,l),
(882,745,l),
(876,743,l),
(875,743,o),
(875,743,o),
(875,743,c),
(874,742,o),
(874,742,o),
(873,743,c),
(873,744,o),
(873,745,o),
(874,746,c),
(886,751,l),
(882,751,l),
(880,752,l),
(878,755,l),
(877,756,o),
(877,758,o),
(878,759,c),
(878,759,o),
(880,760,o),
(880,761,cs),
(880,763,ls),
(880,764,o),
(880,765,o),
(881,766,c),
(883,767,o),
(886,768,o),
(891,769,c),
(899,769,o),
(904,771,o),
(907,774,cs),
(911,778,l),
(877,908,o),
(799,973,o),
(677,973,cs),
(597,973,o),
(499,924,o),
(423,844,cs),
(357,778,l),
(357,973,l),
(15,864,l),
(30,829,l),
(51,836,o),
(70,840,o),
(87,840,cs),
(113,840,o),
(133,834,o),
(148,823,c),
(177,800,o),
(189,751,o),
(189,659,cs),
(189,227,ls),
(189,177,o),
(185,139,o),
(177,112,cs),
(160,59,o),
(123,38,o),
(50,37,cs),
(30,37,l),
(30,0,l),
(509,0,l),
(509,37,l),
(495,37,ls),
(458,38,o),
(430,45,o),
(411,57,cs),
(372,80,o),
(357,127,o),
(357,227,cs),
(357,723,l),
(364,729,l),
(400,764,ls),
(451,813,o),
(534,850,o),
(595,850,cs),
(714,850,o),
(763,774,o),
(763,594,cs),
(763,227,ls),
(763,177,o),
(759,139,o),
(751,112,cs),
(734,59,o),
(699,40,o),
(626,37,c),
(601,37,l),
(601,0,l),
(1086,0,l),
(1086,37,l),
(1068,37,ls),
(1032,38,o),
(1004,44,o),
(985,56,cs),
(946,79,o),
(931,127,o),
(931,227,cs),
(931,596,ls),
(931,621,o),
(928,666,o),
(927,686,c),
(923,719,l),
(923,723,l),
(957,758,ls),
(1010,811,o),
(1100,850,o),
(1168,850,cs),
(1269,850,o),
(1336,779,o),
(1336,670,cs),
(1336,227,ls),
(1336,177,o),
(1332,139,o),
(1324,112,cs),
(1307,59,o),
(1272,40,o),
(1199,37,c),
(1177,37,l),
(1177,0,l)
);
},
{
closed = 1;
nodes = (
(888,755,l),
(892,757,l),
(893,759,l),
(893,760,o),
(893,761,o),
(892,762,cs),
(890,764,o),
(887,764,o),
(884,762,c),
(882,761,l),
(883,760,o),
(883,759,o),
(882,757,c),
(883,755,l)
);
}
);
width = 1685;
}
);
note = m;
unicode = 109;
}
{
glyphname = n;
layers = (
{
layerId = "500BB636-1048-4D7F-B62E-A2796C57CEF4";
shapes = (
{
closed = 1;
nodes = (
(36,860,l),
(50,821,l),
(79,832,o),
(100,838,o),
(114,838,cs),
(175,838,o),
(198,797,o),
(198,688,cs),
(198,227,ls),
(198,176,o),
(194,138,o),
(185,111,cs),
(168,58,o),
(129,38,o),
(50,37,c),
(50,0,l),
(521,0,l),
(521,37,l),
(479,38,o),
(447,44,o),
(426,55,cs),
(382,77,o),
(366,128,o),
(366,227,cs),
(366,715,l),
(451,811,o),
(524,852,o),
(607,852,cs),
(720,852,o),
(773,780,o),
(773,627,cs),
(773,223,ls),
(773,174,o),
(768,136,o),
(759,110,cs),
(740,57,o),
(698,37,o),
(617,37,cs),
(605,37,l),
(605,0,l),
(1084,0,l),
(1084,37,l),
(1045,38,o),
(1016,45,o),
(996,56,cs),
(956,79,o),
(941,126,o),
(941,223,cs),
(941,639,ls),
(941,852,o),
(849,973,o),
(689,973,cs),
(651,973,o),
(617,967,o),
(586,955,cs),
(524,931,o),
(458,876,o),
(366,772,c),
(366,973,l)
);
}
);
width = 1110;
}
);
note = n;
unicode = 110;
}
{
glyphname = o;
layers = (
{
layerId = "500BB636-1048-4D7F-B62E-A2796C57CEF4";
shapes = (
{
closed = 1;
nodes = (
(93,364,o),
(114,285,o),
(155,212,cs),
(237,64,o),
(388,-29,o),
(548,-29,cs),
(673,-29,o),
(801,30,o),
(893,129,cs),
(985,226,o),
(1041,365,o),
(1041,498,cs),
(1041,583,o),
(1021,663,o),
(980,736,cs),
(898,883,o),
(747,973,o),
(583,973,cs),
(497,973,o),
(416,949,o),
(341,902,cs),
(189,806,o),
(93,633,o),
(93,449,cs)
);
},
{
closed = 1;
nodes = (
(278,604,o),
(289,669,o),
(310,725,cs),
(352,837,o),
(432,901,o),
(536,901,cs),
(596,901,o),
(650,880,o),
(699,839,cs),
(796,756,o),
(855,601,o),
(855,418,cs),
(855,344,o),
(844,279,o),
(823,222,cs),
(780,108,o),
(699,43,o),
(595,43,cs),
(536,43,o),
(482,64,o),
(434,107,cs),
(338,192,o),
(278,351,o),
(278,530,cs)
);
}
);
width = 1130;
}
);
note = o;
unicode = 111;
}
{
glyphname = q;
layers = (
{
layerId = "500BB636-1048-4D7F-B62E-A2796C57CEF4";
shapes = (
{
closed = 1;
nodes = (
(75,353,o),
(91,273,o),
(123,202,cs),
(186,59,o),
(303,-27,o),
(443,-27,cs),
(552,-27,o),
(669,39,o),
(765,154,c),
(765,-205,ls),
(765,-262,o),
(761,-302,o),
(753,-327,cs),
(736,-377,o),
(694,-393,o),
(595,-393,c),
(595,-432,l),
(1091,-432,l),
(1091,-393,l),
(1068,-393,ls),
(1032,-392,o),
(1005,-385,o),
(986,-373,cs),
(948,-350,o),
(933,-302,o),
(933,-205,cs),
(933,973,l),
(898,973,l),
(870,933,o),
(831,911,o),
(781,907,c),
(707,951,o),
(632,973,o),
(556,973,cs),
(467,973,o),
(385,950,o),
(312,904,cs),
(165,811,o),
(75,637,o),
(75,440,cs)
);
},
{
closed = 1;
nodes = (
(247,588,o),
(259,659,o),
(283,720,cs),
(331,843,o),
(423,913,o),
(538,913,cs),
(689,913,o),
(765,831,o),
(765,666,cs),
(765,213,l),
(759,207,ls),
(687,135,o),
(642,115,o),
(554,115,cs),
(494,115,o),
(441,131,o),
(394,164,cs),
(301,228,o),
(247,352,o),
(247,508,cs)
);
}
);
width = 1130;
}
);
note = q;
unicode = 113;
}
{
glyphname = r;
layers = (
{
layerId = "500BB636-1048-4D7F-B62E-A2796C57CEF4";
shapes = (
{
closed = 1;
nodes = (
(678,968,o),
(657,973,o),
(634,973,cs),
(542,973,o),
(472,918,o),
(385,771,c),
(384,769,o),
(381,766,o),
(377,763,cs),
(373,760,o),
(370,757,o),
(368,754,c),
(365,748,o),
(362,745,o),
(359,745,c),
(358,747,l),
(358,748,l),
(351,743,l),
(350,742,o),
(348,744,o),
(349,745,c),
(349,745,o),
(349,745,o),
(349,745,c),
(351,747,l),
(355,750,l),
(349,748,l),
(343,746,l),
(342,746,o),
(342,746,o),
(342,746,c),
(341,745,o),
(341,745,o),
(340,746,c),
(340,747,o),
(340,748,o),
(341,749,c),
(353,754,l),
(349,754,l),
(347,755,l),
(345,758,l),
(344,759,o),
(344,761,o),
(345,762,c),
(345,762,o),
(347,763,o),
(347,764,cs),
(347,766,ls),
(347,767,o),
(347,768,o),
(348,769,c),
(350,770,o),
(353,771,o),
(358,772,c),
(362,772,o),
(365,772,o),
(368,773,c),
(369,773,o),
(376,774,o),
(377,778,c),
(378,781,l),
(378,930,l),
(339,973,l),
(54,854,l),
(67,819,l),
(94,830,o),
(116,836,o),
(135,836,cs),
(158,836,o),
(174,828,o),
(185,813,c),
(206,782,o),
(210,739,o),
(210,664,cs),
(210,227,ls),
(210,175,o),
(206,136,o),
(198,111,cs),
(181,59,o),
(141,38,o),
(60,37,cs),
(54,37,l),
(54,0,l),
(558,0,l),
(558,37,l),
(527,37,ls),
(486,38,o),
(456,45,o),
(435,56,cs),
(394,79,o),
(378,126,o),
(378,229,cs),
(378,696,l),
(415,767,o),
(458,818,o),
(501,835,cs),
(514,840,o),
(526,843,o),
(537,843,cs),
(562,843,o),
(581,831,o),
(594,806,cs),
(609,777,o),
(636,762,o),
(667,762,cs),
(718,762,o),
(763,800,o),
(763,856,cs),
(763,896,o),
(737,934,o),
(697,957,cs)
);
},
{
closed = 1;
nodes = (
(355,758,l),
(359,760,l),
(360,762,l),
(360,763,o),
(360,764,o),
(359,765,cs),
(357,767,o),
(354,767,o),
(351,765,c),
(349,764,l),
(350,763,o),
(350,762,o),
(349,760,c),
(350,758,l)
);
}
);
width = 788;
}
);
note = r;
unicode = 114;
}
{
glyphname = s;
layers = (
{
layerId = "500BB636-1048-4D7F-B62E-A2796C57CEF4";
shapes = (
{
closed = 1;
nodes = (
(99,570,o),
(183,509,o),
(323,430,cs),
(425,373,o),
(493,328,o),
(526,295,cs),
(558,262,o),
(574,222,o),
(574,174,cs),
(574,98,o),
(499,35,o),
(413,35,cs),
(272,35,o),
(167,143,o),
(140,319,c),
(105,319,l),
(105,0,l),
(149,0,l),
(158,9,o),
(170,14,o),
(185,14,cs),
(244,14,o),
(308,-29,o),
(409,-29,cs),
(577,-29,o),
(720,91,o),
(720,254,cs),
(720,301,o),
(711,342,o),
(692,377,cs),
(654,447,o),
(573,507,o),
(413,586,cs),
(268,657,o),
(216,709,o),
(216,788,cs),
(216,812,o),
(223,834,o),
(237,853,cs),
(265,892,o),
(316,915,o),
(380,915,cs),
(419,915,o),
(456,905,o),
(489,884,cs),
(555,842,o),
(600,761,o),
(613,662,c),
(650,662,l),
(650,950,l),
(613,950,l),
(602,942,o),
(589,938,o),
(572,938,cs),
(559,938,o),
(545,940,o),
(531,944,cs),
(468,963,ls),
(445,970,o),
(419,973,o),
(388,973,cs),
(333,973,o),
(283,961,o),
(239,938,cs),
(151,891,o),
(99,806,o),
(99,702,cs)
);
},
{
closed = 1;
nodes = (
(625,950,l),
(620,942,o),
(611,924,o),
(609,917,cs),
(608,914,o),
(607,911,o),
(605,909,cs),
(604,908,o),
(602,908,o),
(602,909,c),
(596,904,l),
(594,902,o),
(593,903,o),
(593,904,cs),
(593,905,l),
(595,908,l),
(598,911,l),
(587,904,l),
(586,903,o),
(585,903,o),
(584,904,c),
(584,905,o),
(584,905,o),
(585,906,c),
(596,914,l),
(590,914,ls),
(589,914,o),
(588,914,o),
(587,915,c),
(586,918,o),
(586,920,o),
(588,922,c),
(587,922,l),
(586,923,o),
(586,931,o),
(595,931,cs),
(607,931,o),
(613,939,o),
(613,950,c)
);
},
{
closed = 1;
nodes = (
(600,921,l),
(600,923,ls),
(600,924,o),
(598,926,o),
(596,927,c),
(593,927,o),
(591,926,o),
(590,923,c),
(589,922,l),
(590,922,o),
(590,920,o),
(590,918,c),
(592,917,l),
(596,918,l)
);
}
);
width = 788;
}
);
note = s;
unicode = 115;
}
{
glyphname = t;
layers = (
{
layerId = "500BB636-1048-4D7F-B62E-A2796C57CEF4";
shapes = (
{
closed = 1;
nodes = (
(171,891,l),
(171,244,ls),
(171,63,o),
(235,-27,o),
(364,-27,cs),
(469,-27,o),
(552,33,o),
(624,168,c),
(583,168,l),
(540,112,o),
(506,90,o),
(458,90,cs),
(386,90,o),
(337,147,o),
(337,231,cs),
(337,891,l),
(556,891,l),
(556,950,l),
(337,950,l),
(337,1251,l),
(306,1251,l),
(261,1099,o),
(163,985,o),
(26,928,c),
(26,891,l)
);
}
);
width = 649;
}
);
note = t;
unicode = 116;
}
{
glyphname = u;
layers = (
{
layerId = "500BB636-1048-4D7F-B62E-A2796C57CEF4";
shapes = (
{
closed = 1;
nodes = (
(36,911,l),
(62,911,ls),
(100,911,o),
(130,907,o),
(151,898,cs),
(193,881,o),
(208,843,o),
(208,770,cs),
(208,240,l),
(212,145,o),
(246,59,o),
(321,11,c),
(360,-16,o),
(403,-29,o),
(450,-29,cs),
(554,-29,o),
(654,35,o),
(775,176,c),
(775,-25,l),
(814,-25,l),
(1103,86,l),
(1103,125,l),
(1072,114,o),
(1049,109,o),
(1035,109,cs),
(970,109,o),
(946,147,o),
(943,256,c),
(943,950,l),
(615,950,l),
(615,911,l),
(636,911,ls),
(672,911,o),
(700,907,o),
(720,898,cs),
(759,881,o),
(775,845,o),
(775,774,cs),
(775,227,l),
(694,144,o),
(612,102,o),
(531,102,cs),
(422,102,o),
(374,168,o),
(374,315,cs),
(374,950,l),
(36,950,l)
);
}
);
width = 1130;
}
);
note = u;
unicode = 117;
}
{
glyphname = v;
layers = (
{
layerId = "500BB636-1048-4D7F-B62E-A2796C57CEF4";
shapes = (
{
closed = 1;
nodes = (
(28,950,l),
(28,911,l),
(71,909,o),
(106,892,o),
(131,860,cs),
(158,825,o),
(192,754,o),
(235,647,cs),
(511,-27,l),
(550,-27,l),
(876,780,ls),
(889,813,o),
(901,839,o),
(912,857,cs),
(934,892,o),
(955,904,o),
(998,911,c),
(998,950,l),
(714,950,l),
(714,911,l),
(791,910,o),
(818,893,o),
(818,848,cs),
(818,839,o),
(811,813,o),
(798,772,c),
(579,231,l),
(388,698,l),
(380,717,l),
(361,768,o),
(351,806,o),
(351,831,cs),
(351,880,o),
(385,907,o),
(454,911,c),
(454,950,l)
);
}
);
width = 1024;
}
);
note = v;
unicode = 118;
}
{
glyphname = w;
layers = (
{
layerId = "500BB636-1048-4D7F-B62E-A2796C57CEF4";
shapes = (
{
closed = 1;
nodes = (
(1170,915,l),
(1275,914,o),
(1294,875,o),
(1263,776,c),
(1060,244,l),
(861,774,ls),
(825,865,o),
(857,915,o),
(955,915,cs),
(964,915,l),
(964,950,l),
(28,950,l),
(28,915,l),
(105,910,o),
(129,860,o),
(165,758,cs),
(454,-25,l),
(491,-25,l),
(761,582,l),
(990,-25,l),
(1031,-25,l),
(1318,729,ls),
(1356,830,o),
(1385,910,o),
(1451,915,c),
(1451,950,l),
(1170,950,l)
);
},
{
closed = 1;
nodes = (
(527,228,o),
(526,225,o),
(522,218,c),
(516,210,l),
(510,203,l),
(509,202,o),
(507,203,o),
(507,204,cs),
(507,205,l),
(500,200,l),
(499,199,o),
(497,201,o),
(498,202,cs),
(500,204,l),
(504,207,l),
(492,203,l),
(491,203,l),
(490,202,o),
(490,202,o),
(489,203,c),
(489,204,o),
(489,205,o),
(490,206,c),
(502,211,l),
(498,211,l),
(496,212,l),
(494,215,l),
(493,216,o),
(493,218,o),
(494,219,c),
(494,219,o),
(496,220,o),
(496,221,cs),
(496,223,ls),
(496,228,o),
(503,229,o),
(507,229,cs),
(522,229,o),
(524,235,o),
(523,241,cs),
(522,244,l),
(335,760,ls),
(286,896,o),
(381,923,o),
(476,923,cs),
(617,923,o),
(633,900,o),
(726,672,c),
(532,239,ls)
);
},
{
closed = 1;
nodes = (
(498,221,l),
(499,220,o),
(499,219,o),
(498,217,c),
(499,215,l),
(504,215,l),
(508,217,l),
(509,219,l),
(509,220,o),
(509,221,o),
(508,222,cs),
(506,224,o),
(503,224,o),
(500,222,c)
);
}
);
width = 1472;
}
);
note = w;
unicode = 119;
}
{
glyphname = x;
layers = (
{
layerId = "500BB636-1048-4D7F-B62E-A2796C57CEF4";
shapes = (
{
closed = 1;
nodes = (
(345,0,l),
(345,37,l),
(284,37,o),
(253,54,o),
(253,88,cs),
(253,107,o),
(265,133,o),
(288,166,cs),
(462,426,l),
(597,209,l),
(634,152,l),
(649,127,o),
(656,106,o),
(656,88,cs),
(656,54,o),
(627,37,o),
(570,37,c),
(570,0,l),
(990,0,l),
(990,37,l),
(969,38,o),
(948,46,o),
(925,59,c),
(874,95,o),
(805,182,o),
(720,319,cs),
(562,573,l),
(661,721,ls),
(694,770,o),
(722,807,o),
(747,834,cs),
(795,886,o),
(835,908,o),
(896,915,c),
(896,950,l),
(581,950,l),
(581,915,l),
(631,913,o),
(656,895,o),
(656,862,cs),
(656,839,o),
(644,811,o),
(620,778,cs),
(523,635,l),
(435,772,ls),
(409,811,o),
(396,841,o),
(396,862,cs),
(396,893,o),
(421,911,o),
(472,915,c),
(472,950,l),
(46,950,l),
(46,915,l),
(77,914,o),
(103,908,o),
(124,898,cs),
(167,877,o),
(202,838,o),
(263,739,cs),
(423,487,l),
(241,217,ls),
(162,101,o),
(93,41,o),
(34,37,c),
(34,0,l)
);
}
);
width = 1024;
}
);
note = x;
unicode = 120;
}
{
glyphname = y;
layers = (
{
layerId = "500BB636-1048-4D7F-B62E-A2796C57CEF4";
shapes = (
{
closed = 1;
nodes = (
(34,950,l),
(34,915,l),
(97,908,o),
(142,863,o),
(189,758,cs),
(519,20,l),
(486,-61,ls),
(435,-198,o),
(381,-266,o),
(323,-266,cs),
(308,-266,o),
(286,-260,o),
(259,-248,cs),
(236,-238,o),
(219,-232,o),
(206,-229,c),
(197,-228,o),
(188,-227,o),
(181,-227,cs),
(116,-227,o),
(73,-266,o),
(73,-326,cs),
(73,-391,o),
(130,-438,o),
(210,-438,cs),
(293,-438,o),
(374,-395,o),
(427,-326,cs),
(479,-256,o),
(523,-173,o),
(560,-76,cs),
(882,795,ls),
(913,874,o),
(943,907,o),
(990,915,c),
(990,950,l),
(720,950,l),
(720,915,l),
(738,915,l),
(789,911,o),
(814,891,o),
(814,854,cs),
(814,837,o),
(810,816,o),
(802,791,c),
(597,238,l),
(366,754,ls),
(352,788,o),
(345,816,o),
(345,838,cs),
(345,889,o),
(377,914,o),
(445,915,cs),
(458,915,l),
(458,950,l)
);
}
);
width = 1024;
}
);
note = y;
unicode = 121;
}
{
glyphname = z;
layers = (
{
layerId = "500BB636-1048-4D7F-B62E-A2796C57CEF4";
shapes = (
{
closed = 1;
nodes = (
(833,0,l),
(847,285,l),
(808,285,l),
(808,272,ls),
(807,221,o),
(799,181,o),
(785,152,cs),
(756,94,o),
(696,68,o),
(593,68,cs),
(249,68,l),
(857,913,l),
(857,950,l),
(95,950,l),
(95,698,l),
(128,698,l),
(134,750,o),
(143,788,o),
(154,813,cs),
(177,862,o),
(217,879,o),
(302,879,cs),
(634,879,l),
(28,37,l),
(28,0,l)
);
}
);
width = 897;
}
);
note = z;
unicode = 122;
}
{
glyphname = braceleft;
layers = (
{
layerId = "500BB636-1048-4D7F-B62E-A2796C57CEF4";
shapes = (
{
closed = 1;
nodes = (
(354,444,o),
(437,365,o),
(437,254,cs),
(437,225,o),
(429,174,o),
(413,102,cs),
(399,45,o),
(392,-6,o),
(392,-53,cs),
(392,-117,o),
(408,-177,o),
(440,-233,cs),
(504,-345,o),
(623,-422,o),
(767,-442,c),
(767,-408,l),
(615,-369,o),
(536,-283,o),
(536,-160,cs),
(536,-121,o),
(542,-71,o),
(554,-12,cs),
(567,60,o),
(574,116,o),
(574,156,cs),
(574,301,o),
(474,419,o),
(290,494,c),
(378,525,o),
(412,545,o),
(468,598,cs),
(539,665,o),
(574,741,o),
(574,827,cs),
(574,870,o),
(567,926,o),
(552,995,cs),
(540,1054,o),
(534,1104,o),
(534,1145,cs),
(534,1270,o),
(619,1357,o),
(767,1384,c),
(767,1423,l),
(696,1414,o),
(631,1391,o),
(574,1354,cs),
(459,1280,o),
(390,1161,o),
(390,1032,cs),
(390,985,o),
(397,931,o),
(411,870,cs),
(427,804,o),
(435,754,o),
(435,721,cs),
(435,687,o),
(426,655,o),
(407,626,cs),
(370,567,o),
(299,523,o),
(210,510,c),
(210,471,l)
);
}
);
width = 980;
}
);
note = braceleft;
unicode = 123;
}
{
glyphname = bar;
layers = (
{
layerId = "500BB636-1048-4D7F-B62E-A2796C57CEF4";
shapes = (
{
closed = 1;
nodes = (
(243,-442,l),
(243,1423,l),
(161,1423,l),
(161,-442,l)
);
}
);
width = 405;
}
);
note = bar;
unicode = 124;
}
{
glyphname = braceright;
layers = (
{
layerId = "500BB636-1048-4D7F-B62E-A2796C57CEF4";
shapes = (
{
closed = 1;
nodes = (
(283,-433,o),
(347,-410,o),
(405,-373,cs),
(521,-299,o),
(591,-180,o),
(591,-51,cs),
(591,-13,o),
(583,40,o),
(568,109,cs),
(552,177,o),
(544,227,o),
(544,260,cs),
(544,363,o),
(634,446,o),
(771,471,c),
(771,510,l),
(627,537,o),
(542,616,o),
(542,727,cs),
(542,756,o),
(550,807,o),
(566,879,cs),
(581,946,o),
(589,997,o),
(589,1034,cs),
(589,1098,o),
(573,1158,o),
(541,1214,cs),
(477,1325,o),
(359,1403,o),
(212,1423,c),
(212,1386,l),
(364,1349,o),
(443,1264,o),
(443,1141,cs),
(443,1102,o),
(437,1052,o),
(425,993,cs),
(412,921,o),
(405,865,o),
(405,825,cs),
(405,680,o),
(505,562,o),
(689,487,c),
(600,455,o),
(568,436,o),
(511,383,cs),
(440,316,o),
(405,240,o),
(405,154,cs),
(405,111,o),
(412,55,o),
(427,-14,cs),
(439,-73,o),
(445,-123,o),
(445,-164,cs),
(445,-289,o),
(360,-376,o),
(212,-403,c),
(212,-442,l)
);
}
);
width = 980;
}
);
note = braceright;
unicode = 125;
}
{
glyphname = asciitilde;
layers = (
{
layerId = "500BB636-1048-4D7F-B62E-A2796C57CEF4";
shapes = (
{
closed = 1;
nodes = (
(94,552,o),
(103,585,o),
(120,614,cs),
(152,672,o),
(207,705,o),
(271,705,cs),
(314,705,o),
(385,678,o),
(484,625,cs),
(635,542,o),
(710,516,o),
(794,516,cs),
(842,516,o),
(886,530,o),
(926,558,cs),
(1006,614,o),
(1058,719,o),
(1062,840,c),
(1013,840,l),
(1000,724,o),
(930,655,o),
(830,655,cs),
(780,655,o),
(706,682,o),
(609,735,cs),
(465,816,o),
(404,838,o),
(323,838,cs),
(273,838,o),
(227,824,o),
(185,796,cs),
(101,739,o),
(46,633,o),
(46,516,c),
(91,516,l)
);
}
);
width = 1110;
}
);
note = asciitilde;
unicode = 126;
}
{
glyphname = exclamdown;
layers = (
{
layerId = "500BB636-1048-4D7F-B62E-A2796C57CEF4";
shapes = (
{
closed = 1;
nodes = (
(175,887,o),
(227,836,o),
(290,836,cs),
(351,836,o),
(402,887,o),
(402,950,cs),
(402,1011,o),
(351,1063,o),
(290,1063,cs),
(227,1063,o),
(175,1011,o),
(175,950,cs)
);
},
{
closed = 1;
nodes = (
(167,-342,o),
(212,-399,o),
(284,-399,cs),
(352,-399,o),
(400,-338,o),
(400,-250,cs),
(400,-232,o),
(399,-210,o),
(396,-184,cs),
(392,-154,l),
(306,664,l),
(269,664,l),
(177,-147,l),
(171,-190,ls),
(168,-209,o),
(167,-229,o),
(167,-250,cs)
);
}
);
width = 555;
}
);
note = exclamdown;
unicode = 161;
}
{
glyphname = cent;
layers = (
{
layerId = "500BB636-1048-4D7F-B62E-A2796C57CEF4";
shapes = (
{
closed = 1;
nodes = (
(48,388,o),
(61,315,o),
(87,248,cs),
(122,157,o),
(152,119,o),
(237,51,c),
(81,-387,l),
(144,-387,l),
(290,16,l),
(367,-17,o),
(397,-25,o),
(460,-25,cs),
(523,-25,o),
(583,-9,o),
(640,23,cs),
(752,86,o),
(834,203,o),
(869,354,c),
(837,367,l),
(788,216,o),
(683,135,o),
(538,135,cs),
(459,135,o),
(426,147,o),
(357,199,c),
(599,870,l),
(618,849,o),
(631,818,o),
(636,778,cs),
(645,697,o),
(674,670,o),
(749,670,cs),
(804,670,o),
(845,703,o),
(845,750,cs),
(845,834,o),
(760,918,o),
(632,961,c),
(781,1374,l),
(716,1374,l),
(570,971,l),
(539,972,o),
(520,973,o),
(513,973,cs),
(426,973,o),
(347,951,o),
(276,908,cs),
(135,820,o),
(48,658,o),
(48,467,cs)
);
},
{
closed = 1;
nodes = (
(212,628,o),
(223,690,o),
(246,743,cs),
(291,849,o),
(375,909,o),
(486,909,cs),
(498,909,o),
(517,906,o),
(544,901,c),
(308,246,l),
(244,327,o),
(212,432,o),
(212,559,cs)
);
}
);
width = 897;
}
);
note = cent;
unicode = 162;
}
{
glyphname = sterling;
layers = (
{
layerId = "500BB636-1048-4D7F-B62E-A2796C57CEF4";
shapes = (
{
closed = 1;
nodes = (
(38,26,o),
(84,-25,o),
(155,-25,cs),
(225,-25,o),
(288,30,o),
(345,141,c),
(372,121,ls),
(425,80,o),
(469,50,o),
(502,30,cs),
(569,-10,o),
(614,-25,o),
(685,-25,cs),
(837,-25,o),
(945,102,o),
(982,319,c),
(945,319,l),
(929,209,o),
(860,154,o),
(738,154,cs),
(641,154,o),
(545,176,o),
(386,236,c),
(429,328,o),
(450,447,o),
(450,592,c),
(448,662,l),
(448,686,l),
(714,686,l),
(714,780,l),
(445,780,l),
(443,809,l),
(437,907,l),
(431,1044,l),
(431,1075,ls),
(431,1138,o),
(434,1185,o),
(441,1214,c),
(458,1314,o),
(528,1374,o),
(624,1374,cs),
(704,1374,o),
(743,1336,o),
(747,1255,cs),
(754,1171,o),
(776,1137,o),
(824,1137,cs),
(867,1137,o),
(902,1176,o),
(902,1225,cs),
(902,1263,o),
(891,1298,o),
(869,1329,cs),
(825,1392,o),
(743,1430,o),
(646,1430,cs),
(570,1430,o),
(503,1411,o),
(445,1374,cs),
(328,1298,o),
(261,1155,o),
(261,971,cs),
(261,926,l),
(271,801,l),
(271,780,l),
(71,780,l),
(71,686,l),
(275,686,l),
(278,655,l),
(282,592,l),
(290,475,l),
(294,350,l),
(292,270,l),
(292,256,l),
(264,264,o),
(238,268,o),
(214,268,cs),
(110,268,o),
(38,201,o),
(38,102,cs)
);
},
{
closed = 1;
nodes = (
(95,164,o),
(136,207,o),
(187,207,cs),
(211,207,o),
(240,197,o),
(273,178,c),
(248,83,o),
(210,35,o),
(159,35,cs),
(124,35,o),
(95,72,o),
(95,113,cs)
);
}
);
width = 1024;
}
);
note = sterling;
unicode = 163;
}
{
glyphname = currency;
layers = (
{
layerId = "500BB636-1048-4D7F-B62E-A2796C57CEF4";
shapes = (
{
closed = 1;
nodes = (
(83,199,l),
(228,342,l),
(283,282,o),
(408,238,o),
(521,238,cs),
(614,238,o),
(705,273,o),
(792,342,c),
(937,199,l),
(994,254,l),
(851,397,l),
(919,483,o),
(953,578,o),
(953,682,cs),
(953,783,o),
(919,876,o),
(851,963,c),
(994,1104,l),
(937,1161,l),
(792,1018,l),
(720,1082,o),
(614,1120,o),
(513,1120,cs),
(413,1120,o),
(295,1078,o),
(228,1018,c),
(83,1161,l),
(26,1104,l),
(169,963,l),
(102,880,o),
(69,786,o),
(69,680,cs),
(69,570,o),
(102,476,o),
(169,397,c),
(26,254,l)
);
},
{
closed = 1;
nodes = (
(149,743,o),
(165,804,o),
(198,859,cs),
(262,970,o),
(379,1040,o),
(511,1040,cs),
(576,1040,o),
(637,1024,o),
(692,992,cs),
(803,927,o),
(873,810,o),
(873,678,cs),
(873,614,o),
(857,554,o),
(824,499,cs),
(759,387,o),
(642,317,o),
(511,317,cs),
(446,317,o),
(385,333,o),
(330,366,cs),
(219,430,o),
(149,547,o),
(149,678,cs)
);
}
);
width = 1024;
}
);
note = currency;
unicode = 164;
}
{
glyphname = yen;
layers = (
{
layerId = "500BB636-1048-4D7F-B62E-A2796C57CEF4";
shapes = (
{
closed = 1;
nodes = (
(371,692,l),
(426,569,l),
(426,244,ls),
(426,171,o),
(425,143,o),
(417,114,cs),
(409,81,o),
(399,67,o),
(376,55,c),
(356,43,o),
(334,41,o),
(285,41,cs),
(252,41,l),
(252,0,l),
(768,0,l),
(768,41,l),
(727,41,ls),
(651,41,o),
(620,60,o),
(607,116,cs),
(600,145,o),
(596,188,o),
(596,244,cs),
(596,590,l),
(641,692,l),
(1022,692,l),
(1022,766,l),
(676,766,l),
(768,971,l),
(1022,971,l),
(1022,1044,l),
(797,1044,l),
(850,1163,ls),
(869,1205,o),
(886,1237,o),
(901,1259,cs),
(932,1302,o),
(962,1317,o),
(1018,1317,cs),
(1022,1317,l),
(1022,1356,l),
(676,1356,l),
(676,1317,l),
(684,1317,o),
(690,1317,o),
(693,1316,c),
(705,1315,ls),
(764,1311,o),
(788,1292,o),
(788,1255,cs),
(788,1241,o),
(781,1217,o),
(768,1182,c),
(711,1044,l),
(403,1044,l),
(340,1196,ls),
(328,1225,o),
(322,1244,o),
(322,1253,cs),
(322,1292,o),
(363,1313,o),
(444,1317,c),
(444,1356,l),
(2,1356,l),
(2,1317,l),
(30,1317,o),
(53,1313,o),
(71,1305,cs),
(107,1288,o),
(134,1250,o),
(166,1174,cs),
(221,1044,l),
(2,1044,l),
(2,971,l),
(252,971,l),
(340,766,l),
(2,766,l),
(2,692,l)
);
},
{
closed = 1;
nodes = (
(676,971,l),
(555,678,l),
(434,971,l)
);
}
);
width = 1024;
}
);
note = yen;
unicode = 165;
}
{
glyphname = brokenbar;
layers = (
{
layerId = "500BB636-1048-4D7F-B62E-A2796C57CEF4";
shapes = (
{
closed = 1;
nodes = (
(243,801,l),
(243,1423,l),
(161,1423,l),
(161,801,l)
);
},
{
closed = 1;
nodes = (
(161,-442,l),
(243,-442,l),
(243,180,l),
(161,180,l)
);
}
);
width = 405;
}
);
note = brokenbar;
unicode = 166;
}
{
glyphname = section;
layers = (
{
layerId = "500BB636-1048-4D7F-B62E-A2796C57CEF4";
shapes = (
{
closed = 1;
nodes = (
(36,393,o),
(109,283,o),
(284,152,cs),
(395,68,o),
(468,6,o),
(501,-35,cs),
(538,-80,o),
(556,-127,o),
(556,-178,cs),
(556,-209,o),
(548,-239,o),
(531,-266,cs),
(497,-321,o),
(435,-356,o),
(368,-356,cs),
(303,-356,o),
(251,-315,o),
(251,-262,cs),
(251,-252,o),
(253,-237,o),
(257,-217,cs),
(262,-192,o),
(265,-173,o),
(265,-160,cs),
(265,-111,o),
(235,-78,o),
(192,-78,cs),
(149,-78,o),
(114,-119,o),
(114,-172,cs),
(114,-210,o),
(126,-246,o),
(149,-281,cs),
(196,-350,o),
(279,-395,o),
(368,-395,cs),
(422,-395,o),
(471,-382,o),
(515,-357,cs),
(603,-306,o),
(656,-215,o),
(656,-106,cs),
(656,-11,o),
(614,77,o),
(531,158,c),
(672,238,o),
(753,365,o),
(753,506,cs),
(753,647,o),
(669,768,o),
(466,915,cs),
(408,957,o),
(363,994,o),
(331,1027,cs),
(266,1091,o),
(239,1145,o),
(239,1212,cs),
(239,1243,o),
(248,1273,o),
(265,1301,cs),
(300,1356,o),
(360,1391,o),
(427,1391,cs),
(492,1391,o),
(540,1351,o),
(540,1298,cs),
(540,1287,o),
(537,1270,o),
(531,1247,c),
(528,1228,o),
(527,1211,o),
(527,1196,cs),
(527,1149,o),
(558,1112,o),
(599,1112,cs),
(646,1112,o),
(679,1153,o),
(679,1206,cs),
(679,1246,o),
(668,1283,o),
(645,1317,cs),
(600,1385,o),
(514,1427,o),
(423,1427,cs),
(370,1427,o),
(321,1414,o),
(277,1389,cs),
(189,1338,o),
(134,1243,o),
(134,1139,cs),
(134,1050,o),
(176,962,o),
(259,877,c),
(115,794,o),
(36,668,o),
(36,524,cs)
);
},
{
closed = 1;
nodes = (
(134,718,o),
(178,779,o),
(294,846,c),
(327,817,o),
(370,782,o),
(423,741,cs),
(484,692,o),
(532,651,o),
(565,616,cs),
(632,547,o),
(658,491,o),
(658,418,cs),
(658,321,o),
(606,244,o),
(503,188,c),
(450,231,o),
(402,268,o),
(357,301,cs),
(196,424,o),
(134,512,o),
(134,621,cs)
);
}
);
width = 788;
}
);
note = section;
unicode = 167;
}
{
glyphname = dieresis;
layers = (
{
layerId = "500BB636-1048-4D7F-B62E-A2796C57CEF4";
shapes = (
{
closed = 1;
nodes = (
(108,1094,o),
(134,1083,o),
(165,1083,cs),
(224,1083,o),
(273,1133,o),
(273,1192,cs),
(273,1251,o),
(224,1300,o),
(165,1300,cs),
(104,1300,o),
(54,1251,o),
(54,1192,cs),
(54,1163,o),
(65,1137,o),
(87,1116,c)
);
},
{
closed = 1;
nodes = (
(462,1094,o),
(487,1083,o),
(517,1083,cs),
(576,1083,o),
(626,1133,o),
(626,1192,cs),
(626,1251,o),
(576,1300,o),
(517,1300,cs),
(458,1300,o),
(409,1251,o),
(409,1192,cs),
(409,1163,o),
(420,1137,o),
(441,1116,cs)
);
}
);
width = 681;
}
);
note = dieresis;
unicode = 168;
}
{
glyphname = copyright;
layers = (
{
layerId = "500BB636-1048-4D7F-B62E-A2796C57CEF4";
shapes = (
{
closed = 1;
nodes = (
(162,316,o),
(212,240,o),
(277,176,cs),
(405,47,o),
(585,-31,o),
(777,-31,cs),
(965,-31,o),
(1151,47,o),
(1280,176,cs),
(1411,307,o),
(1488,490,o),
(1488,678,cs),
(1488,865,o),
(1411,1048,o),
(1280,1179,cs),
(1151,1308,o),
(965,1386,o),
(777,1386,cs),
(589,1386,o),
(405,1310,o),
(276,1179,cs),
(145,1048,o),
(69,866,o),
(69,678,cs),
(69,583,o),
(88,492,o),
(125,403,cs)
);
},
{
closed = 1;
nodes = (
(333,1203,o),
(542,1325,o),
(777,1325,cs),
(932,1325,o),
(1078,1271,o),
(1195,1175,cs),
(1311,1078,o),
(1426,910,o),
(1426,678,cs),
(1426,561,o),
(1397,453,o),
(1340,354,cs),
(1224,154,o),
(1010,31,o),
(777,31,cs),
(622,31,o),
(476,86,o),
(360,183,cs),
(244,279,o),
(130,445,o),
(130,678,cs),
(130,796,o),
(159,904,o),
(217,1003,cs)
);
},
{
closed = 1;
nodes = (
(318,590,o),
(338,515,o),
(379,447,cs),
(460,311,o),
(609,227,o),
(781,227,cs),
(944,227,o),
(1072,295,o),
(1166,430,c),
(1127,451,l),
(1051,343,o),
(947,289,o),
(816,289,cs),
(604,289,o),
(484,437,o),
(484,700,cs),
(484,779,o),
(497,848,o),
(524,907,cs),
(576,1025,o),
(677,1090,o),
(806,1090,cs),
(961,1090,o),
(1062,1011,o),
(1109,854,c),
(1148,854,l),
(1127,1135,l),
(1089,1135,l),
(1074,1099,o),
(1064,1090,o),
(1039,1090,cs),
(1033,1090,o),
(1021,1093,o),
(1003,1098,c),
(904,1131,o),
(882,1135,o),
(818,1135,cs),
(725,1135,o),
(640,1115,o),
(564,1075,cs),
(412,995,o),
(318,845,o),
(318,672,cs)
);
}
);
width = 1556;
}
);
note = copyright;
unicode = 169;
}
{
glyphname = ordfeminine;
layers = (
{
layerId = "500BB636-1048-4D7F-B62E-A2796C57CEF4";
shapes = (
{
closed = 1;
nodes = (
(36,944,o),
(42,920,o),
(55,898,cs),
(80,854,o),
(128,825,o),
(179,825,cs),
(242,825,o),
(305,850,o),
(366,899,cs),
(382,911,l),
(384,899,ls),
(391,855,o),
(426,825,o),
(474,825,cs),
(525,825,o),
(578,857,o),
(632,922,c),
(632,981,l),
(609,958,l),
(580,925,o),
(556,909,o),
(536,909,cs),
(518,909,o),
(509,926,o),
(509,961,cs),
(509,1272,ls),
(509,1381,o),
(445,1430,o),
(300,1430,cs),
(256,1430,o),
(216,1424,o),
(179,1411,cs),
(106,1386,o),
(60,1337,o),
(60,1284,cs),
(60,1248,o),
(87,1225,o),
(128,1225,cs),
(168,1225,o),
(192,1246,o),
(192,1282,cs),
(192,1287,o),
(191,1292,o),
(189,1298,c),
(189,1317,ls),
(189,1364,o),
(225,1391,o),
(286,1391,cs),
(339,1391,o),
(364,1376,o),
(373,1335,c),
(378,1316,o),
(380,1284,o),
(380,1241,cs),
(380,1217,l),
(305,1193,o),
(245,1170,o),
(198,1148,cs),
(105,1104,o),
(36,1046,o),
(36,971,cs)
);
},
{
closed = 1;
nodes = (
(167,1034,o),
(181,1062,o),
(208,1083,cs),
(233,1103,o),
(291,1132,o),
(380,1169,c),
(376,958,ls),
(376,953,o),
(358,941,o),
(323,924,c),
(292,913,o),
(269,907,o),
(253,907,cs),
(205,907,o),
(167,949,o),
(167,1001,cs)
);
}
);
width = 641;
}
);
note = ordfeminine;
unicode = 170;
}
{
glyphname = guillemotleft;
layers = (
{
layerId = "500BB636-1048-4D7F-B62E-A2796C57CEF4";
shapes = (
{
closed = 1;
nodes = (
(452,37,l),
(511,37,l),
(263,518,l),
(511,991,l),
(452,991,l),
(62,518,l)
);
},
{
closed = 1;
nodes = (
(906,37,l),
(966,37,l),
(720,518,l),
(966,991,l),
(906,991,l),
(511,518,l)
);
}
);
width = 1024;
}
);
note = guillemotleft;
unicode = 171;
}
{
glyphname = logicalnot;
layers = (
{
layerId = "500BB636-1048-4D7F-B62E-A2796C57CEF4";
shapes = (
{
closed = 1;
nodes = (
(1127,856,l),
(1127,369,l),
(1220,369,l),
(1220,948,l),
(142,948,l),
(142,856,l)
);
}
);
width = 1366;
}
);
note = logicalnot;
unicode = 172;
}
{
glyphname = registered;
layers = (
{
layerId = "500BB636-1048-4D7F-B62E-A2796C57CEF4";
shapes = (
{
closed = 1;
nodes = (
(162,316,o),
(212,240,o),
(277,176,cs),
(405,47,o),
(585,-31,o),
(777,-31,cs),
(965,-31,o),
(1151,47,o),
(1280,176,cs),
(1411,307,o),
(1488,490,o),
(1488,678,cs),
(1488,865,o),
(1411,1048,o),
(1280,1179,cs),
(1151,1308,o),
(965,1386,o),
(777,1386,cs),
(589,1386,o),
(405,1310,o),
(276,1179,cs),
(145,1048,o),
(69,866,o),
(69,678,cs),
(69,583,o),
(88,492,o),
(125,403,cs)
);
},
{
closed = 1;
nodes = (
(333,1203,o),
(542,1325,o),
(777,1325,cs),
(932,1325,o),
(1078,1271,o),
(1195,1175,cs),
(1311,1078,o),
(1426,910,o),
(1426,678,cs),
(1426,561,o),
(1397,453,o),
(1340,354,cs),
(1224,154,o),
(1010,31,o),
(777,31,cs),
(622,31,o),
(476,86,o),
(360,183,cs),
(244,279,o),
(130,445,o),
(130,678,cs),
(130,796,o),
(159,904,o),
(217,1003,cs)
);
},
{
closed = 1;
nodes = (
(765,248,l),
(765,283,l),
(680,283,o),
(646,301,o),
(646,344,cs),
(646,653,l),
(722,653,l),
(1017,248,l),
(1199,248,l),
(1199,283,l),
(1151,286,o),
(1127,304,o),
(1080,371,cs),
(869,668,l),
(1021,707,o),
(1093,778,o),
(1093,891,cs),
(1093,934,o),
(1081,973,o),
(1056,1007,cs),
(1006,1075,o),
(915,1114,o),
(796,1114,cs),
(409,1114,l),
(409,1079,l),
(469,1078,o),
(488,1070,o),
(496,1035,c),
(499,1016,o),
(501,986,o),
(501,944,cs),
(501,420,ls),
(501,377,o),
(499,346,o),
(495,328,cs),
(486,292,o),
(465,283,o),
(398,283,c),
(398,248,l)
);
},
{
closed = 1;
nodes = (
(646,1055,l),
(677,1064,o),
(705,1069,o),
(730,1069,cs),
(768,1069,o),
(802,1061,o),
(833,1045,cs),
(894,1012,o),
(931,951,o),
(931,879,cs),
(931,763,o),
(838,696,o),
(677,696,cs),
(646,696,l)
);
}
);
width = 1556;
}
);
note = registered;
unicode = 174;
}
{
glyphname = macron;
layers = (
{
layerId = "500BB636-1048-4D7F-B62E-A2796C57CEF4";
shapes = (
{
closed = 1;
nodes = (
(658,1120,l),
(658,1249,l),
(22,1249,l),
(22,1120,l)
);
}
);
width = 681;
}
);
note = macron;
unicode = 175;
}
{
glyphname = degree;
layers = (
{
layerId = "500BB636-1048-4D7F-B62E-A2796C57CEF4";
shapes = (
{
closed = 1;
nodes = (
(247,802,o),
(320,772,o),
(405,772,cs),
(460,772,o),
(512,786,o),
(559,814,cs),
(653,869,o),
(712,970,o),
(712,1079,cs),
(712,1134,o),
(699,1186,o),
(672,1233,cs),
(618,1327,o),
(517,1386,o),
(405,1386,cs),
(350,1386,o),
(299,1372,o),
(252,1345,cs),
(158,1290,o),
(97,1191,o),
(97,1079,cs),
(97,994,o),
(127,922,o),
(187,862,cs)
);
},
{
closed = 1;
nodes = (
(291,1281,o),
(344,1303,o),
(405,1303,cs),
(444,1303,o),
(481,1293,o),
(516,1273,cs),
(585,1232,o),
(628,1160,o),
(628,1079,cs),
(628,1039,o),
(618,1002,o),
(598,968,cs),
(558,899,o),
(485,856,o),
(405,856,cs),
(365,856,o),
(328,866,o),
(294,886,cs),
(225,926,o),
(181,998,o),
(181,1079,cs),
(181,1140,o),
(203,1193,o),
(247,1237,cs)
);
}
);
width = 811;
}
);
note = degree;
unicode = 176;
}
{
glyphname = plusminus;
layers = (
{
layerId = "500BB636-1048-4D7F-B62E-A2796C57CEF4";
shapes = (
{
closed = 1;
nodes = (
(634,770,l),
(634,281,l),
(726,281,l),
(726,770,l),
(1220,770,l),
(1220,864,l),
(726,864,l),
(726,1356,l),
(634,1356,l),
(634,864,l),
(142,864,l),
(142,770,l)
);
},
{
closed = 1;
nodes = (
(1220,-37,l),
(1220,55,l),
(142,55,l),
(142,-37,l)
);
}
);
width = 1366;
}
);
note = plusminus;
unicode = 177;
}
{
glyphname = uni00B2;
layers = (
{
layerId = "500BB636-1048-4D7F-B62E-A2796C57CEF4";
shapes = (
{
closed = 1;
nodes = (
(519,686,l),
(585,834,l),
(538,834,l),
(509,789,o),
(481,776,o),
(413,776,cs),
(167,776,l),
(167,780,l),
(247,841,o),
(276,866,o),
(359,946,cs),
(482,1065,o),
(529,1145,o),
(529,1233,cs),
(529,1269,o),
(518,1302,o),
(497,1332,cs),
(454,1392,o),
(372,1430,o),
(284,1430,cs),
(151,1430,o),
(75,1364,o),
(40,1221,c),
(87,1221,l),
(122,1296,o),
(174,1333,o),
(243,1333,cs),
(273,1333,o),
(301,1327,o),
(326,1314,cs),
(377,1289,o),
(407,1241,o),
(407,1186,cs),
(407,1109,o),
(375,1044,o),
(292,956,cs),
(224,880,o),
(140,805,o),
(40,731,c),
(26,719,l),
(17,713,l),
(17,686,l)
);
}
);
width = 598;
}
);
note = uni00B2;
unicode = 178;
}
{
glyphname = uni00B3;
layers = (
{
layerId = "500BB636-1048-4D7F-B62E-A2796C57CEF4";
shapes = (
{
closed = 1;
nodes = (
(52,716,o),
(65,701,o),
(90,690,cs),
(113,679,o),
(147,674,o),
(192,674,cs),
(257,674,o),
(315,685,o),
(367,706,cs),
(471,749,o),
(534,831,o),
(534,924,cs),
(534,1013,o),
(482,1083,o),
(390,1118,c),
(459,1171,o),
(493,1223,o),
(493,1274,cs),
(493,1331,o),
(456,1382,o),
(396,1410,c),
(364,1423,o),
(330,1430,o),
(294,1430,cs),
(193,1430,o),
(112,1377,o),
(71,1282,c),
(69,1274,l),
(65,1268,l),
(103,1251,l),
(108,1255,l),
(141,1312,o),
(187,1341,o),
(245,1341,cs),
(321,1341,o),
(374,1294,o),
(374,1229,cs),
(374,1145,o),
(308,1088,o),
(185,1071,c),
(185,1040,l),
(208,1040,ls),
(340,1040,o),
(423,973,o),
(423,868,cs),
(423,788,o),
(366,729,o),
(290,729,cs),
(269,729,o),
(248,733,o),
(228,741,cs),
(169,766,ls),
(146,775,o),
(127,780,o),
(112,780,cs),
(80,780,o),
(52,759,o),
(52,735,cs)
);
}
);
width = 598;
}
);
note = uni00B3;
unicode = 179;
}
{
glyphname = acute;
layers = (
{
layerId = "500BB636-1048-4D7F-B62E-A2796C57CEF4";
shapes = (
{
closed = 1;
nodes = (
(269,1073,l),
(564,1419,l),
(341,1419,l),
(235,1073,l)
);
}
);
width = 681;
}
);
note = acute;
unicode = 180;
}
{
glyphname = paragraph;
layers = (
{
layerId = "500BB636-1048-4D7F-B62E-A2796C57CEF4";
shapes = (
{
closed = 1;
nodes = (
(-14,913,o),
(1,850,o),
(31,791,cs),
(99,667,o),
(218,611,o),
(438,602,c),
(465,602,l),
(465,-442,l),
(539,-442,l),
(539,1300,l),
(725,1300,l),
(725,-442,l),
(799,-442,l),
(799,1300,l),
(932,1300,l),
(932,1356,l),
(436,1356,ls),
(343,1356,o),
(262,1341,o),
(195,1311,cs),
(59,1251,o),
(-14,1135,o),
(-14,979,cs)
);
}
);
width = 917;
}
);
note = paragraph;
unicode = 182;
}
{
glyphname = periodcentered;
layers = (
{
layerId = "500BB636-1048-4D7F-B62E-A2796C57CEF4";
shapes = (
{
closed = 1;
nodes = (
(226,511,o),
(248,502,o),
(275,502,cs),
(328,502,o),
(372,545,o),
(372,598,cs),
(372,651,o),
(328,694,o),
(275,694,cs),
(222,694,o),
(179,651,o),
(179,598,cs),
(179,571,o),
(188,549,o),
(207,530,cs)
);
}
);
width = 555;
}
);
note = periodcentered;
unicode = 183;
}
{
glyphname = cedilla;
layers = (
{
layerId = "500BB636-1048-4D7F-B62E-A2796C57CEF4";
shapes = (
{
closed = 1;
nodes = (
(206,-351,o),
(246,-356,o),
(273,-356,cs),
(320,-356,o),
(363,-348,o),
(402,-331,cs),
(479,-298,o),
(527,-237,o),
(527,-164,cs),
(527,-91,o),
(487,-52,o),
(384,-25,c),
(224,-96,l),
(320,-106,o),
(368,-143,o),
(368,-207,cs),
(368,-268,o),
(310,-317,o),
(237,-317,cs),
(217,-317,o),
(192,-314,o),
(163,-307,c),
(155,-340,l)
);
}
);
width = 681;
}
);
note = cedilla;
unicode = 184;
}
{
glyphname = uni00B9;
layers = (
{
layerId = "500BB636-1048-4D7F-B62E-A2796C57CEF4";
shapes = (
{
closed = 1;
nodes = (
(122,1339,l),
(140,1311,l),
(171,1324,o),
(193,1331,o),
(206,1331,cs),
(219,1331,o),
(228,1325,o),
(233,1313,c),
(237,1300,o),
(239,1274,o),
(239,1233,cs),
(239,797,ls),
(239,774,o),
(237,758,o),
(232,747,c),
(223,725,o),
(202,717,o),
(151,717,cs),
(134,717,l),
(134,686,l),
(468,686,l),
(468,717,l),
(452,717,ls),
(428,717,o),
(410,719,o),
(399,724,c),
(375,733,o),
(366,756,o),
(366,799,cs),
(366,1430,l),
(327,1430,l)
);
}
);
width = 598;
}
);
note = uni00B9;
unicode = 185;
}
{
glyphname = ordmasculine;
layers = (
{
layerId = "500BB636-1048-4D7F-B62E-A2796C57CEF4";
shapes = (
{
closed = 1;
nodes = (
(42,1062,o),
(56,1014,o),
(83,970,cs),
(137,881,o),
(232,825,o),
(341,825,cs),
(396,825,o),
(449,840,o),
(499,869,cs),
(599,928,o),
(663,1034,o),
(663,1143,cs),
(663,1194,o),
(650,1242,o),
(623,1286,cs),
(569,1374,o),
(470,1430,o),
(361,1430,cs),
(306,1430,o),
(254,1416,o),
(205,1387,cs),
(107,1329,o),
(42,1223,o),
(42,1114,cs)
);
},
{
closed = 1;
nodes = (
(183,1292,o),
(242,1374,o),
(335,1374,cs),
(370,1374,o),
(402,1362,o),
(431,1338,cs),
(488,1289,o),
(523,1199,o),
(523,1096,cs),
(523,967,o),
(463,881,o),
(372,881,cs),
(337,881,o),
(305,893,o),
(276,918,cs),
(219,967,o),
(183,1057,o),
(183,1161,cs)
);
}
);
width = 704;
}
);
note = ordmasculine;
unicode = 186;
}
{
glyphname = guillemotright;
layers = (
{
layerId = "500BB636-1048-4D7F-B62E-A2796C57CEF4";
shapes = (
{
closed = 1;
nodes = (
(116,37,l),
(511,516,l),
(116,991,l),
(56,991,l),
(302,516,l),
(56,37,l)
);
},
{
closed = 1;
nodes = (
(568,37,l),
(960,516,l),
(568,991,l),
(511,991,l),
(759,516,l),
(511,37,l)
);
}
);
width = 1024;
}
);
note = guillemotright;
unicode = 187;
}
{
glyphname = onequarter;
layers = (
{
layerId = "500BB636-1048-4D7F-B62E-A2796C57CEF4";
shapes = (
{
closed = 1;
nodes = (
(396,-57,l),
(1375,1436,l),
(1287,1436,l),
(308,-57,l)
);
},
{
closed = 1;
nodes = (
(126,1339,l),
(144,1311,l),
(175,1324,o),
(196,1331,o),
(208,1331,cs),
(222,1331,o),
(232,1325,o),
(237,1313,c),
(241,1300,o),
(243,1274,o),
(243,1233,cs),
(243,797,ls),
(243,752,o),
(235,732,o),
(211,724,c),
(199,719,o),
(180,717,o),
(153,717,cs),
(138,717,l),
(138,686,l),
(470,686,l),
(470,717,l),
(454,717,ls),
(430,717,o),
(412,719,o),
(401,724,c),
(378,732,o),
(370,751,o),
(370,799,cs),
(370,1430,l),
(331,1430,l)
);
},
{
closed = 1;
nodes = (
(1433,182,l),
(1433,0,l),
(1558,0,l),
(1558,182,l),
(1670,182,l),
(1670,272,l),
(1558,272,l),
(1558,743,l),
(1476,743,l),
(1095,272,l),
(1095,182,l)
);
},
{
closed = 1;
nodes = (
(1429,592,l),
(1433,592,l),
(1433,272,l),
(1175,272,l)
);
}
);
width = 1685;
}
);
note = onequarter;
unicode = 188;
}
{
glyphname = onehalf;
layers = (
{
layerId = "500BB636-1048-4D7F-B62E-A2796C57CEF4";
shapes = (
{
closed = 1;
nodes = (
(396,-57,l),
(1375,1436,l),
(1287,1436,l),
(308,-57,l)
);
},
{
closed = 1;
nodes = (
(126,1339,l),
(144,1311,l),
(175,1324,o),
(196,1331,o),
(208,1331,cs),
(222,1331,o),
(232,1325,o),
(237,1313,c),
(241,1300,o),
(243,1274,o),
(243,1233,cs),
(243,797,ls),
(243,752,o),
(235,732,o),
(211,724,c),
(199,719,o),
(180,717,o),
(153,717,cs),
(138,717,l),
(138,686,l),
(470,686,l),
(470,717,l),
(454,717,ls),
(430,717,o),
(412,719,o),
(401,724,c),
(378,732,o),
(370,751,o),
(370,799,cs),
(370,1430,l),
(331,1430,l)
);
},
{
closed = 1;
nodes = (
(1603,0,l),
(1668,147,l),
(1621,147,l),
(1594,102,o),
(1567,90,o),
(1496,90,cs),
(1252,90,l),
(1252,94,l),
(1322,149,o),
(1387,206,o),
(1448,265,cs),
(1568,383,o),
(1615,459,o),
(1615,547,cs),
(1615,583,o),
(1604,616,o),
(1583,646,cs),
(1539,706,o),
(1457,743,o),
(1369,743,cs),
(1236,743,o),
(1160,678,o),
(1125,535,c),
(1170,535,l),
(1205,610,o),
(1257,647,o),
(1328,647,cs),
(1358,647,o),
(1385,641,o),
(1410,628,cs),
(1459,603,o),
(1490,555,o),
(1490,500,cs),
(1490,423,o),
(1458,357,o),
(1377,270,cs),
(1313,201,o),
(1229,126,o),
(1125,45,cs),
(1109,33,l),
(1103,27,l),
(1103,0,l)
);
}
);
width = 1685;
}
);
note = onehalf;
unicode = 189;
}
{
glyphname = threequarters;
layers = (
{
layerId = "500BB636-1048-4D7F-B62E-A2796C57CEF4";
shapes = (
{
closed = 1;
nodes = (
(396,-57,l),
(1375,1436,l),
(1287,1436,l),
(308,-57,l)
);
},
{
closed = 1;
nodes = (
(56,716,o),
(69,701,o),
(94,690,cs),
(117,679,o),
(151,674,o),
(196,674,cs),
(260,674,o),
(318,685,o),
(370,706,cs),
(474,749,o),
(536,829,o),
(536,924,cs),
(536,1013,o),
(484,1083,o),
(392,1118,c),
(462,1171,o),
(497,1223,o),
(497,1274,cs),
(497,1330,o),
(459,1382,o),
(399,1410,c),
(367,1423,o),
(333,1430,o),
(296,1430,cs),
(196,1430,o),
(116,1377,o),
(75,1282,c),
(71,1274,l),
(69,1268,l),
(108,1251,l),
(112,1255,l),
(147,1316,o),
(186,1341,o),
(249,1341,cs),
(325,1341,o),
(376,1296,o),
(376,1229,cs),
(376,1145,o),
(309,1088,o),
(189,1071,c),
(189,1040,l),
(210,1040,ls),
(342,1040,o),
(425,973,o),
(425,868,cs),
(425,788,o),
(369,729,o),
(292,729,cs),
(273,729,o),
(253,733,o),
(230,741,c),
(171,766,ls),
(148,775,o),
(130,780,o),
(116,780,cs),
(83,780,o),
(56,760,o),
(56,735,cs)
);
},
{
closed = 1;
nodes = (
(1433,182,l),
(1433,0,l),
(1558,0,l),
(1558,182,l),
(1670,182,l),
(1670,272,l),
(1558,272,l),
(1558,743,l),
(1476,743,l),
(1095,272,l),
(1095,182,l)
);
},
{
closed = 1;
nodes = (
(1429,592,l),
(1433,592,l),
(1433,272,l),
(1175,272,l)
);
}
);
width = 1685;
}
);
note = threequarters;
unicode = 190;
}
{
glyphname = questiondown;
layers = (
{
layerId = "500BB636-1048-4D7F-B62E-A2796C57CEF4";
shapes = (
{
closed = 1;
nodes = (
(335,849,o),
(361,838,o),
(392,838,cs),
(456,838,o),
(507,887,o),
(507,950,cs),
(507,1013,o),
(455,1063,o),
(392,1063,cs),
(331,1063,o),
(280,1013,o),
(280,950,cs),
(280,919,o),
(291,892,o),
(313,871,cs)
);
},
{
closed = 1;
nodes = (
(46,-138,o),
(61,-191,o),
(92,-240,cs),
(153,-338,o),
(264,-399,o),
(392,-399,cs),
(455,-399,o),
(514,-386,o),
(569,-359,cs),
(678,-307,o),
(747,-211,o),
(747,-102,cs),
(747,-51,o),
(722,1,o),
(686,30,c),
(667,44,o),
(647,51,o),
(628,51,cs),
(587,51,o),
(550,12,o),
(550,-33,cs),
(550,-48,o),
(555,-67,o),
(564,-90,c),
(601,-158,l),
(610,-179,o),
(615,-194,o),
(615,-203,cs),
(615,-225,o),
(607,-247,o),
(592,-268,cs),
(561,-311,o),
(503,-340,o),
(450,-340,cs),
(408,-340,o),
(371,-327,o),
(338,-302,cs),
(272,-251,o),
(232,-160,o),
(232,-45,cs),
(232,-2,o),
(234,33,o),
(239,60,cs),
(248,115,o),
(257,134,o),
(325,283,cs),
(343,322,ls),
(399,447,o),
(421,536,o),
(421,647,c),
(419,700,l),
(382,700,l),
(382,642,o),
(378,594,o),
(370,557,cs),
(353,482,o),
(317,420,o),
(226,311,cs),
(178,253,o),
(141,204,o),
(116,163,cs),
(65,81,o),
(46,13,o),
(46,-80,cs)
);
}
);
width = 788;
}
);
note = questiondown;
unicode = 191;
}
{
glyphname = Acircumflex;
layers = (
{
layerId = "500BB636-1048-4D7F-B62E-A2796C57CEF4";
shapes = (
{
closed = 1;
nodes = (
(509,1438,l),
(782,1774,l),
(1052,1438,l),
(1062,1438,l),
(928,1784,l),
(636,1784,l),
(499,1438,l)
);
},
{
closed = 1;
nodes = (
(1551,37,l),
(1543,37,ls),
(1509,37,o),
(1482,41,o),
(1461,50,cs),
(1419,67,o),
(1387,109,o),
(1355,186,cs),
(798,1468,l),
(759,1468,l),
(218,236,ls),
(196,185,o),
(177,146,o),
(160,120,cs),
(126,67,o),
(91,45,o),
(28,37,c),
(28,0,l),
(435,0,l),
(435,37,l),
(431,37,ls),
(333,37,o),
(284,68,o),
(284,131,cs),
(284,150,o),
(288,168,o),
(296,186,cs),
(421,473,l),
(988,473,l),
(989,474,o),
(993,477,o),
(998,482,c),
(1004,490,l),
(1010,497,l),
(1011,498,o),
(1013,497,o),
(1013,496,cs),
(1013,495,l),
(1020,500,l),
(1021,501,o),
(1023,499,o),
(1023,499,c),
(1022,498,o),
(1022,498,o),
(1022,498,c),
(1020,496,l),
(1016,493,l),
(1022,495,l),
(1028,497,l),
(1029,497,o),
(1029,497,o),
(1030,498,c),
(1030,498,o),
(1030,498,o),
(1031,497,c),
(1031,496,o),
(1031,495,o),
(1030,494,c),
(1018,489,l),
(1022,489,l),
(1024,488,l),
(1026,485,l),
(1027,484,o),
(1027,482,o),
(1026,481,c),
(1026,481,o),
(1024,480,o),
(1024,479,cs),
(1024,477,ls),
(1024,476,o),
(1024,475,o),
(1023,474,c),
(1021,473,o),
(1018,472,o),
(1014,472,c),
(1005,471,o),
(1000,469,o),
(997,466,cs),
(993,462,l),
(1095,231,l),
(1112,186,o),
(1121,155,o),
(1121,137,cs),
(1121,76,o),
(1066,37,o),
(978,37,cs),
(974,37,l),
(974,0,l),
(1551,0,l)
);
},
{
closed = 1;
nodes = (
(955,551,l),
(454,551,l),
(706,1122,l)
);
},
{
closed = 1;
nodes = (
(1016,485,l),
(1012,483,l),
(1011,481,l),
(1011,480,o),
(1011,479,o),
(1012,478,cs),
(1014,476,o),
(1017,476,o),
(1020,478,c),
(1022,479,l),
(1021,480,o),
(1021,481,o),
(1022,483,c),
(1021,485,l)
);
}
);
width = 1579;
}
);
note = Acircumflex;
unicode = 194;
}
{
glyphname = Atilde;
layers = (
{
layerId = "500BB636-1048-4D7F-B62E-A2796C57CEF4";
shapes = (
{
closed = 1;
nodes = (
(503,1504,o),
(505,1515,o),
(507,1520,c),
(520,1597,o),
(546,1628,o),
(595,1628,cs),
(608,1628,o),
(624,1624,o),
(642,1617,c),
(658,1610,o),
(685,1593,o),
(722,1567,cs),
(799,1514,o),
(864,1487,o),
(917,1487,cs),
(954,1487,o),
(988,1497,o),
(1017,1518,cs),
(1075,1559,o),
(1109,1638,o),
(1109,1731,cs),
(1109,1749,l),
(1078,1749,l),
(1059,1645,o),
(1035,1610,o),
(982,1610,cs),
(957,1610,o),
(914,1629,o),
(855,1667,cs),
(764,1730,o),
(715,1749,o),
(658,1749,cs),
(541,1749,o),
(474,1657,o),
(470,1489,c),
(501,1489,l)
);
},
{
closed = 1;
nodes = (
(435,0,l),
(435,37,l),
(431,37,ls),
(333,37,o),
(284,68,o),
(284,131,cs),
(284,150,o),
(288,168,o),
(296,186,cs),
(421,473,l),
(988,473,l),
(1095,231,l),
(1112,186,o),
(1121,155,o),
(1121,137,cs),
(1121,76,o),
(1066,37,o),
(978,37,cs),
(974,37,l),
(974,0,l),
(1551,0,l),
(1551,37,l),
(1543,37,ls),
(1509,37,o),
(1482,41,o),
(1461,50,cs),
(1419,67,o),
(1387,109,o),
(1355,186,cs),
(798,1468,l),
(759,1468,l),
(218,236,ls),
(196,185,o),
(177,146,o),
(160,120,cs),
(126,67,o),
(91,45,o),
(28,37,c),
(28,0,l)
);
},
{
closed = 1;
nodes = (
(706,1122,l),
(955,551,l),
(454,551,l)
);
}
);
width = 1579;
}
);
note = Atilde;
unicode = 195;
}
{
glyphname = Adieresis;
layers = (
{
layerId = "500BB636-1048-4D7F-B62E-A2796C57CEF4";
shapes = (
{
closed = 1;
nodes = (
(556,1524,o),
(582,1513,o),
(613,1513,cs),
(672,1513,o),
(722,1563,o),
(722,1622,cs),
(722,1681,o),
(672,1731,o),
(613,1731,cs),
(553,1731,o),
(503,1682,o),
(503,1622,cs),
(503,1593,o),
(514,1567,o),
(535,1546,cs)
);
},
{
closed = 1;
nodes = (
(911,1524,o),
(937,1513,o),
(966,1513,cs),
(1025,1513,o),
(1074,1563,o),
(1074,1622,cs),
(1074,1681,o),
(1025,1731,o),
(966,1731,cs),
(907,1731,o),
(857,1681,o),
(857,1622,cs),
(857,1593,o),
(868,1567,o),
(890,1546,c)
);
},
{
closed = 1;
nodes = (
(1551,37,l),
(1543,37,ls),
(1509,37,o),
(1482,41,o),
(1461,50,cs),
(1419,67,o),
(1387,109,o),
(1355,186,cs),
(798,1468,l),
(759,1468,l),
(218,236,ls),
(196,185,o),
(177,146,o),
(160,120,cs),
(126,67,o),
(91,45,o),
(28,37,c),
(28,0,l),
(435,0,l),
(435,37,l),
(431,37,ls),
(333,37,o),
(284,68,o),
(284,131,cs),
(284,150,o),
(288,168,o),
(296,186,cs),
(421,473,l),
(988,473,l),
(989,474,o),
(993,477,o),
(998,482,c),
(1004,490,l),
(1010,497,l),
(1011,498,o),
(1013,497,o),
(1013,496,cs),
(1013,495,l),
(1020,500,l),
(1021,501,o),
(1023,499,o),
(1023,499,c),
(1022,498,o),
(1022,498,o),
(1022,498,c),
(1020,496,l),
(1016,493,l),
(1022,495,l),
(1028,497,l),
(1029,497,o),
(1029,497,o),
(1030,498,c),
(1030,498,o),
(1030,498,o),
(1031,497,c),
(1031,496,o),
(1031,495,o),
(1030,494,c),
(1018,489,l),
(1022,489,l),
(1024,488,l),
(1026,485,l),
(1027,484,o),
(1027,482,o),
(1026,481,c),
(1026,481,o),
(1024,480,o),
(1024,479,cs),
(1024,477,ls),
(1024,476,o),
(1024,475,o),
(1023,474,c),
(1021,473,o),
(1018,472,o),
(1014,472,c),
(1005,471,o),
(1000,469,o),
(997,466,cs),
(993,462,l),
(1095,231,l),
(1112,186,o),
(1121,155,o),
(1121,137,cs),
(1121,76,o),
(1066,37,o),
(978,37,cs),
(974,37,l),
(974,0,l),
(1551,0,l)
);
},
{
closed = 1;
nodes = (
(955,551,l),
(454,551,l),
(706,1122,l)
);
},
{
closed = 1;
nodes = (
(1016,485,l),
(1012,483,l),
(1011,481,l),
(1011,480,o),
(1011,479,o),
(1012,478,cs),
(1014,476,o),
(1017,476,o),
(1020,478,c),
(1022,479,l),
(1021,480,o),
(1021,481,o),
(1022,483,c),
(1021,485,l)
);
}
);
width = 1579;
}
);
note = Adieresis;
unicode = 196;
}
{
glyphname = Aring;
layers = (
{
layerId = "500BB636-1048-4D7F-B62E-A2796C57CEF4";
shapes = (
{
closed = 1;
nodes = (
(597,1664,o),
(606,1633,o),
(623,1604,cs),
(658,1546,o),
(721,1507,o),
(790,1507,cs),
(824,1507,o),
(856,1516,o),
(885,1533,cs),
(943,1567,o),
(980,1630,o),
(980,1698,cs),
(980,1732,o),
(972,1764,o),
(955,1793,cs),
(921,1852,o),
(858,1890,o),
(790,1890,cs),
(755,1890,o),
(723,1882,o),
(694,1865,cs),
(636,1831,o),
(597,1767,o),
(597,1698,cs)
);
},
{
closed = 1;
nodes = (
(667,1767,o),
(722,1821,o),
(790,1821,cs),
(858,1821,o),
(910,1768,o),
(910,1700,cs),
(910,1632,o),
(858,1577,o),
(790,1577,cs),
(722,1577,o),
(667,1632,o),
(667,1700,cs)
);
},
{
closed = 1;
nodes = (
(435,0,l),
(435,37,l),
(431,37,ls),
(333,37,o),
(284,68,o),
(284,131,cs),
(284,150,o),
(288,168,o),
(296,186,cs),
(421,473,l),
(988,473,l),
(1095,231,l),
(1112,186,o),
(1121,155,o),
(1121,137,cs),
(1121,76,o),
(1066,37,o),
(978,37,cs),
(974,37,l),
(974,0,l),
(1551,0,l),
(1551,37,l),
(1543,37,ls),
(1509,37,o),
(1482,41,o),
(1461,50,cs),
(1419,67,o),
(1387,109,o),
(1355,186,cs),
(798,1468,l),
(759,1468,l),
(218,236,ls),
(196,185,o),
(177,146,o),
(160,120,cs),
(126,67,o),
(91,45,o),
(28,37,c),
(28,0,l)
);
},
{
closed = 1;
nodes = (
(706,1122,l),
(955,551,l),
(454,551,l)
);
}
);
width = 1579;
}
);
note = Aring;
unicode = 197;
}
{
glyphname = AE;
layers = (
{
layerId = "500BB636-1048-4D7F-B62E-A2796C57CEF4";
shapes = (
{
closed = 1;
nodes = (
(515,0,l),
(515,37,l),
(509,37,ls),
(408,37,o),
(357,71,o),
(357,139,cs),
(357,176,o),
(371,219,o),
(400,270,cs),
(552,549,l),
(943,549,l),
(943,215,ls),
(943,170,o),
(937,135,o),
(925,110,cs),
(901,59,o),
(848,38,o),
(753,37,c),
(753,0,l),
(1908,0,l),
(2004,354,l),
(1969,367,l),
(1902,179,o),
(1782,80,o),
(1619,80,cs),
(1277,80,ls),
(1244,81,o),
(1221,84,o),
(1206,89,cs),
(1176,99,o),
(1166,123,o),
(1166,180,cs),
(1166,698,l),
(1535,698,ls),
(1671,698,o),
(1727,639,o),
(1728,487,c),
(1764,487,l),
(1764,981,l),
(1728,981,l),
(1728,961,ls),
(1728,840,o),
(1664,780,o),
(1537,780,cs),
(1166,780,l),
(1166,1333,l),
(1553,1333,ls),
(1638,1333,o),
(1677,1325,o),
(1728,1294,cs),
(1789,1258,o),
(1813,1219,o),
(1838,1108,cs),
(1840,1100,l),
(1877,1100,l),
(1861,1407,l),
(650,1407,l),
(650,1368,l),
(771,1365,o),
(820,1339,o),
(820,1274,cs),
(820,1249,o),
(811,1219,o),
(792,1184,cs),
(775,1155,l),
(325,319,l),
(298,268,ls),
(214,115,o),
(141,52,o),
(32,37,c),
(32,0,l)
);
},
{
closed = 1;
nodes = (
(939,1276,l),
(943,1276,l),
(943,631,l),
(595,631,l)
);
}
);
width = 2048;
}
);
note = AE;
unicode = 198;
}
{
glyphname = Ccedilla;
layers = (
{
layerId = "500BB636-1048-4D7F-B62E-A2796C57CEF4";
shapes = (
{
closed = 1;
nodes = (
(85,559,o),
(115,444,o),
(175,338,cs),
(294,126,o),
(516,-12,o),
(771,-29,c),
(620,-96,l),
(715,-106,o),
(763,-143,o),
(763,-207,cs),
(763,-268,o),
(705,-317,o),
(632,-317,cs),
(612,-317,o),
(587,-314,o),
(558,-307,c),
(550,-340,l),
(601,-351,o),
(641,-356,o),
(669,-356,cs),
(716,-356,o),
(759,-348,o),
(798,-331,cs),
(875,-298,o),
(923,-237,o),
(923,-164,cs),
(923,-95,o),
(888,-58,o),
(800,-31,c),
(828,-31,ls),
(1090,-31,o),
(1289,84,o),
(1426,315,c),
(1396,336,l),
(1363,279,o),
(1346,259,o),
(1291,211,cs),
(1174,108,o),
(1045,57,o),
(902,57,cs),
(793,57,o),
(694,84,o),
(607,138,cs),
(432,246,o),
(345,427,o),
(345,680,cs),
(345,911,o),
(396,1085,o),
(499,1204,cs),
(587,1303,o),
(731,1366,o),
(871,1366,cs),
(998,1366,o),
(1134,1315,o),
(1222,1235,cs),
(1297,1164,o),
(1338,1083,o),
(1361,963,c),
(1396,963,l),
(1361,1440,l),
(1326,1440,l),
(1324,1432,l),
(1307,1375,o),
(1280,1346,o),
(1244,1346,cs),
(1234,1346,o),
(1216,1351,o),
(1191,1362,cs),
(1085,1413,o),
(972,1438,o),
(853,1438,cs),
(646,1438,o),
(446,1356,o),
(309,1219,cs),
(168,1080,o),
(85,887,o),
(85,684,cs)
);
}
);
width = 1472;
}
);
note = Ccedilla;
unicode = 199;
}
{
glyphname = Eacute;
layers = (
{
layerId = "500BB636-1048-4D7F-B62E-A2796C57CEF4";
shapes = (
{
closed = 1;
nodes = (
(528,1470,l),
(846,1816,l),
(622,1816,l),
(518,1470,l)
);
},
{
closed = 1;
nodes = (
(1320,350,l),
(1279,350,l),
(1271,336,l),
(1223,240,o),
(1216,229,o),
(1173,182,cs),
(1107,114,o),
(1027,80,o),
(933,80,cs),
(591,80,ls),
(562,80,o),
(540,86,o),
(526,97,c),
(523,95,l),
(518,91,o),
(514,88,o),
(512,86,c),
(506,78,l),
(500,71,l),
(499,70,o),
(497,71,o),
(497,72,cs),
(497,73,l),
(490,68,l),
(489,67,o),
(487,69,o),
(488,70,c),
(488,70,o),
(488,70,o),
(488,70,c),
(490,72,l),
(494,75,l),
(488,73,l),
(482,71,l),
(481,71,o),
(481,71,o),
(481,71,c),
(480,70,o),
(480,70,o),
(479,71,c),
(479,72,o),
(479,73,o),
(480,74,c),
(492,79,l),
(488,79,l),
(486,80,l),
(484,83,l),
(483,84,o),
(483,86,o),
(484,87,c),
(484,87,o),
(486,88,o),
(486,89,cs),
(486,91,ls),
(486,92,o),
(486,93,o),
(487,94,c),
(489,95,o),
(492,96,o),
(497,97,c),
(505,97,o),
(510,99,o),
(513,102,cs),
(517,106,l),
(504,123,o),
(497,152,o),
(497,193,cs),
(497,700,l),
(851,700,ls),
(899,700,o),
(937,693,o),
(964,680,cs),
(1019,653,o),
(1043,597,o),
(1043,496,cs),
(1043,492,l),
(1080,492,l),
(1080,987,l),
(1043,987,l),
(1043,979,ls),
(1043,844,o),
(986,782,o),
(859,782,cs),
(497,782,l),
(497,1325,l),
(925,1325,l),
(974,1323,ls),
(1075,1319,o),
(1150,1232,o),
(1170,1096,c),
(1205,1096,l),
(1189,1407,l),
(73,1407,l),
(73,1368,l),
(85,1368,ls),
(185,1365,o),
(234,1345,o),
(258,1297,c),
(269,1271,o),
(275,1236,o),
(275,1192,cs),
(275,215,ls),
(275,170,o),
(269,135,o),
(257,110,cs),
(233,59,o),
(180,38,o),
(85,37,cs),
(73,37,l),
(73,0,l),
(1205,0,l)
);
},
{
closed = 1;
nodes = (
(494,83,l),
(498,85,l),
(499,87,l),
(499,88,o),
(499,89,o),
(498,90,cs),
(496,92,o),
(493,92,o),
(490,90,c),
(488,89,l),
(489,88,o),
(489,87,o),
(488,85,c),
(489,83,l)
);
}
);
width = 1366;
}
);
note = Eacute;
unicode = 201;
}
{
glyphname = Eth;
layers = (
{
layerId = "500BB636-1048-4D7F-B62E-A2796C57CEF4";
shapes = (
{
closed = 1;
nodes = (
(65,0,l),
(718,-2,ls),
(1006,-2,o),
(1203,58,o),
(1360,189,cs),
(1516,317,o),
(1603,498,o),
(1603,702,cs),
(1603,861,o),
(1549,1013,o),
(1453,1137,cs),
(1357,1258,o),
(1233,1329,o),
(1145,1362,cs),
(1057,1394,o),
(968,1404,o),
(783,1407,cs),
(65,1407,l),
(65,1368,l),
(81,1368,ls),
(181,1365,o),
(230,1345,o),
(254,1297,c),
(265,1271,o),
(271,1236,o),
(271,1192,cs),
(271,819,l),
(105,819,l),
(105,682,l),
(271,682,l),
(271,215,ls),
(271,170,o),
(265,135,o),
(253,110,cs),
(229,59,o),
(176,38,o),
(81,37,cs),
(65,37,l)
);
},
{
closed = 1;
nodes = (
(790,682,l),
(790,819,l),
(493,819,l),
(493,1296,l),
(568,1319,o),
(645,1331,o),
(722,1331,cs),
(842,1331,o),
(949,1304,o),
(1044,1251,cs),
(1232,1143,o),
(1342,941,o),
(1342,692,cs),
(1342,568,o),
(1316,459,o),
(1265,366,cs),
(1162,179,o),
(965,72,o),
(712,72,cs),
(636,72,o),
(563,82,o),
(493,102,c),
(493,682,l)
);
}
);
width = 1685;
}
);
note = Eth;
unicode = 208;
}
{
glyphname = Ntilde;
layers = (
{
layerId = "500BB636-1048-4D7F-B62E-A2796C57CEF4";
shapes = (
{
closed = 1;
nodes = (
(556,1504,o),
(558,1515,o),
(560,1520,c),
(573,1597,o),
(599,1628,o),
(648,1628,cs),
(661,1628,o),
(677,1624,o),
(695,1617,c),
(711,1610,o),
(738,1593,o),
(775,1567,cs),
(852,1514,o),
(917,1487,o),
(970,1487,cs),
(1007,1487,o),
(1041,1497,o),
(1070,1518,cs),
(1128,1559,o),
(1162,1638,o),
(1162,1731,cs),
(1162,1749,l),
(1132,1749,l),
(1115,1648,o),
(1088,1610,o),
(1035,1610,cs),
(1010,1610,o),
(967,1629,o),
(908,1667,cs),
(812,1731,o),
(768,1749,o),
(712,1749,cs),
(595,1749,o),
(527,1657,o),
(523,1489,c),
(554,1489,l)
);
},
{
closed = 1;
nodes = (
(22,1368,l),
(28,1368,ls),
(160,1368,o),
(235,1325,o),
(308,1206,c),
(308,250,ls),
(307,151,o),
(299,111,o),
(268,79,cs),
(237,47,o),
(198,38,o),
(103,37,cs),
(95,37,l),
(95,0,l),
(603,0,l),
(603,37,l),
(595,37,l),
(554,39,ls),
(513,40,o),
(482,49,o),
(460,65,cs),
(416,96,o),
(398,160,o),
(398,281,cs),
(398,1116,l),
(1406,-16,l),
(1435,-16,l),
(1435,1171,ls),
(1435,1242,o),
(1437,1272,o),
(1445,1300,cs),
(1454,1332,o),
(1465,1345,o),
(1492,1356,c),
(1516,1367,o),
(1537,1368,o),
(1598,1368,cs),
(1654,1368,l),
(1654,1407,l),
(1138,1407,l),
(1138,1368,l),
(1191,1368,ls),
(1280,1368,o),
(1315,1350,o),
(1331,1294,c),
(1338,1263,o),
(1342,1218,o),
(1342,1159,cs),
(1342,369,l),
(431,1407,l),
(22,1407,l)
);
}
);
width = 1685;
}
);
note = Ntilde;
unicode = 209;
}
{
glyphname = Otilde;
layers = (
{
layerId = "500BB636-1048-4D7F-B62E-A2796C57CEF4";
shapes = (
{
closed = 1;
nodes = (
(503,1504,o),
(505,1515,o),
(507,1520,c),
(520,1597,o),
(546,1628,o),
(595,1628,cs),
(608,1628,o),
(624,1624,o),
(642,1617,c),
(658,1610,o),
(685,1593,o),
(722,1567,cs),
(799,1514,o),
(864,1487,o),
(917,1487,cs),
(954,1487,o),
(988,1497,o),
(1017,1518,cs),
(1075,1559,o),
(1109,1638,o),
(1109,1731,cs),
(1109,1749,l),
(1078,1749,l),
(1059,1645,o),
(1035,1610,o),
(982,1610,cs),
(957,1610,o),
(914,1629,o),
(855,1667,cs),
(764,1730,o),
(715,1749,o),
(658,1749,cs),
(541,1749,o),
(474,1657,o),
(470,1489,c),
(501,1489,l)
);
},
{
closed = 1;
nodes = (
(1123,1377,o),
(963,1438,o),
(792,1438,cs),
(601,1438,o),
(418,1359,o),
(287,1224,cs),
(156,1089,o),
(79,900,o),
(79,705,cs),
(79,512,o),
(158,319,o),
(290,186,cs),
(422,50,o),
(608,-31,o),
(796,-31,cs),
(1035,-31,o),
(1221,80,o),
(1342,232,cs),
(1449,363,o),
(1506,529,o),
(1506,705,cs),
(1506,949,o),
(1397,1143,o),
(1252,1268,cs)
);
},
{
closed = 1;
nodes = (
(1048,132,o),
(1056,128,o),
(1065,128,c),
(1069,127,o),
(1072,126,o),
(1074,125,c),
(1075,124,o),
(1075,123,o),
(1075,122,cs),
(1075,120,ls),
(1075,119,o),
(1077,118,o),
(1077,118,c),
(1078,117,o),
(1078,115,o),
(1077,114,c),
(1075,111,l),
(1073,110,l),
(1069,110,l),
(1081,105,l),
(1082,104,o),
(1082,103,o),
(1082,102,c),
(1081,101,o),
(1081,101,o),
(1081,102,c),
(1080,102,o),
(1080,102,o),
(1079,102,c),
(1073,104,l),
(1067,106,l),
(1071,103,l),
(1073,101,l),
(1073,101,o),
(1073,101,o),
(1074,100,c),
(1074,99,o),
(1073,98,o),
(1072,98,cs),
(1072,98,o),
(1072,98,o),
(1072,99,c),
(1072,99,o),
(1072,99,o),
(1071,99,c),
(1064,104,l),
(1064,103,ls),
(1064,102,o),
(1062,101,o),
(1061,102,c),
(1055,109,l),
(1049,117,l),
(1043,123,o),
(1039,126,o),
(1038,127,c),
(1036,128,l),
(967,74,o),
(887,47,o),
(794,47,cs),
(702,47,o),
(621,74,o),
(551,128,cs),
(410,236,o),
(331,440,o),
(331,707,cs),
(331,1108,o),
(507,1358,o),
(790,1358,cs),
(883,1358,o),
(965,1331,o),
(1035,1278,cs),
(1174,1171,o),
(1252,963,o),
(1252,698,cs),
(1252,445,o),
(1177,244,o),
(1045,135,c)
);
},
{
closed = 1;
nodes = (
(1072,114,l),
(1073,116,l),
(1072,118,o),
(1072,119,o),
(1073,120,c),
(1071,121,l),
(1068,123,o),
(1065,123,o),
(1063,121,cs),
(1062,120,o),
(1062,119,o),
(1062,118,c),
(1063,116,l),
(1067,114,l)
);
}
);
width = 1579;
}
);
note = Otilde;
unicode = 213;
}
{
glyphname = Odieresis;
layers = (
{
layerId = "500BB636-1048-4D7F-B62E-A2796C57CEF4";
shapes = (
{
closed = 1;
nodes = (
(556,1524,o),
(582,1513,o),
(613,1513,cs),
(672,1513,o),
(722,1563,o),
(722,1622,cs),
(722,1681,o),
(672,1731,o),
(613,1731,cs),
(553,1731,o),
(503,1682,o),
(503,1622,cs),
(503,1593,o),
(514,1567,o),
(535,1546,cs)
);
},
{
closed = 1;
nodes = (
(911,1524,o),
(937,1513,o),
(966,1513,cs),
(1025,1513,o),
(1074,1563,o),
(1074,1622,cs),
(1074,1681,o),
(1025,1731,o),
(966,1731,cs),
(907,1731,o),
(857,1681,o),
(857,1622,cs),
(857,1593,o),
(868,1567,o),
(890,1546,c)
);
},
{
closed = 1;
nodes = (
(1123,1377,o),
(963,1438,o),
(792,1438,cs),
(601,1438,o),
(418,1359,o),
(287,1224,cs),
(156,1089,o),
(79,900,o),
(79,705,cs),
(79,512,o),
(158,319,o),
(290,186,cs),
(422,50,o),
(608,-31,o),
(796,-31,cs),
(1035,-31,o),
(1221,80,o),
(1342,232,cs),
(1449,363,o),
(1506,529,o),
(1506,705,cs),
(1506,949,o),
(1397,1143,o),
(1252,1268,cs)
);
},
{
closed = 1;
nodes = (
(1048,132,o),
(1056,128,o),
(1065,128,c),
(1069,127,o),
(1072,126,o),
(1074,125,c),
(1075,124,o),
(1075,123,o),
(1075,122,cs),
(1075,120,ls),
(1075,119,o),
(1077,118,o),
(1077,118,c),
(1078,117,o),
(1078,115,o),
(1077,114,c),
(1075,111,l),
(1073,110,l),
(1069,110,l),
(1081,105,l),
(1082,104,o),
(1082,103,o),
(1082,102,c),
(1081,101,o),
(1081,101,o),
(1081,102,c),
(1080,102,o),
(1080,102,o),
(1079,102,c),
(1073,104,l),
(1067,106,l),
(1071,103,l),
(1073,101,l),
(1073,101,o),
(1073,101,o),
(1074,100,c),
(1074,99,o),
(1073,98,o),
(1072,98,cs),
(1072,98,o),
(1072,98,o),
(1072,99,c),
(1072,99,o),
(1072,99,o),
(1071,99,c),
(1064,104,l),
(1064,103,ls),
(1064,102,o),
(1062,101,o),
(1061,102,c),
(1055,109,l),
(1049,117,l),
(1043,123,o),
(1039,126,o),
(1038,127,c),
(1036,128,l),
(967,74,o),
(887,47,o),
(794,47,cs),
(702,47,o),
(621,74,o),
(551,128,cs),
(410,236,o),
(331,440,o),
(331,707,cs),
(331,1108,o),
(507,1358,o),
(790,1358,cs),
(883,1358,o),
(965,1331,o),
(1035,1278,cs),
(1174,1171,o),
(1252,963,o),
(1252,698,cs),
(1252,445,o),
(1177,244,o),
(1045,135,c)
);
},
{
closed = 1;
nodes = (
(1072,114,l),
(1073,116,l),
(1072,118,o),
(1072,119,o),
(1073,120,c),
(1071,121,l),
(1068,123,o),
(1065,123,o),
(1063,121,cs),
(1062,120,o),
(1062,119,o),
(1062,118,c),
(1063,116,l),
(1067,114,l)
);
}
);
width = 1579;
}
);
note = Odieresis;
unicode = 214;
}
{
glyphname = multiply;
layers = (
{
layerId = "500BB636-1048-4D7F-B62E-A2796C57CEF4";
shapes = (
{
closed = 1;
nodes = (
(261,170,l),
(683,590,l),
(1103,170,l),
(1168,236,l),
(749,655,l),
(1173,1079,l),
(1107,1145,l),
(683,721,l),
(259,1145,l),
(196,1079,l),
(617,655,l),
(196,236,l)
);
}
);
width = 1368;
}
);
note = multiply;
unicode = 215;
}
{
glyphname = Oslash;
layers = (
{
layerId = "500BB636-1048-4D7F-B62E-A2796C57CEF4";
shapes = (
{
closed = 1;
nodes = (
(103,-55,l),
(312,162,l),
(457,33,o),
(617,-31,o),
(794,-31,cs),
(1034,-31,o),
(1218,80,o),
(1341,232,cs),
(1448,363,o),
(1506,530,o),
(1506,707,cs),
(1506,890,o),
(1448,1043,o),
(1320,1198,c),
(1529,1407,l),
(1474,1466,l),
(1267,1251,l),
(1115,1380,o),
(968,1438,o),
(796,1438,cs),
(555,1438,o),
(367,1326,o),
(244,1177,cs),
(136,1045,o),
(77,879,o),
(77,700,cs),
(77,519,o),
(138,358,o),
(261,215,c),
(50,0,l)
);
},
{
closed = 1;
nodes = (
(331,841,o),
(350,957,o),
(387,1055,cs),
(461,1251,o),
(601,1358,o),
(796,1358,cs),
(925,1358,o),
(1046,1295,o),
(1121,1188,cs),
(1156,1135,l),
(392,348,l),
(351,457,o),
(331,577,o),
(331,707,cs)
);
},
{
closed = 1;
nodes = (
(1231,954,o),
(1252,832,o),
(1252,698,cs),
(1252,569,o),
(1233,455,o),
(1196,357,cs),
(1120,161,o),
(977,49,o),
(796,49,cs),
(638,49,o),
(514,125,o),
(425,276,c),
(1189,1065,l)
);
}
);
width = 1579;
}
);
note = Oslash;
unicode = 216;
}
{
glyphname = Ucircumflex;
layers = (
{
layerId = "500BB636-1048-4D7F-B62E-A2796C57CEF4";
shapes = (
{
closed = 1;
nodes = (
(654,1470,l),
(927,1806,l),
(1197,1470,l),
(1207,1470,l),
(1073,1816,l),
(781,1816,l),
(644,1470,l)
);
},
{
closed = 1;
nodes = (
(1644,1407,l),
(1391,1407,l),
(1383,1399,l),
(1372,1387,l),
(1366,1379,l),
(1360,1372,l),
(1359,1371,o),
(1357,1372,o),
(1357,1373,cs),
(1357,1374,l),
(1350,1369,l),
(1349,1368,o),
(1347,1370,o),
(1348,1371,c),
(1348,1371,o),
(1348,1371,o),
(1348,1371,c),
(1350,1373,l),
(1354,1376,l),
(1348,1374,l),
(1342,1372,l),
(1341,1372,o),
(1341,1372,o),
(1341,1372,c),
(1340,1371,o),
(1340,1371,o),
(1339,1372,c),
(1339,1373,o),
(1339,1374,o),
(1340,1375,c),
(1352,1380,l),
(1348,1380,l),
(1346,1381,l),
(1344,1384,l),
(1343,1385,o),
(1343,1387,o),
(1344,1388,c),
(1344,1388,o),
(1346,1389,o),
(1346,1390,cs),
(1346,1392,ls),
(1346,1393,o),
(1346,1394,o),
(1347,1395,c),
(1349,1396,o),
(1352,1397,o),
(1357,1398,c),
(1365,1398,o),
(1370,1400,o),
(1373,1403,cs),
(1377,1407,l),
(1129,1407,l),
(1129,1368,l),
(1148,1368,ls),
(1248,1365,o),
(1297,1345,o),
(1321,1297,c),
(1332,1271,o),
(1338,1236,o),
(1338,1192,cs),
(1338,563,ls),
(1338,423,o),
(1334,387,o),
(1310,311,cs),
(1259,142,o),
(1116,57,o),
(882,57,cs),
(715,57,o),
(593,125,o),
(534,250,cs),
(507,310,o),
(499,355,o),
(499,455,cs),
(499,1192,ls),
(499,1236,o),
(505,1271,o),
(516,1296,cs),
(539,1347,o),
(588,1367,o),
(681,1368,cs),
(691,1368,l),
(691,1407,l),
(65,1407,l),
(65,1368,l),
(87,1368,ls),
(136,1368,o),
(174,1363,o),
(201,1352,cs),
(255,1330,o),
(277,1280,o),
(278,1192,cs),
(278,518,ls),
(278,458,o),
(280,412,o),
(283,381,cs),
(289,317,o),
(302,276,o),
(339,209,cs),
(427,52,o),
(608,-31,o),
(863,-31,cs),
(1124,-31,o),
(1320,83,o),
(1392,279,cs),
(1413,334,o),
(1421,368,o),
(1424,427,cs),
(1425,456,o),
(1426,501,o),
(1426,561,cs),
(1426,1192,ls),
(1426,1238,o),
(1432,1274,o),
(1444,1299,cs),
(1468,1349,o),
(1517,1368,o),
(1617,1368,cs),
(1644,1368,l)
);
},
{
closed = 1;
nodes = (
(1354,1384,l),
(1358,1386,l),
(1359,1388,l),
(1359,1389,o),
(1359,1390,o),
(1358,1391,cs),
(1356,1393,o),
(1353,1393,o),
(1350,1391,c),
(1348,1390,l),
(1349,1389,o),
(1349,1388,o),
(1348,1386,c),
(1349,1384,l)
);
}
);
width = 1685;
}
);
note = Ucircumflex;
unicode = 219;
}
{
glyphname = Yacute;
layers = (
{
layerId = "500BB636-1048-4D7F-B62E-A2796C57CEF4";
shapes = (
{
closed = 1;
nodes = (
(718,1503,l),
(1013,1849,l),
(790,1849,l),
(683,1503,l)
);
},
{
closed = 1;
nodes = (
(22,1368,l),
(28,1368,ls),
(64,1368,o),
(93,1365,o),
(115,1358,cs),
(159,1344,o),
(191,1311,o),
(243,1235,cs),
(292,1161,l),
(677,590,l),
(677,215,ls),
(677,166,o),
(671,130,o),
(658,105,cs),
(633,56,o),
(579,37,o),
(460,37,c),
(460,0,l),
(1113,0,l),
(1113,37,l),
(1054,37,o),
(1010,42,o),
(979,53,cs),
(918,74,o),
(896,119,o),
(896,215,cs),
(896,604,l),
(1237,1133,ls),
(1275,1191,o),
(1306,1235,o),
(1331,1264,cs),
(1379,1322,o),
(1446,1370,o),
(1537,1370,c),
(1549,1368,l),
(1549,1407,l),
(1074,1407,l),
(1074,1368,l),
(1086,1368,ls),
(1129,1368,o),
(1163,1363,o),
(1188,1353,cs),
(1212,1343,o),
(1224,1329,o),
(1224,1311,cs),
(1224,1294,o),
(1218,1274,o),
(1205,1249,cs),
(1193,1226,o),
(1167,1182,o),
(1127,1118,cs),
(859,698,l),
(550,1163,ls),
(505,1232,o),
(482,1282,o),
(482,1313,cs),
(482,1351,o),
(529,1370,o),
(622,1370,c),
(644,1368,l),
(644,1407,l),
(22,1407,l)
);
}
);
width = 1579;
}
);
note = Yacute;
unicode = 221;
}
{
glyphname = Thorn;
layers = (
{
layerId = "500BB636-1048-4D7F-B62E-A2796C57CEF4";
shapes = (
{
closed = 1;
nodes = (
(683,0,l),
(683,37,l),
(624,38,o),
(581,44,o),
(552,55,cs),
(494,75,o),
(472,121,o),
(472,213,cs),
(472,360,l),
(577,329,o),
(668,313,o),
(744,313,cs),
(828,313,o),
(905,330,o),
(975,364,cs),
(1114,431,o),
(1199,553,o),
(1199,696,cs),
(1199,774,o),
(1173,847,o),
(1120,916,cs),
(1029,1035,o),
(867,1094,o),
(632,1094,cs),
(472,1094,l),
(472,1163,ls),
(473,1218,o),
(479,1261,o),
(490,1290,cs),
(511,1349,o),
(555,1370,o),
(646,1370,c),
(650,1368,l),
(673,1368,l),
(673,1407,l),
(50,1407,l),
(50,1368,l),
(60,1368,ls),
(110,1367,o),
(149,1362,o),
(176,1351,cs),
(230,1330,o),
(251,1281,o),
(251,1194,cs),
(251,213,ls),
(251,89,o),
(200,37,o),
(77,37,cs),
(50,37,l),
(50,0,l)
);
},
{
closed = 1;
nodes = (
(523,1006,o),
(568,1014,o),
(609,1014,cs),
(673,1014,o),
(731,1000,o),
(783,973,cs),
(886,918,o),
(947,817,o),
(947,694,cs),
(947,636,o),
(934,584,o),
(909,537,cs),
(858,444,o),
(762,389,o),
(646,389,cs),
(589,389,o),
(552,397,o),
(472,428,c),
(472,989,l)
);
}
);
width = 1236;
}
);
note = Thorn;
unicode = 222;
}
{
glyphname = germandbls;
layers = (
{
layerId = "500BB636-1048-4D7F-B62E-A2796C57CEF4";
shapes = (
{
closed = 1;
nodes = (
(497,0,l),
(497,37,l),
(420,45,o),
(390,67,o),
(378,124,c),
(371,151,o),
(368,196,o),
(368,258,cs),
(368,1081,ls),
(368,1200,o),
(373,1259,o),
(397,1304,cs),
(420,1349,o),
(480,1407,o),
(583,1407,cs),
(718,1407,o),
(798,1307,o),
(798,1135,cs),
(798,959,o),
(722,864,o),
(579,864,cs),
(564,864,l),
(564,805,l),
(628,804,o),
(684,785,o),
(733,748,cs),
(830,674,o),
(886,537,o),
(886,358,cs),
(886,297,o),
(879,243,o),
(865,196,cs),
(836,102,o),
(782,47,o),
(714,47,cs),
(681,47,o),
(658,65,o),
(658,92,c),
(660,101,l),
(661,109,l),
(667,125,l),
(670,134,o),
(671,143,o),
(671,154,cs),
(671,205,o),
(634,246,o),
(587,246,cs),
(538,246,o),
(503,207,o),
(503,150,cs),
(503,120,o),
(512,93,o),
(530,68,cs),
(565,19,o),
(626,-12,o),
(701,-12,cs),
(765,-12,o),
(825,9,o),
(880,51,cs),
(991,134,o),
(1060,286,o),
(1060,449,cs),
(1060,658,o),
(952,801,o),
(759,848,c),
(759,852,l),
(894,895,o),
(972,1000,o),
(972,1135,cs),
(972,1200,o),
(956,1258,o),
(923,1309,cs),
(858,1409,o),
(734,1468,o),
(583,1468,cs),
(435,1468,o),
(318,1412,o),
(255,1311,cs),
(239,1284,o),
(228,1261,o),
(221,1240,cs),
(207,1199,o),
(202,1153,o),
(202,1028,cs),
(202,223,ls),
(202,87,o),
(162,37,o),
(58,37,cs),
(50,37,l),
(50,0,l)
);
}
);
width = 1130;
}
);
note = germandbls;
unicode = 223;
}
{
glyphname = acircumflex;
layers = (
{
layerId = "500BB636-1048-4D7F-B62E-A2796C57CEF4";
shapes = (
{
closed = 1;
nodes = (
(202,1073,l),
(475,1409,l),
(745,1073,l),
(755,1073,l),
(621,1419,l),
(329,1419,l),
(192,1073,l)
);
},
{
closed = 1;
nodes = (
(898,81,o),
(857,81,cs),
(819,81,o),
(784,116,o),
(784,190,cs),
(784,668,ls),
(784,865,o),
(688,973,o),
(493,973,cs),
(444,973,o),
(389,961,o),
(328,937,cs),
(205,889,o),
(110,810,o),
(110,737,cs),
(110,684,o),
(145,647,o),
(198,647,cs),
(262,647,o),
(290,682,o),
(290,731,cs),
(290,768,o),
(272,790,o),
(272,813,cs),
(272,830,o),
(281,846,o),
(298,861,cs),
(339,896,o),
(389,912,o),
(437,912,cs),
(525,912,o),
(605,859,o),
(605,780,cs),
(605,682,o),
(481,625,o),
(334,539,cs),
(132,421,o),
(4,268,o),
(103,93,cs),
(145,20,o),
(222,-27,o),
(311,-27,cs),
(440,-27,o),
(541,41,o),
(613,176,c),
(621,199,l),
(625,206,l),
(625,207,o),
(628,207,o),
(628,206,c),
(634,211,l),
(636,213,o),
(637,211,o),
(637,211,c),
(637,210,l),
(635,207,l),
(632,204,l),
(643,211,l),
(646,211,l),
(645,209,l),
(634,201,l),
(640,201,l),
(644,199,l),
(645,198,o),
(644,196,o),
(644,196,cs),
(644,196,o),
(643,194,o),
(642,193,c),
(643,193,l),
(644,192,o),
(643,188,o),
(643,188,c),
(642,186,o),
(639,184,o),
(635,184,cs),
(623,184,o),
(619,178,o),
(619,167,c),
(627,33,o),
(704,-11,o),
(784,-11,cs),
(873,-11,o),
(967,47,o),
(975,194,c),
(952,194,l),
(942,120,o)
);
},
{
closed = 1;
nodes = (
(618,325,o),
(597,247,o),
(554,191,cs),
(511,134,o),
(449,106,o),
(388,106,cs),
(216,106,o),
(194,305,o),
(343,426,cs),
(410,482,o),
(469,521,o),
(618,608,c),
(618,424,ls)
);
},
{
closed = 1;
nodes = (
(634,196,l),
(630,193,l),
(630,191,ls),
(630,190,o),
(630,189,o),
(632,188,c),
(635,187,o),
(638,188,o),
(640,191,c),
(641,192,l),
(640,192,o),
(640,194,o),
(640,196,c),
(638,197,l)
);
}
);
width = 1024;
}
);
note = acircumflex;
unicode = 226;
}
{
glyphname = ae;
layers = (
{
layerId = "500BB636-1048-4D7F-B62E-A2796C57CEF4";
shapes = (
{
closed = 1;
nodes = (
(598,213,o),
(614,241,o),
(621,248,c),
(627,256,l),
(633,263,l),
(634,264,o),
(636,263,o),
(636,262,cs),
(636,261,l),
(643,266,l),
(644,267,o),
(646,265,o),
(646,265,c),
(645,264,o),
(645,264,o),
(645,264,c),
(643,262,l),
(639,259,l),
(645,261,l),
(651,263,l),
(652,263,o),
(652,263,o),
(653,264,c),
(653,264,o),
(653,264,o),
(654,263,c),
(654,262,o),
(654,261,o),
(653,260,c),
(641,255,l),
(645,255,l),
(647,254,l),
(649,251,l),
(650,250,o),
(650,248,o),
(649,247,c),
(649,247,o),
(647,246,o),
(647,245,cs),
(647,243,ls),
(647,242,o),
(647,241,o),
(646,240,c),
(644,239,o),
(641,238,o),
(637,238,c),
(628,237,o),
(623,235,o),
(620,232,cs),
(616,228,l),
(631,199,o),
(640,183,o),
(656,160,cs),
(732,56,o),
(846,-3,o),
(970,-3,cs),
(1150,-3,o),
(1336,120,o),
(1468,369,c),
(1448,385,l),
(1331,210,o),
(1196,130,o),
(1067,130,cs),
(966,130,o),
(871,181,o),
(803,266,cs),
(740,346,o),
(704,450,o),
(704,559,cs),
(704,592,l),
(1347,592,l),
(1347,667,o),
(1332,734,o),
(1302,792,cs),
(1242,907,o),
(1127,973,o),
(986,973,cs),
(871,973,o),
(772,930,o),
(699,853,c),
(646,925,o),
(567,960,o),
(451,960,cs),
(402,960,o),
(347,948,o),
(286,924,cs),
(163,876,o),
(68,797,o),
(68,724,cs),
(68,671,o),
(103,634,o),
(156,634,cs),
(220,634,o),
(248,669,o),
(248,718,cs),
(248,737,o),
(243,758,o),
(234,780,c),
(231,786,o),
(230,793,o),
(230,800,cs),
(230,817,o),
(239,833,o),
(256,848,cs),
(291,878,o),
(343,898,o),
(398,898,cs),
(515,898,o),
(576,825,o),
(576,702,cs),
(576,671,l),
(498,633,ls),
(398,584,o),
(329,548,o),
(292,526,cs),
(221,485,o),
(147,430,o),
(108,387,cs),
(60,334,o),
(29,264,o),
(29,200,cs),
(29,157,o),
(40,117,o),
(61,80,cs),
(103,7,o),
(181,-40,o),
(269,-40,cs),
(398,-40,o),
(499,28,o),
(571,163,cs)
);
},
{
closed = 1;
nodes = (
(856,889,o),
(892,899,o),
(931,899,cs),
(1038,899,o),
(1129,791,o),
(1129,718,cs),
(1129,682,o),
(1106,655,o),
(1051,655,c),
(709,655,l),
(718,751,o),
(760,828,o),
(824,869,cs)
);
},
{
closed = 1;
nodes = (
(200,310,o),
(237,361,o),
(301,413,cs),
(368,469,o),
(427,507,o),
(575,595,c),
(575,436,o),
(578,264,o),
(512,178,cs),
(411,45,o),
(186,72,o),
(186,228,cs),
(186,238,o),
(187,248,o),
(189,259,cs)
);
},
{
closed = 1;
nodes = (
(637,251,l),
(633,249,l),
(632,247,l),
(632,246,o),
(632,245,o),
(633,244,cs),
(635,242,o),
(638,242,o),
(641,244,c),
(643,245,l),
(642,246,o),
(642,247,o),
(643,249,c),
(642,251,l)
);
}
);
width = 1479;
}
);
note = ae;
unicode = 230;
}
{
glyphname = ccedilla;
layers = (
{
layerId = "500BB636-1048-4D7F-B62E-A2796C57CEF4";
shapes = (
{
closed = 1;
nodes = (
(48,370,o),
(66,286,o),
(102,211,cs),
(174,61,o),
(307,-29,o),
(470,-29,cs),
(484,-29,l),
(333,-96,l),
(428,-106,o),
(476,-143,o),
(476,-207,cs),
(476,-268,o),
(418,-317,o),
(345,-317,cs),
(325,-317,o),
(300,-314,o),
(271,-307,c),
(263,-340,l),
(314,-351,o),
(354,-356,o),
(382,-356,cs),
(429,-356,o),
(472,-348,o),
(511,-331,cs),
(588,-298,o),
(636,-236,o),
(636,-164,cs),
(636,-92,o),
(599,-54,o),
(503,-27,c),
(558,-22,o),
(611,-2,o),
(660,31,cs),
(758,97,o),
(833,210,o),
(869,354,c),
(835,369,l),
(790,221,o),
(684,137,o),
(540,137,cs),
(476,137,o),
(419,154,o),
(369,189,cs),
(269,258,o),
(212,392,o),
(212,557,cs),
(212,626,o),
(223,688,o),
(246,741,cs),
(290,847,o),
(375,909,o),
(480,909,cs),
(564,909,o),
(623,869,o),
(632,801,cs),
(640,741,ls),
(645,701,o),
(691,670,o),
(744,670,cs),
(801,670,o),
(843,705,o),
(843,752,cs),
(843,789,o),
(828,825,o),
(797,860,cs),
(736,928,o),
(628,973,o),
(515,973,cs),
(426,973,o),
(346,951,o),
(275,908,cs),
(133,821,o),
(48,660,o),
(48,463,cs)
);
}
);
width = 897;
}
);
note = ccedilla;
unicode = 231;
}
{
glyphname = ecircumflex;
layers = (
{
layerId = "500BB636-1048-4D7F-B62E-A2796C57CEF4";
shapes = (
{
closed = 1;
nodes = (
(202,1073,l),
(475,1409,l),
(745,1073,l),
(755,1073,l),
(621,1419,l),
(329,1419,l),
(192,1073,l)
);
},
{
closed = 1;
nodes = (
(823,210,o),
(688,130,o),
(559,130,cs),
(458,130,o),
(363,181,o),
(295,266,cs),
(232,346,o),
(196,450,o),
(196,559,cs),
(196,592,l),
(839,592,l),
(839,667,o),
(824,734,o),
(794,792,cs),
(734,907,o),
(619,973,o),
(478,973,cs),
(395,973,o),
(322,952,o),
(259,910,cs),
(131,825,o),
(56,663,o),
(56,463,cs),
(56,347,o),
(88,245,o),
(144,165,cs),
(219,58,o),
(335,-3,o),
(462,-3,cs),
(642,-3,o),
(828,120,o),
(960,369,c),
(940,385,l)
);
},
{
closed = 1;
nodes = (
(183,629,l),
(182,628,o),
(180,629,o),
(180,630,cs),
(180,631,l),
(173,626,l),
(172,625,o),
(170,627,o),
(171,628,cs),
(173,630,l),
(177,633,l),
(165,629,l),
(164,629,l),
(163,628,o),
(163,628,o),
(162,629,c),
(162,630,o),
(162,631,o),
(163,632,c),
(175,637,l),
(171,637,l),
(169,638,l),
(167,641,l),
(166,642,o),
(166,644,o),
(167,645,c),
(167,645,o),
(169,646,o),
(169,647,cs),
(169,649,ls),
(169,650,o),
(169,651,o),
(170,652,c),
(172,653,o),
(175,654,o),
(180,655,c),
(188,655,o),
(199,655,o),
(200,659,c),
(201,664,l),
(207,708,o),
(218,747,o),
(238,782,cs),
(278,857,o),
(344,899,o),
(423,899,cs),
(533,899,o),
(622,792,o),
(622,720,cs),
(622,683,o),
(598,655,o),
(543,655,cs),
(209,655,ls),
(204,655,o),
(200,651,o),
(195,644,cs),
(189,636,l)
);
},
{
closed = 1;
nodes = (
(171,647,l),
(172,646,o),
(172,645,o),
(171,643,c),
(172,641,l),
(177,641,l),
(181,643,l),
(182,645,l),
(182,646,o),
(182,647,o),
(181,648,cs),
(179,650,o),
(176,650,o),
(173,648,c)
);
}
);
width = 971;
}
);
note = ecircumflex;
unicode = 234;
}
{
glyphname = edieresis;
layers = (
{
layerId = "500BB636-1048-4D7F-B62E-A2796C57CEF4";
shapes = (
{
closed = 1;
nodes = (
(237,1147,o),
(261,1137,o),
(289,1137,cs),
(344,1137,o),
(388,1183,o),
(388,1236,cs),
(388,1289,o),
(342,1334,o),
(289,1334,cs),
(234,1334,o),
(189,1289,o),
(189,1236,cs),
(189,1209,o),
(199,1186,o),
(218,1167,cs)
);
},
{
closed = 1;
nodes = (
(560,1147,o),
(583,1137,o),
(610,1137,cs),
(663,1137,o),
(708,1181,o),
(708,1236,cs),
(708,1289,o),
(663,1334,o),
(610,1334,cs),
(557,1334,o),
(511,1289,o),
(511,1236,cs),
(511,1209,o),
(521,1186,o),
(541,1167,c)
);
},
{
closed = 1;
nodes = (
(823,210,o),
(688,130,o),
(559,130,cs),
(458,130,o),
(363,181,o),
(295,266,cs),
(232,346,o),
(196,450,o),
(196,559,cs),
(196,592,l),
(839,592,l),
(839,667,o),
(824,734,o),
(794,792,cs),
(734,907,o),
(619,973,o),
(478,973,cs),
(395,973,o),
(322,952,o),
(259,910,cs),
(131,825,o),
(56,663,o),
(56,463,cs),
(56,347,o),
(88,245,o),
(144,165,cs),
(219,58,o),
(335,-3,o),
(462,-3,cs),
(642,-3,o),
(828,120,o),
(960,369,c),
(940,385,l)
);
},
{
closed = 1;
nodes = (
(183,629,l),
(182,628,o),
(180,629,o),
(180,630,cs),
(180,631,l),
(173,626,l),
(172,625,o),
(170,627,o),
(171,628,cs),
(173,630,l),
(177,633,l),
(165,629,l),
(164,629,l),
(163,628,o),
(163,628,o),
(162,629,c),
(162,630,o),
(162,631,o),
(163,632,c),
(175,637,l),
(171,637,l),
(169,638,l),
(167,641,l),
(166,642,o),
(166,644,o),
(167,645,c),
(167,645,o),
(169,646,o),
(169,647,cs),
(169,649,ls),
(169,650,o),
(169,651,o),
(170,652,c),
(172,653,o),
(175,654,o),
(180,655,c),
(188,655,o),
(199,655,o),
(200,659,c),
(201,664,l),
(207,708,o),
(218,747,o),
(238,782,cs),
(278,857,o),
(344,899,o),
(423,899,cs),
(533,899,o),
(622,792,o),
(622,720,cs),
(622,683,o),
(598,655,o),
(543,655,cs),
(209,655,ls),
(204,655,o),
(200,651,o),
(195,644,cs),
(189,636,l)
);
},
{
closed = 1;
nodes = (
(171,647,l),
(172,646,o),
(172,645,o),
(171,643,c),
(172,641,l),
(177,641,l),
(181,643,l),
(182,645,l),
(182,646,o),
(182,647,o),
(181,648,cs),
(179,650,o),
(176,650,o),
(173,648,c)
);
}
);
width = 971;
}
);
note = edieresis;
unicode = 235;
}
{
glyphname = igrave;
layers = (
{
layerId = "500BB636-1048-4D7F-B62E-A2796C57CEF4";
shapes = (
{
closed = 1;
nodes = (
(357,1073,l),
(367,1073,l),
(263,1419,l),
(39,1419,l)
);
},
{
closed = 1;
nodes = (
(509,0,l),
(509,37,l),
(470,40,o),
(441,47,o),
(421,59,cs),
(381,82,o),
(366,128,o),
(366,227,cs),
(366,973,l),
(48,864,l),
(60,827,l),
(79,834,o),
(93,838,o),
(103,838,cs),
(128,838,o),
(148,833,o),
(163,823,cs),
(191,803,o),
(202,761,o),
(202,680,cs),
(202,227,ls),
(202,178,o),
(197,141,o),
(188,114,cs),
(169,60,o),
(127,37,o),
(50,37,cs),
(48,37,l),
(48,0,l)
);
}
);
width = 555;
}
);
note = igrave;
unicode = 236;
}
{
glyphname = icircumflex;
layers = (
{
layerId = "500BB636-1048-4D7F-B62E-A2796C57CEF4";
shapes = (
{
closed = 1;
nodes = (
(-3,1073,l),
(270,1409,l),
(540,1073,l),
(550,1073,l),
(416,1419,l),
(124,1419,l),
(-13,1073,l)
);
},
{
closed = 1;
nodes = (
(510,0,l),
(510,37,l),
(471,40,o),
(442,47,o),
(422,59,cs),
(382,82,o),
(367,128,o),
(367,227,cs),
(367,973,l),
(49,864,l),
(61,827,l),
(80,834,o),
(94,838,o),
(104,838,cs),
(129,838,o),
(149,833,o),
(164,823,cs),
(192,803,o),
(203,761,o),
(203,680,cs),
(203,227,ls),
(203,178,o),
(198,141,o),
(189,114,cs),
(170,60,o),
(128,37,o),
(51,37,cs),
(49,37,l),
(49,0,l)
);
}
);
width = 555;
}
);
note = icircumflex;
unicode = 238;
}
{
glyphname = idieresis;
layers = (
{
layerId = "500BB636-1048-4D7F-B62E-A2796C57CEF4";
shapes = (
{
closed = 1;
nodes = (
(66,1147,o),
(90,1137,o),
(118,1137,cs),
(173,1137,o),
(217,1183,o),
(217,1236,cs),
(217,1289,o),
(171,1334,o),
(118,1334,cs),
(63,1334,o),
(18,1289,o),
(18,1236,cs),
(18,1209,o),
(28,1186,o),
(47,1167,cs)
);
},
{
closed = 1;
nodes = (
(389,1147,o),
(412,1137,o),
(439,1137,cs),
(492,1137,o),
(537,1181,o),
(537,1236,cs),
(537,1289,o),
(492,1334,o),
(439,1334,cs),
(386,1334,o),
(340,1289,o),
(340,1236,cs),
(340,1209,o),
(350,1186,o),
(370,1167,c)
);
},
{
closed = 1;
nodes = (
(509,0,l),
(509,37,l),
(470,40,o),
(441,47,o),
(421,59,cs),
(381,82,o),
(366,128,o),
(366,227,cs),
(366,973,l),
(48,864,l),
(60,827,l),
(79,834,o),
(93,838,o),
(103,838,cs),
(128,838,o),
(148,833,o),
(163,823,cs),
(191,803,o),
(202,761,o),
(202,680,cs),
(202,227,ls),
(202,178,o),
(197,141,o),
(188,114,cs),
(169,60,o),
(127,37,o),
(50,37,cs),
(48,37,l),
(48,0,l)
);
}
);
width = 555;
}
);
note = idieresis;
unicode = 239;
}
{
glyphname = eth;
layers = (
{
layerId = "500BB636-1048-4D7F-B62E-A2796C57CEF4";
shapes = (
{
closed = 1;
nodes = (
(75,365,o),
(94,283,o),
(133,209,cs),
(209,61,o),
(350,-29,o),
(517,-29,cs),
(606,-29,o),
(686,-7,o),
(757,37,cs),
(899,125,o),
(982,293,o),
(982,489,cs),
(982,761,o),
(839,1041,o),
(587,1260,c),
(824,1395,l),
(787,1452,l),
(529,1309,l),
(421,1388,o),
(386,1411,o),
(275,1468,c),
(249,1423,l),
(334,1366,o),
(355,1348,o),
(443,1260,c),
(202,1124,l),
(232,1067,l),
(486,1206,l),
(517,1171,o),
(552,1126,o),
(589,1073,c),
(624,1018,o),
(654,962,o),
(681,907,c),
(677,903,l),
(614,951,o),
(577,965,o),
(509,965,cs),
(431,965,o),
(359,942,o),
(292,897,cs),
(158,805,o),
(75,639,o),
(75,455,cs)
);
},
{
closed = 1;
nodes = (
(265,774,o),
(347,903,o),
(499,903,cs),
(557,903,o),
(608,882,o),
(653,839,cs),
(741,754,o),
(792,592,o),
(792,389,cs),
(792,170,o),
(711,43,o),
(570,43,cs),
(511,43,o),
(458,64,o),
(412,106,cs),
(319,189,o),
(265,346,o),
(265,535,cs)
);
}
);
width = 1067;
}
);
note = eth;
unicode = 240;
}
{
glyphname = ntilde;
layers = (
{
layerId = "500BB636-1048-4D7F-B62E-A2796C57CEF4";
shapes = (
{
closed = 1;
nodes = (
(280,1074,o),
(282,1085,o),
(284,1090,c),
(297,1167,o),
(323,1198,o),
(372,1198,cs),
(385,1198,o),
(401,1194,o),
(419,1187,c),
(435,1180,o),
(462,1163,o),
(499,1137,cs),
(576,1084,o),
(641,1057,o),
(693,1057,cs),
(730,1057,o),
(764,1067,o),
(793,1088,cs),
(852,1129,o),
(886,1207,o),
(886,1300,cs),
(886,1319,l),
(855,1319,l),
(836,1215,o),
(812,1180,o),
(759,1180,cs),
(734,1180,o),
(691,1199,o),
(632,1237,cs),
(541,1300,o),
(492,1319,o),
(435,1319,cs),
(318,1319,o),
(251,1227,o),
(247,1059,c),
(278,1059,l)
);
},
{
closed = 1;
nodes = (
(36,860,l),
(50,821,l),
(79,832,o),
(100,838,o),
(114,838,cs),
(175,838,o),
(198,797,o),
(198,688,cs),
(198,227,ls),
(198,176,o),
(194,138,o),
(185,111,cs),
(168,58,o),
(129,38,o),
(50,37,c),
(50,0,l),
(521,0,l),
(521,37,l),
(479,38,o),
(447,44,o),
(426,55,cs),
(382,77,o),
(366,128,o),
(366,227,cs),
(366,715,l),
(451,811,o),
(524,852,o),
(607,852,cs),
(720,852,o),
(773,780,o),
(773,627,cs),
(773,223,ls),
(773,174,o),
(768,136,o),
(759,110,cs),
(740,57,o),
(698,37,o),
(617,37,cs),
(605,37,l),
(605,0,l),
(1084,0,l),
(1084,37,l),
(1045,38,o),
(1016,45,o),
(996,56,cs),
(956,79,o),
(941,126,o),
(941,223,cs),
(941,639,ls),
(941,852,o),
(849,973,o),
(689,973,cs),
(651,973,o),
(617,967,o),
(586,955,cs),
(524,931,o),
(458,876,o),
(366,772,c),
(366,973,l)
);
}
);
width = 1130;
}
);
note = ntilde;
unicode = 241;
}
{
glyphname = otilde;
layers = (
{
layerId = "500BB636-1048-4D7F-B62E-A2796C57CEF4";
shapes = (
{
closed = 1;
nodes = (
(280,1074,o),
(282,1085,o),
(284,1090,c),
(297,1167,o),
(323,1198,o),
(372,1198,cs),
(385,1198,o),
(401,1194,o),
(419,1187,c),
(435,1180,o),
(462,1163,o),
(499,1137,cs),
(576,1084,o),
(641,1057,o),
(693,1057,cs),
(730,1057,o),
(764,1067,o),
(793,1088,cs),
(852,1129,o),
(886,1207,o),
(886,1300,cs),
(886,1319,l),
(855,1319,l),
(836,1215,o),
(812,1180,o),
(759,1180,cs),
(734,1180,o),
(691,1199,o),
(632,1237,cs),
(541,1300,o),
(492,1319,o),
(435,1319,cs),
(318,1319,o),
(251,1227,o),
(247,1059,c),
(278,1059,l)
);
},
{
closed = 1;
nodes = (
(93,364,o),
(114,285,o),
(155,212,cs),
(237,64,o),
(388,-29,o),
(548,-29,cs),
(673,-29,o),
(801,30,o),
(893,129,cs),
(985,226,o),
(1041,365,o),
(1041,498,cs),
(1041,583,o),
(1021,663,o),
(980,736,cs),
(898,883,o),
(747,973,o),
(583,973,cs),
(497,973,o),
(416,949,o),
(341,902,cs),
(189,806,o),
(93,633,o),
(93,449,cs)
);
},
{
closed = 1;
nodes = (
(278,604,o),
(289,669,o),
(310,725,cs),
(352,837,o),
(432,901,o),
(536,901,cs),
(596,901,o),
(650,880,o),
(699,839,cs),
(796,756,o),
(855,601,o),
(855,418,cs),
(855,344,o),
(844,279,o),
(823,222,cs),
(780,108,o),
(699,43,o),
(595,43,cs),
(536,43,o),
(482,64,o),
(434,107,cs),
(338,192,o),
(278,351,o),
(278,530,cs)
);
}
);
width = 1130;
}
);
note = otilde;
unicode = 245;
}
{
glyphname = odieresis;
layers = (
{
layerId = "500BB636-1048-4D7F-B62E-A2796C57CEF4";
shapes = (
{
closed = 1;
nodes = (
(338,1147,o),
(362,1137,o),
(390,1137,cs),
(445,1137,o),
(489,1183,o),
(489,1236,cs),
(489,1289,o),
(443,1334,o),
(390,1334,cs),
(335,1334,o),
(290,1289,o),
(290,1236,cs),
(290,1209,o),
(300,1186,o),
(319,1167,cs)
);
},
{
closed = 1;
nodes = (
(661,1147,o),
(684,1137,o),
(711,1137,cs),
(764,1137,o),
(809,1181,o),
(809,1236,cs),
(809,1289,o),
(764,1334,o),
(711,1334,cs),
(658,1334,o),
(612,1289,o),
(612,1236,cs),
(612,1209,o),
(622,1186,o),
(642,1167,c)
);
},
{
closed = 1;
nodes = (
(93,364,o),
(114,285,o),
(155,212,cs),
(237,64,o),
(388,-29,o),
(548,-29,cs),
(673,-29,o),
(801,30,o),
(893,129,cs),
(985,226,o),
(1041,365,o),
(1041,498,cs),
(1041,583,o),
(1021,663,o),
(980,736,cs),
(898,883,o),
(747,973,o),
(583,973,cs),
(497,973,o),
(416,949,o),
(341,902,cs),
(189,806,o),
(93,633,o),
(93,449,cs)
);
},
{
closed = 1;
nodes = (
(278,604,o),
(289,669,o),
(310,725,cs),
(352,837,o),
(432,901,o),
(536,901,cs),
(596,901,o),
(650,880,o),
(699,839,cs),
(796,756,o),
(855,601,o),
(855,418,cs),
(855,344,o),
(844,279,o),
(823,222,cs),
(780,108,o),
(699,43,o),
(595,43,cs),
(536,43,o),
(482,64,o),
(434,107,cs),
(338,192,o),
(278,351,o),
(278,530,cs)
);
}
);
width = 1130;
}
);
note = odieresis;
unicode = 246;
}
{
glyphname = divide;
layers = (
{
layerId = "500BB636-1048-4D7F-B62E-A2796C57CEF4";
shapes = (
{
closed = 1;
nodes = (
(615,1036,o),
(644,1006,o),
(681,1006,cs),
(716,1006,o),
(744,1034,o),
(744,1071,cs),
(744,1106,o),
(716,1135,o),
(681,1135,cs),
(646,1135,o),
(618,1108,o),
(615,1075,c)
);
},
{
closed = 1;
nodes = (
(1222,610,l),
(1222,705,l),
(144,705,l),
(144,610,l)
);
},
{
closed = 1;
nodes = (
(615,213,o),
(644,184,o),
(681,184,cs),
(716,184,o),
(747,213,o),
(747,248,cs),
(747,284,o),
(717,313,o),
(681,313,cs),
(644,313,o),
(615,285,o),
(615,248,cs)
);
}
);
width = 1368;
}
);
note = divide;
unicode = 247;
}
{
glyphname = oslash;
layers = (
{
layerId = "500BB636-1048-4D7F-B62E-A2796C57CEF4";
shapes = (
{
closed = 1;
nodes = (
(105,-59,l),
(249,92,l),
(340,11,o),
(440,-29,o),
(550,-29,cs),
(675,-29,o),
(803,30,o),
(895,129,cs),
(986,230,o),
(1041,367,o),
(1041,500,cs),
(1041,615,o),
(1008,704,o),
(925,813,c),
(1068,965,l),
(1023,1008,l),
(882,856,l),
(782,937,o),
(691,973,o),
(583,973,cs),
(499,973,o),
(419,949,o),
(343,902,cs),
(191,806,o),
(93,632,o),
(93,455,cs),
(93,338,o),
(133,221,o),
(204,137,c),
(60,-18,l)
);
},
{
closed = 1;
nodes = (
(278,603,o),
(289,669,o),
(310,726,cs),
(352,838,o),
(432,901,o),
(536,901,cs),
(631,901,o),
(711,849,o),
(777,745,c),
(327,266,l),
(294,359,o),
(278,447,o),
(278,528,cs)
);
},
{
closed = 1;
nodes = (
(839,605,o),
(855,516,o),
(855,420,cs),
(855,347,o),
(844,282,o),
(823,225,cs),
(779,111,o),
(699,43,o),
(599,43,cs),
(498,43,o),
(410,101,o),
(355,205,c),
(806,686,l)
);
}
);
width = 1130;
}
);
note = oslash;
unicode = 248;
}
{
glyphname = udieresis;
layers = (
{
layerId = "500BB636-1048-4D7F-B62E-A2796C57CEF4";
shapes = (
{
closed = 1;
nodes = (
(291,1147,o),
(315,1137,o),
(343,1137,cs),
(398,1137,o),
(442,1183,o),
(442,1236,cs),
(442,1289,o),
(396,1334,o),
(343,1334,cs),
(288,1334,o),
(243,1289,o),
(243,1236,cs),
(243,1209,o),
(253,1186,o),
(272,1167,cs)
);
},
{
closed = 1;
nodes = (
(614,1147,o),
(637,1137,o),
(664,1137,cs),
(717,1137,o),
(762,1181,o),
(762,1236,cs),
(762,1289,o),
(717,1334,o),
(664,1334,cs),
(611,1334,o),
(565,1289,o),
(565,1236,cs),
(565,1209,o),
(575,1186,o),
(595,1167,c)
);
},
{
closed = 1;
nodes = (
(36,911,l),
(62,911,ls),
(100,911,o),
(130,907,o),
(151,898,cs),
(193,881,o),
(208,843,o),
(208,770,cs),
(208,240,l),
(212,145,o),
(246,59,o),
(321,11,c),
(360,-16,o),
(403,-29,o),
(450,-29,cs),
(554,-29,o),
(654,35,o),
(775,176,c),
(775,-25,l),
(814,-25,l),
(1103,86,l),
(1103,125,l),
(1072,114,o),
(1049,109,o),
(1035,109,cs),
(971,109,o),
(948,147,o),
(945,256,c),
(943,276,l),
(943,950,l),
(615,950,l),
(615,911,l),
(636,911,ls),
(672,911,o),
(700,907,o),
(720,898,cs),
(759,881,o),
(775,845,o),
(775,774,cs),
(775,227,l),
(694,144,o),
(612,102,o),
(531,102,cs),
(422,102,o),
(374,168,o),
(374,315,cs),
(374,950,l),
(36,950,l)
);
}
);
width = 1130;
}
);
note = udieresis;
unicode = 252;
}
{
glyphname = thorn;
layers = (
{
layerId = "500BB636-1048-4D7F-B62E-A2796C57CEF4";
shapes = (
{
closed = 1;
nodes = (
(544,-432,l),
(544,-393,l),
(495,-393,o),
(459,-388,o),
(435,-377,cs),
(387,-356,o),
(370,-308,o),
(370,-201,cs),
(370,59,l),
(431,0,o),
(506,-29,o),
(595,-29,cs),
(681,-29,o),
(761,-5,o),
(835,42,cs),
(982,137,o),
(1070,309,o),
(1070,504,cs),
(1070,588,o),
(1053,667,o),
(1020,740,cs),
(952,886,o),
(831,973,o),
(695,973,cs),
(604,973,o),
(509,926,o),
(437,846,c),
(419,828,o),
(398,798,o),
(374,756,c),
(370,756,l),
(370,1468,l),
(34,1356,l),
(50,1319,l),
(78,1327,o),
(99,1331,o),
(112,1331,cs),
(177,1331,o),
(201,1292,o),
(204,1188,cs),
(204,-203,ls),
(204,-257,o),
(199,-297,o),
(190,-323,cs),
(171,-375,o),
(130,-393,o),
(34,-393,c),
(34,-432,l)
);
},
{
closed = 1;
nodes = (
(444,782,o),
(524,827,o),
(609,827,cs),
(664,827,o),
(714,810,o),
(757,777,cs),
(843,710,o),
(892,585,o),
(892,430,cs),
(892,351,o),
(880,281,o),
(856,222,cs),
(808,102,o),
(718,35,o),
(601,35,cs),
(506,35,o),
(435,85,o),
(403,141,cs),
(378,186,o),
(370,239,o),
(370,340,cs),
(370,692,l)
);
}
);
width = 1130;
}
);
note = thorn;
unicode = 254;
}
{
glyphname = ydieresis;
layers = (
{
layerId = "500BB636-1048-4D7F-B62E-A2796C57CEF4";
shapes = (
{
closed = 1;
nodes = (
(348,1147,o),
(372,1137,o),
(400,1137,cs),
(455,1137,o),
(499,1183,o),
(499,1236,cs),
(499,1289,o),
(453,1334,o),
(400,1334,cs),
(345,1334,o),
(300,1289,o),
(300,1236,cs),
(300,1209,o),
(310,1186,o),
(329,1167,cs)
);
},
{
closed = 1;
nodes = (
(671,1147,o),
(694,1137,o),
(721,1137,cs),
(774,1137,o),
(819,1181,o),
(819,1236,cs),
(819,1289,o),
(774,1334,o),
(721,1334,cs),
(668,1334,o),
(622,1289,o),
(622,1236,cs),
(622,1209,o),
(632,1186,o),
(652,1167,c)
);
},
{
closed = 1;
nodes = (
(34,950,l),
(34,915,l),
(97,908,o),
(142,863,o),
(189,758,cs),
(519,20,l),
(486,-61,ls),
(435,-198,o),
(381,-266,o),
(323,-266,cs),
(309,-266,o),
(293,-262,o),
(275,-254,c),
(250,-245,l),
(231,-237,ls),
(226,-235,o),
(223,-234,o),
(222,-233,c),
(210,-229,o),
(196,-227,o),
(181,-227,cs),
(116,-227,o),
(73,-266,o),
(73,-326,cs),
(73,-391,o),
(130,-438,o),
(210,-438,cs),
(293,-438,o),
(374,-395,o),
(427,-326,cs),
(479,-256,o),
(523,-173,o),
(560,-76,c),
(577,-25,l),
(835,672,l),
(849,709,l),
(882,795,ls),
(913,874,o),
(943,907,o),
(990,915,c),
(990,950,l),
(720,950,l),
(720,915,l),
(729,914,o),
(735,913,o),
(738,913,c),
(791,909,o),
(814,891,o),
(814,854,cs),
(814,837,o),
(810,816,o),
(802,791,c),
(777,723,l),
(757,670,l),
(597,238,l),
(366,754,ls),
(352,788,o),
(345,816,o),
(345,838,cs),
(345,889,o),
(377,914,o),
(445,915,cs),
(458,915,l),
(458,950,l)
);
}
);
width = 1024;
}
);
note = ydieresis;
unicode = 255;
}
{
glyphname = OE;
layers = (
{
layerId = "500BB636-1048-4D7F-B62E-A2796C57CEF4";
shapes = (
{
closed = 1;
nodes = (
(19,561,o),
(47,437,o),
(104,330,cs),
(216,115,o),
(430,-10,o),
(693,-10,c),
(830,-4,ls),
(875,-1,o),
(919,0,o),
(961,0,cs),
(1840,0,l),
(1940,352,l),
(1905,365,l),
(1856,242,o),
(1804,176,o),
(1721,131,cs),
(1649,94,o),
(1580,82,o),
(1436,82,cs),
(1277,82,ls),
(1241,83,o),
(1215,86,o),
(1198,93,c),
(1182,98,o),
(1171,109,o),
(1166,125,cs),
(1161,141,o),
(1158,167,o),
(1158,203,cs),
(1158,700,l),
(1477,700,ls),
(1529,700,o),
(1569,694,o),
(1598,681,cs),
(1655,655,o),
(1677,600,o),
(1680,492,c),
(1717,492,l),
(1717,983,l),
(1680,983,l),
(1679,928,o),
(1671,887,o),
(1656,859,cs),
(1627,802,o),
(1567,780,o),
(1440,780,cs),
(1158,780,l),
(1158,1333,l),
(1483,1333,ls),
(1580,1333,o),
(1628,1323,o),
(1676,1290,cs),
(1737,1249,o),
(1768,1194,o),
(1784,1098,c),
(1821,1098,l),
(1811,1407,l),
(1016,1407,l),
(885,1411,l),
(760,1417,l),
(724,1417,ls),
(586,1417,o),
(464,1387,o),
(357,1328,cs),
(144,1208,o),
(19,981,o),
(19,700,cs)
);
},
{
closed = 1;
nodes = (
(273,861,o),
(300,1006,o),
(355,1116,cs),
(424,1256,o),
(558,1343,o),
(703,1343,cs),
(799,1343,o),
(879,1302,o),
(908,1239,cs),
(933,1186,o),
(937,1161,o),
(937,1034,cs),
(937,414,l),
(935,336,ls),
(935,273,o),
(929,225,o),
(916,190,cs),
(890,121,o),
(819,68,o),
(699,68,cs),
(612,68,o),
(537,93,o),
(473,143,cs),
(344,242,o),
(273,429,o),
(273,680,cs)
);
}
);
width = 1968;
}
);
note = OE;
unicode = 338;
}
{
glyphname = oe;
layers = (
{
layerId = "500BB636-1048-4D7F-B62E-A2796C57CEF4";
shapes = (
{
closed = 1;
nodes = (
(1512,210,o),
(1377,130,o),
(1248,130,cs),
(1147,130,o),
(1052,181,o),
(984,266,cs),
(921,346,o),
(885,450,o),
(885,559,cs),
(885,592,l),
(1528,592,l),
(1528,667,o),
(1513,734,o),
(1483,792,cs),
(1423,907,o),
(1308,973,o),
(1167,973,cs),
(1014,973,o),
(889,897,o),
(814,762,c),
(738,894,o),
(609,973,o),
(468,973,cs),
(390,973,o),
(317,949,o),
(248,901,cs),
(111,805,o),
(23,632,o),
(23,449,cs),
(23,364,o),
(42,284,o),
(79,211,cs),
(155,62,o),
(290,-29,o),
(437,-29,cs),
(550,-29,o),
(666,30,o),
(750,129,cs),
(768,150,o),
(786,176,o),
(805,206,c),
(805,210,l),
(815,192,o),
(824,177,o),
(833,165,cs),
(908,58,o),
(1024,-3,o),
(1151,-3,cs),
(1331,-3,o),
(1517,120,o),
(1649,369,c),
(1629,385,l)
);
},
{
closed = 1;
nodes = (
(647,107,o),
(574,43,o),
(479,43,cs),
(425,43,o),
(377,64,o),
(334,107,cs),
(246,192,o),
(191,351,o),
(191,530,cs),
(191,604,o),
(201,669,o),
(220,726,cs),
(260,838,o),
(331,901,o),
(426,901,cs),
(480,901,o),
(530,880,o),
(575,839,cs),
(663,755,o),
(716,601,o),
(716,418,cs),
(716,345,o),
(706,280,o),
(687,222,cs)
);
},
{
closed = 1;
nodes = (
(872,629,l),
(871,628,o),
(869,629,o),
(869,630,cs),
(869,631,l),
(862,626,l),
(861,625,o),
(859,627,o),
(860,628,cs),
(862,630,l),
(866,633,l),
(854,629,l),
(853,629,l),
(852,628,o),
(852,628,o),
(851,629,c),
(851,630,o),
(851,631,o),
(852,632,c),
(864,637,l),
(860,637,l),
(858,638,l),
(856,641,l),
(855,642,o),
(855,644,o),
(856,645,c),
(856,645,o),
(858,646,o),
(858,647,cs),
(858,649,ls),
(858,650,o),
(858,651,o),
(859,652,c),
(861,653,o),
(864,654,o),
(869,655,c),
(882,655,o),
(888,657,o),
(890,664,c),
(896,708,o),
(907,747,o),
(927,782,cs),
(967,857,o),
(1033,899,o),
(1112,899,cs),
(1235,899,o),
(1312,808,o),
(1317,655,c),
(898,655,ls),
(892,655,o),
(888,651,o),
(884,644,c),
(878,636,l)
);
},
{
closed = 1;
nodes = (
(860,647,l),
(861,646,o),
(861,645,o),
(860,643,c),
(861,641,l),
(866,641,l),
(870,643,l),
(871,645,l),
(871,646,o),
(871,647,o),
(870,648,cs),
(868,650,o),
(865,650,o),
(862,648,c)
);
}
);
width = 1660;
}
);
note = oe;
unicode = 339;
}
{
glyphname = Ydieresis;
layers = (
{
layerId = "500BB636-1048-4D7F-B62E-A2796C57CEF4";
shapes = (
{
closed = 1;
nodes = (
(556,1524,o),
(582,1513,o),
(613,1513,cs),
(672,1513,o),
(722,1563,o),
(722,1622,cs),
(722,1681,o),
(672,1731,o),
(613,1731,cs),
(553,1731,o),
(503,1682,o),
(503,1622,cs),
(503,1593,o),
(514,1567,o),
(535,1546,cs)
);
},
{
closed = 1;
nodes = (
(911,1524,o),
(937,1513,o),
(966,1513,cs),
(1025,1513,o),
(1074,1563,o),
(1074,1622,cs),
(1074,1681,o),
(1025,1731,o),
(966,1731,cs),
(907,1731,o),
(857,1681,o),
(857,1622,cs),
(857,1593,o),
(868,1567,o),
(890,1546,c)
);
},
{
closed = 1;
nodes = (
(22,1368,l),
(28,1368,ls),
(64,1368,o),
(93,1365,o),
(115,1358,cs),
(159,1344,o),
(191,1311,o),
(243,1235,cs),
(292,1161,l),
(677,590,l),
(677,215,ls),
(677,166,o),
(671,130,o),
(658,105,cs),
(633,56,o),
(579,37,o),
(460,37,c),
(460,0,l),
(1113,0,l),
(1113,37,l),
(1054,37,o),
(1010,42,o),
(979,53,cs),
(918,74,o),
(896,119,o),
(896,215,cs),
(896,604,l),
(1237,1133,ls),
(1275,1191,o),
(1306,1235,o),
(1331,1264,cs),
(1379,1322,o),
(1446,1370,o),
(1537,1370,c),
(1549,1368,l),
(1549,1407,l),
(1074,1407,l),
(1074,1368,l),
(1086,1368,ls),
(1129,1368,o),
(1163,1363,o),
(1188,1353,cs),
(1212,1343,o),
(1224,1329,o),
(1224,1311,cs),
(1224,1294,o),
(1218,1274,o),
(1205,1249,cs),
(1193,1226,o),
(1167,1182,o),
(1127,1118,cs),
(859,698,l),
(550,1163,ls),
(505,1232,o),
(482,1282,o),
(482,1313,cs),
(482,1351,o),
(529,1370,o),
(622,1370,c),
(644,1368,l),
(644,1407,l),
(22,1407,l)
);
}
);
width = 1579;
}
);
note = Ydieresis;
unicode = 376;
}
{
glyphname = uni0190;
layers = (
{
layerId = "500BB636-1048-4D7F-B62E-A2796C57CEF4";
shapes = (
{
closed = 1;
nodes = (
(872,142,o),
(730,60,o),
(591,60,cs),
(536,60,o),
(487,73,o),
(445,99,cs),
(360,151,o),
(311,250,o),
(311,365,cs),
(311,572,o),
(461,679,o),
(712,679,c),
(712,745,l),
(627,745,o),
(556,753,o),
(501,770,cs),
(389,802,o),
(310,880,o),
(310,1048,cs),
(310,1098,o),
(320,1142,o),
(341,1180,cs),
(381,1255,o),
(458,1298,o),
(559,1298,cs),
(742,1298,o),
(851,1196,o),
(888,991,c),
(923,991,l),
(923,1385,l),
(888,1385,l),
(877,1341,o),
(853,1319,o),
(814,1319,cs),
(801,1319,o),
(769,1328,o),
(720,1346,cs),
(643,1373,o),
(564,1387,o),
(483,1387,cs),
(415,1387,o),
(353,1373,o),
(296,1345,cs),
(183,1288,o),
(111,1181,o),
(111,1050,cs),
(111,891,o),
(217,767,o),
(392,711,c),
(332,700,o),
(279,678,o),
(232,645,cs),
(138,577,o),
(84,472,o),
(84,349,cs),
(84,274,o),
(104,207,o),
(145,149,cs),
(226,33,o),
(372,-31,o),
(537,-31,cs),
(728,-31,o),
(877,60,o),
(982,241,c),
(948,263,l)
);
}
);
width = 1026;
}
);
note = uni0190;
unicode = 400;
}
{
glyphname = uni0193;
layers = (
{
layerId = "500BB636-1048-4D7F-B62E-A2796C57CEF4";
shapes = (
{
closed = 1;
nodes = (
(1616,1534,o),
(1608,1562,o),
(1591,1587,cs),
(1557,1635,o),
(1497,1662,o),
(1426,1662,cs),
(1276,1662,o),
(1201,1553,o),
(1201,1335,cs),
(1201,1292,o),
(1188,1270,o),
(1163,1270,cs),
(1150,1270,o),
(1113,1285,o),
(1053,1315,cs),
(957,1363,o),
(865,1387,o),
(778,1387,cs),
(499,1387,o),
(292,1258,o),
(157,1000,cs),
(100,891,o),
(71,776,o),
(71,657,cs),
(71,536,o),
(99,424,o),
(156,321,cs),
(268,113,o),
(490,-31,o),
(821,-31,cs),
(990,-31,o),
(1148,9,o),
(1297,89,c),
(1297,504,ls),
(1297,557,o),
(1301,597,o),
(1308,625,cs),
(1322,680,o),
(1355,702,o),
(1424,702,cs),
(1449,702,l),
(1449,740,l),
(924,740,l),
(924,702,l),
(980,702,o),
(1018,697,o),
(1039,686,cs),
(1058,676,o),
(1072,664,o),
(1081,650,cs),
(1100,621,o),
(1102,585,o),
(1102,504,cs),
(1102,112,l),
(1014,62,o),
(921,37,o),
(822,37,cs),
(659,37,o),
(512,128,o),
(425,259,cs),
(344,380,o),
(301,537,o),
(301,700,cs),
(301,816,o),
(321,921,o),
(360,1014,cs),
(438,1200,o),
(589,1317,o),
(798,1317,cs),
(998,1317,o),
(1153,1185,o),
(1232,926,c),
(1263,926,l),
(1263,1327,ls),
(1263,1506,o),
(1302,1595,o),
(1379,1595,cs),
(1413,1595,o),
(1430,1580,o),
(1430,1551,cs),
(1430,1547,o),
(1427,1536,o),
(1422,1518,cs),
(1417,1500,o),
(1414,1487,o),
(1414,1479,cs),
(1414,1418,o),
(1446,1387,o),
(1509,1387,cs),
(1580,1387,o),
(1616,1426,o),
(1616,1503,cs)
);
}
);
width = 1479;
}
);
note = uni0193;
unicode = 403;
}
{
glyphname = uni0194;
layers = (
{
layerId = "500BB636-1048-4D7F-B62E-A2796C57CEF4";
shapes = (
{
closed = 1;
nodes = (
(1035,1356,l),
(1035,1319,l),
(1052,1316,ls),
(1137,1302,o),
(1179,1271,o),
(1179,1223,cs),
(1179,1194,o),
(1163,1141,o),
(1132,1062,cs),
(812,277,l),
(467,1072,ls),
(436,1141,o),
(421,1193,o),
(421,1228,cs),
(421,1280,o),
(471,1310,o),
(571,1319,c),
(571,1356,l),
(17,1356,l),
(17,1319,l),
(62,1315,o),
(98,1307,o),
(123,1295,cs),
(174,1270,o),
(189,1235,o),
(232,1138,cs),
(712,30,l),
(624,-190,l),
(615,-215,o),
(610,-240,o),
(610,-265,cs),
(610,-372,o),
(674,-443,o),
(783,-443,cs),
(936,-443,o),
(1012,-372,o),
(1012,-230,cs),
(1012,-180,o),
(998,-125,o),
(971,-64,cs),
(862,168,l),
(1250,1123,ls),
(1268,1168,o),
(1287,1204,o),
(1306,1231,cs),
(1344,1283,o),
(1389,1307,o),
(1453,1319,c),
(1453,1356,l)
);
},
{
closed = 1;
nodes = (
(828,-207,ls),
(838,-229,o),
(843,-251,o),
(843,-274,cs),
(843,-333,o),
(820,-362,o),
(773,-362,cs),
(720,-362,o),
(694,-332,o),
(694,-273,cs),
(694,-254,o),
(699,-232,o),
(708,-207,cs),
(764,-63,l)
);
}
);
width = 1479;
}
);
note = uni0194;
unicode = 404;
}
{
glyphname = uni019D;
layers = (
{
layerId = "500BB636-1048-4D7F-B62E-A2796C57CEF4";
shapes = (
{
closed = 1;
nodes = (
(1450,1356,l),
(978,1356,l),
(978,1319,l),
(1025,1319,ls),
(1102,1319,o),
(1137,1302,o),
(1156,1247,c),
(1165,1217,o),
(1170,1175,o),
(1170,1121,cs),
(1170,339,l),
(341,1356,l),
(-27,1356,l),
(-27,1319,l),
(45,1319,o),
(89,1305,o),
(130,1282,cs),
(162,1263,o),
(184,1243,o),
(240,1178,c),
(240,-95,ls),
(240,-267,o),
(206,-353,o),
(138,-353,cs),
(118,-353,o),
(90,-337,o),
(53,-304,cs),
(16,-272,o),
(-19,-256,o),
(-52,-256,cs),
(-96,-256,o),
(-134,-296,o),
(-134,-341,cs),
(-134,-408,o),
(-71,-442,o),
(55,-442,cs),
(332,-442,o),
(328,-238,o),
(328,-95,cs),
(328,1070,l),
(1222,-22,l),
(1258,-22,l),
(1258,1121,ls),
(1258,1174,o),
(1262,1215,o),
(1271,1242,c),
(1287,1297,o),
(1326,1319,o),
(1402,1319,cs),
(1450,1319,l)
);
}
);
width = 1479;
}
);
note = uni019D;
unicode = 413;
}
{
glyphname = uni01BD;
layers = (
{
layerId = "500BB636-1048-4D7F-B62E-A2796C57CEF4";
shapes = (
{
closed = 1;
nodes = (
(836,360,o),
(814,423,o),
(770,476,cs),
(682,580,o),
(510,639,o),
(282,644,c),
(282,763,l),
(565,763,ls),
(621,763,o),
(662,760,o),
(687,753,cs),
(738,739,o),
(761,704,o),
(792,601,c),
(836,601,l),
(802,916,l),
(51,916,l),
(51,879,l),
(77,879,ls),
(156,879,o),
(187,857,o),
(196,805,cs),
(200,779,o),
(202,737,o),
(202,679,cs),
(202,479,l),
(548,479,o),
(721,402,o),
(721,248,cs),
(721,128,o),
(628,55,o),
(472,55,cs),
(414,55,o),
(359,76,o),
(307,118,cs),
(254,159,o),
(214,180,o),
(188,180,cs),
(144,180,o),
(107,149,o),
(107,109,cs),
(107,25,o),
(219,-24,o),
(360,-24,cs),
(468,-24,o),
(557,-14,o),
(626,7,cs),
(764,47,o),
(836,135,o),
(836,287,cs)
);
}
);
width = 908;
}
);
note = uni01BD;
unicode = 445;
}
{
glyphname = uni0293;
layers = (
{
layerId = "500BB636-1048-4D7F-B62E-A2796C57CEF4";
shapes = (
{
closed = 1;
nodes = (
(838,916,l),
(70,916,l),
(64,662,l),
(104,662,l),
(107,711,o),
(117,753,o),
(135,786,cs),
(145,805,o),
(157,818,o),
(171,827,cs),
(198,844,o),
(228,846,o),
(311,846,cs),
(621,846,l),
(261,386,l),
(261,350,l),
(346,350,o),
(418,338,o),
(476,314,cs),
(592,265,o),
(643,176,o),
(643,73,cs),
(643,8,o),
(629,-53,o),
(601,-111,c),
(518,-33,o),
(421,6,o),
(309,6,cs),
(142,6,o),
(59,-52,o),
(59,-167,cs),
(59,-214,o),
(74,-259,o),
(105,-300,cs),
(165,-383,o),
(282,-438,o),
(417,-438,cs),
(522,-438,o),
(609,-399,o),
(679,-320,c),
(706,-377,o),
(722,-417,o),
(729,-438,c),
(769,-410,l),
(752,-349,o),
(734,-303,o),
(715,-273,c),
(774,-182,o),
(804,-85,o),
(804,16,cs),
(804,87,o),
(790,151,o),
(762,206,cs),
(705,316,o),
(597,384,o),
(470,405,c),
(838,879,l)
);
},
{
closed = 1;
nodes = (
(517,-243,o),
(442,-282,o),
(345,-282,cs),
(275,-282,o),
(221,-269,o),
(184,-244,cs),
(152,-222,o),
(136,-195,o),
(136,-164,cs),
(136,-93,o),
(194,-57,o),
(309,-57,cs),
(406,-57,o),
(493,-93,o),
(570,-165,c)
);
}
);
width = 909;
}
);
note = uni0293;
unicode = 659;
}
{
glyphname = circumflex;
layers = (
{
layerId = "500BB636-1048-4D7F-B62E-A2796C57CEF4";
shapes = (
{
closed = 1;
nodes = (
(89,1065,l),
(318,1278,l),
(591,1065,l),
(622,1065,l),
(431,1397,l),
(247,1397,l),
(58,1065,l)
);
}
);
width = 681;
}
);
note = circumflex;
unicode = 710;
}
{
glyphname = tilde;
layers = (
{
layerId = "500BB636-1048-4D7F-B62E-A2796C57CEF4";
shapes = (
{
closed = 1;
nodes = (
(54,1074,o),
(56,1085,o),
(58,1090,c),
(71,1167,o),
(97,1198,o),
(146,1198,cs),
(159,1198,o),
(175,1194,o),
(193,1187,c),
(209,1180,o),
(236,1163,o),
(273,1137,cs),
(350,1084,o),
(415,1057,o),
(468,1057,cs),
(505,1057,o),
(539,1067,o),
(568,1088,cs),
(627,1129,o),
(661,1207,o),
(661,1300,cs),
(661,1319,l),
(630,1319,l),
(611,1215,o),
(587,1180,o),
(534,1180,cs),
(509,1180,o),
(466,1199,o),
(407,1237,cs),
(316,1300,o),
(267,1319,o),
(210,1319,cs),
(93,1319,o),
(26,1227,o),
(22,1059,c),
(52,1059,l)
);
}
);
width = 681;
}
);
note = tilde;
unicode = 732;
}
{
glyphname = uni0466;
layers = (
{
layerId = "500BB636-1048-4D7F-B62E-A2796C57CEF4";
shapes = (
{
closed = 1;
nodes = (
(1453,0,l),
(1453,37,l),
(1407,41,o),
(1372,49,o),
(1347,61,cs),
(1297,85,o),
(1279,121,o),
(1238,218,cs),
(730,1387,l),
(693,1387,l),
(220,233,ls),
(202,188,o),
(184,152,o),
(165,126,cs),
(128,73,o),
(84,49,o),
(17,37,c),
(17,0,l),
(375,0,l),
(375,37,l),
(319,47,o),
(291,79,o),
(291,133,cs),
(291,162,o),
(307,215,o),
(338,294,cs),
(463,600,l),
(494,584,o),
(518,566,o),
(535,545,cs),
(569,504,o),
(580,451,o),
(580,351,cs),
(580,215,ls),
(580,151,o),
(579,110,o),
(576,91,cs),
(569,48,o),
(549,37,o),
(473,37,c),
(473,0,l),
(853,0,l),
(853,37,l),
(827,37,o),
(807,39,o),
(794,42,cs),
(766,49,o),
(755,62,o),
(751,91,cs),
(748,114,o),
(746,156,o),
(746,215,cs),
(746,351,ls),
(746,400,o),
(749,440,o),
(756,470,cs),
(768,530,o),
(799,573,o),
(863,608,c),
(1003,284,ls),
(1034,215,o),
(1049,163,o),
(1049,128,cs),
(1049,105,o),
(1046,87,o),
(1041,75,c),
(1029,51,o),
(1006,42,o),
(959,37,c),
(959,0,l)
);
},
{
closed = 1;
nodes = (
(840,660,l),
(779,636,o),
(719,588,o),
(661,516,c),
(608,589,o),
(551,637,o),
(488,660,c),
(658,1079,l)
);
}
);
width = 1479;
}
);
note = uni0466;
unicode = 1126;
}
